# Blender v3.0.1 OBJ File: 'Medieval Town Pack.blend'
# www.blender.org
mtllib Sign_Post_Sign_Square_Lowpoly.mtl
o Sign_Post_Sign_Square_Lowpoly
v 1.910623 0.321686 -0.068912
v 2.272973 -0.317007 -0.068429
v 1.529145 -0.322802 -0.094761
v 0.633025 0.291845 -0.068248
v 1.315239 0.340353 -0.076379
v 1.367863 -0.040025 -0.091115
v -0.086782 -0.340361 0.050033
v 0.968208 -0.340246 0.032966
v 0.482417 -0.322843 0.068345
v 1.761879 0.340590 0.030641
v 0.764986 0.340683 0.048182
v 1.447121 0.298815 0.060016
v -0.086032 -0.339134 -0.068965
v 0.703575 -0.340766 -0.028348
v 0.796913 0.340548 -0.056167
v -0.085447 0.296907 0.073174
v -0.086730 0.346510 -0.045038
v 1.621021 -0.340205 -0.070412
v 2.283489 -0.340552 -0.036432
v 1.640826 -0.340399 0.024128
v 2.309320 0.050973 -0.024556
v 2.308775 -0.303485 -0.042345
v 2.272066 0.072001 -0.068878
v 0.964088 0.320285 0.064708
v 1.240927 -0.292756 0.041411
v 2.302900 0.328772 0.066480
v 1.963659 0.334941 0.069519
v 2.304534 -0.334143 0.070324
v 1.310780 -0.303040 0.018360
v 1.448355 -0.311875 0.040950
v 2.305821 0.313472 -0.066731
v 1.213229 -0.312233 -0.095664
v 0.587597 -0.298870 -0.071472
v 1.017734 -0.338489 -0.071677
v 0.610597 0.306521 0.070968
v 0.428710 0.320990 0.042437
v 0.423005 0.322556 -0.049750
v -0.086573 0.315260 -0.069097
v 2.281126 0.340124 -0.040988
vt 0.808615 0.369212
vt 0.694168 0.432542
vt 0.694503 0.299961
vt 0.805877 0.141575
vt 0.813094 0.263194
vt 0.745191 0.271799
vt 0.872647 0.954126
vt 0.869449 0.766338
vt 0.875495 0.852823
vt 0.450673 0.661412
vt 0.461184 0.833376
vt 0.445779 0.716326
vt 0.493519 0.015273
vt 0.466332 0.160614
vt 0.471516 0.012157
vt 0.448213 0.208035
vt 0.478400 0.826479
vt 0.457752 0.329424
vt 0.446505 0.445900
vt 0.440657 0.331961
vt 0.450144 0.517327
vt 0.448693 0.453240
vt 0.460846 0.520259
vt 0.763458 0.433117
vt 0.475068 0.737019
vt 0.983351 0.679277
vt 0.988508 0.765423
vt 0.878168 0.717667
vt 0.986575 0.526680
vt 0.988508 0.587119
vt 0.868438 0.528023
vt 0.445976 0.271909
vt 0.874481 0.680621
vt 0.806405 0.439588
vt 0.460861 0.563908
vt 0.697016 0.243709
vt 0.700760 0.132224
vt 0.466267 0.219174
vt 0.468352 0.255599
vt 0.986629 0.952837
vt 0.987125 0.828532
vt 0.486949 0.980943
vt 0.464823 0.981879
vt 0.466458 0.891742
vt 0.695028 0.012157
vt 0.483035 0.891593
vt 0.811583 0.013457
vt 0.441661 0.627013
vt 0.467740 0.634157
vt 0.456624 0.570723
vt 0.463732 0.313256
vt 0.480423 0.140768
vt 0.867183 0.646625
vt 0.427827 0.449231
vt 0.487689 0.854554
vt 0.696491 0.440457
vt 0.453500 0.445658
vt 0.873380 0.705333
vt 0.437414 0.568331
vt 0.813094 0.435325
vt 0.453710 0.799531
vt 0.493519 0.980347
vt 0.457740 0.860670
vn 0.0250 0.3337 -0.9423
vn 0.3008 -0.4024 -0.8646
vn -0.0668 -0.6452 -0.7610
vn -0.0229 0.1822 -0.9830
vn -0.0012 0.7163 -0.6977
vn 0.0023 0.0288 -0.9996
vn -0.0218 -0.7288 0.6843
vn 0.0571 -0.8566 0.5128
vn 0.0099 -0.4796 0.8774
vn -0.0312 0.9675 0.2510
vn -0.0248 0.8953 0.4448
vn 0.0034 0.2441 0.9697
vn -0.0004 -0.7043 -0.7099
vn -0.0288 -0.9527 -0.3026
vn -0.0352 0.8252 -0.5637
vn -0.0267 -0.9425 -0.3330
vn 0.4012 -0.8636 -0.3052
vn -0.0501 -0.9274 0.3706
vn 0.9549 -0.0059 -0.2969
vn 0.8784 -0.2292 -0.4193
vn 0.3945 -0.0237 -0.9186
vn 0.0320 0.4720 0.8810
vn 0.0538 -0.4243 0.9039
vn 0.5842 0.5511 0.5958
vn -0.0042 0.6700 0.7423
vn 0.5703 -0.5676 0.5937
vn -0.0389 -0.9889 0.1431
vn -0.0754 -0.5965 0.7990
vn 0.6564 0.3706 -0.6570
vn 0.0353 -0.6855 -0.7272
vn -0.0005 -0.3567 -0.9342
vn 0.0306 -0.8748 -0.4834
vn -0.0196 0.5405 0.8411
vn -0.0162 0.3770 0.9261
vn 0.0052 0.9629 -0.2696
vn -0.0104 0.9589 0.2837
vn 0.0106 0.8963 -0.4433
vn 0.0121 0.3287 -0.9444
vn 0.2821 0.9144 -0.2902
usemtl Default_OBJ.009
s 1
f 1/1/1 2/2/2 3/3/3
f 4/4/4 5/5/5 6/6/6
f 7/7/7 8/8/8 9/9/9
f 10/10/10 11/11/11 12/12/12
f 13/13/13 14/14/14 7/15/7
f 14/14/14 8/16/8 7/15/7
f 15/17/15 11/11/11 10/10/10
f 18/18/16 19/19/17 20/20/18
f 21/21/19 22/22/20 23/23/21
f 1/1/1 23/24/21 2/2/2
f 15/17/15 10/10/10 5/25/5
f 12/26/12 24/27/22 25/28/23
f 26/29/24 27/30/25 28/31/26
f 29/32/27 18/18/16 20/20/18
f 27/30/25 30/33/28 28/31/26
f 1/1/1 31/34/29 23/24/21
f 31/35/29 21/21/19 23/23/21
f 4/4/4 32/36/30 33/37/31
f 34/38/32 32/39/30 8/16/8
f 9/9/9 16/40/33 7/7/7
f 35/41/34 9/9/9 25/28/23
f 35/41/34 16/40/33 9/9/9
f 17/42/35 16/43/33 36/44/36
f 13/45/13 4/4/4 33/37/31
f 37/46/37 36/44/36 15/17/15
f 38/47/38 4/4/4 13/45/13
f 27/30/25 12/26/12 30/33/28
f 27/48/25 10/10/10 12/12/12
f 32/39/30 29/32/27 8/16/8
f 30/33/28 12/26/12 25/28/23
f 5/5/5 1/1/1 6/6/6
f 1/49/1 5/25/5 39/50/39
f 39/50/39 10/10/10 27/48/25
f 39/50/39 5/25/5 10/10/10
f 6/6/6 1/1/1 3/3/3
f 3/51/3 29/32/27 32/39/30
f 13/13/13 33/52/31 14/14/14
f 33/52/31 32/39/30 34/38/32
f 28/31/26 30/33/28 20/53/18
f 20/20/18 19/19/17 28/54/26
f 15/17/15 5/25/5 4/55/4
f 37/46/37 15/17/15 4/55/4
f 23/24/21 22/56/20 2/2/2
f 3/51/3 2/57/2 19/19/17
f 25/28/23 9/9/9 8/8/8
f 8/8/8 29/58/27 25/28/23
f 21/21/19 31/35/29 26/59/24
f 39/50/39 27/48/25 26/59/24
f 1/1/1 39/60/39 31/34/29
f 39/50/39 26/59/24 31/35/29
f 14/14/14 34/38/32 8/16/8
f 14/14/14 33/52/31 34/38/32
f 11/11/11 24/61/22 12/12/12
f 15/17/15 36/44/36 11/11/11
f 29/32/27 3/51/3 18/18/16
f 3/51/3 19/19/17 18/18/16
f 37/46/37 17/42/35 36/44/36
f 37/46/37 4/55/4 38/62/38
f 29/58/27 20/53/18 30/33/28
f 29/58/27 30/33/28 25/28/23
f 17/42/35 37/46/37 38/62/38
f 2/57/2 22/22/20 19/19/17
f 22/22/20 28/54/26 19/19/17
f 11/11/11 36/44/36 35/63/34
f 36/44/36 16/43/33 35/63/34
f 26/59/24 28/54/26 21/21/19
f 21/21/19 28/54/26 22/22/20
f 6/6/6 3/3/3 32/36/30
f 4/4/4 6/6/6 32/36/30
f 11/11/11 35/63/34 24/61/22
f 24/27/22 35/41/34 25/28/23
