# Blender v3.0.1 OBJ File: 'Medieval Town Pack.blend'
# www.blender.org
mtllib Sign_Post_Post_Lowpoly.mtl
o Sign_Post_Post_Lowpoly
v -0.337416 0.844000 -0.267141
v -0.330959 -0.082424 -0.343570
v -0.370616 -0.057926 -0.292413
v 0.204694 2.916431 -0.228034
v 0.173222 4.051955 0.151762
v 0.205011 2.818848 0.151930
v -0.225283 4.162508 -0.174099
v -0.226016 4.100910 0.137683
v -0.225284 6.569291 0.141641
v 0.132653 4.240705 0.180984
v -0.122538 3.363382 0.165546
v 0.178655 3.153069 0.167816
v -0.171235 3.285279 -0.232112
v 0.157253 1.408982 -0.196018
v -0.209339 5.113078 -0.199051
v 0.143557 3.744138 -0.229655
v 0.158115 5.113428 0.198168
v -0.176779 6.835245 0.199896
v -0.195066 4.990683 0.197702
v 0.172735 7.263616 -0.195774
v 0.055822 7.609690 0.070537
v 0.171645 7.274415 0.162147
v 0.221629 0.888045 0.315551
v -0.314456 -0.028870 0.347697
v 0.210036 -0.012345 0.346270
v 0.212967 1.967696 -0.174875
v -0.226871 7.275765 -0.158798
v -0.226633 6.625098 -0.141770
v -0.221850 7.284468 0.195166
v 0.130584 7.271073 0.199711
v -0.051957 7.647692 0.068153
v -0.196043 1.676136 0.166276
v -0.192555 2.850115 0.132182
v -0.191341 1.734138 -0.165810
v -0.169911 1.551755 0.200258
v 0.207975 2.105533 0.188745
v 0.280689 0.925640 -0.007553
v 0.278628 0.906403 -0.245222
v 0.182035 0.994158 -0.198432
v 0.189092 0.933480 -0.302632
v -0.292412 0.989732 -0.223311
v 0.152206 0.988188 -0.256146
v 0.182865 0.994341 0.133592
v 0.209403 0.986884 0.252533
v 0.118091 0.991829 0.199455
v -0.217480 0.990670 0.195993
v -0.216055 0.990128 -0.133236
v -0.170391 1.575692 -0.198897
v -0.148330 0.991975 -0.199048
v -0.186636 2.495724 -0.207663
v -0.348047 0.875602 0.253484
v -0.267419 0.987575 0.251862
v -0.270870 0.932270 0.300967
v 0.173442 4.115002 -0.176938
v -0.185713 7.288226 -0.199843
v 0.039544 7.604416 -0.082145
v -0.096040 7.667994 -0.046677
v 0.173670 5.633655 -0.108214
v 0.275016 -0.081281 0.328160
v -0.373346 -0.076111 0.303127
v 0.277519 0.880085 0.239207
v 0.310089 0.177295 0.291244
v 0.307689 0.252566 -0.281532
v -0.220109 3.775052 0.149922
v -0.212072 3.476797 0.082255
v 0.311334 -0.082554 -0.191218
v -0.250838 0.909919 -0.311372
v 0.252303 0.420865 -0.329603
v 0.173441 6.274774 -0.117790
v 0.091182 6.478885 -0.199971
v -0.229918 4.515170 0.190865
v 0.279657 -0.055403 -0.341251
v 0.081256 5.672925 -0.198492
v -0.161985 6.704674 -0.199926
v -0.213709 6.225332 -0.198038
v 0.142686 5.261820 -0.198021
v -0.171245 4.147635 0.180588
v 0.156886 5.888605 -0.184417
vt 0.310098 0.795114
vt 0.435690 0.800887
vt 0.429502 0.810704
vt 0.260607 0.318071
vt 0.200756 0.489017
vt 0.201838 0.301129
vt 0.089641 0.506546
vt 0.134398 0.496211
vt 0.146475 0.839293
vt 0.192310 0.515080
vt 0.149217 0.386360
vt 0.196140 0.353072
vt 0.076837 0.373654
vt 0.017611 0.316560
vt 0.023414 0.076001
vt 0.089062 0.643536
vt 0.030785 0.443649
vt 0.195289 0.636418
vt 0.157725 0.871695
vt 0.147348 0.621208
vt 0.235343 0.938778
vt 0.179104 0.962531
vt 0.195028 0.926916
vt 0.268444 0.926716
vt 0.406994 0.898482
vt 0.382316 0.964048
vt 0.258527 0.167112
vt 0.123991 0.930426
vt 0.111520 0.849873
vt 0.159379 0.922167
vt 0.193346 0.925251
vt 0.166342 0.963421
vt 0.136765 0.117395
vt 0.135701 0.304706
vt 0.083535 0.127739
vt 0.143559 0.097524
vt 0.200882 0.187712
vt 0.293158 0.689231
vt 0.301775 0.718289
vt 0.283001 0.721170
vt 0.298755 0.729134
vt 0.288884 0.794364
vt 0.288505 0.730659
vt 0.273893 0.672680
vt 0.274616 0.654552
vt 0.250518 0.904513
vt 0.268298 0.855246
vt 0.253344 0.920771
vt 0.140748 0.005619
vt 0.087028 0.005234
vt 0.076642 0.102297
vt 0.071592 0.006557
vt 0.080627 0.249757
vt 0.294371 0.858826
vt 0.276600 0.857959
vt 0.284172 0.864334
vt 0.248336 0.498062
vt 0.274511 0.798496
vt 0.121886 0.933179
vt 0.125659 0.982453
vt 0.080558 0.948595
vt 0.153414 0.975678
vt 0.276588 0.778602
vt 0.236113 0.707171
vt 0.293924 0.653954
vt 0.387471 0.632605
vt 0.387919 0.710148
vt 0.136830 0.448065
vt 0.129203 0.402897
vt 0.431717 0.693997
vt 0.302288 0.785234
vt 0.366848 0.722162
vt 0.237965 0.796875
vt 0.065764 0.836329
vt 0.353302 0.970152
vt 0.262721 0.937934
vt 0.259371 0.444362
vt 0.252900 0.826731
vt 0.422490 0.622692
vt 0.186376 0.978621
vt 0.210466 0.010498
vt 0.195074 0.009326
vt 0.141439 0.554775
vt 0.416326 0.889629
vt 0.262674 0.664762
vt 0.431077 0.716483
vt 0.052962 0.726714
vt 0.102772 0.860926
vt 0.101306 0.795813
vt 0.249574 0.656569
vt 0.039076 0.667759
vt 0.145720 0.501873
vt 0.017611 0.008310
vt 0.264069 0.011086
vt 0.046285 0.757348
vt 0.247198 0.742729
vt 0.254034 0.712297
vt 0.268513 0.077857
vt 0.388353 0.975442
vn -0.8557 0.1790 -0.4855
vn -0.3843 0.0441 -0.9221
vn -0.9283 0.0411 -0.3694
vn 0.7065 0.0020 -0.7077
vn 0.9022 0.0157 0.4310
vn 0.9484 0.0258 0.3160
vn -0.9391 -0.0073 -0.3435
vn -0.9069 -0.0169 0.4210
vn -0.9489 0.0057 0.3154
vn 0.2530 -0.0241 0.9672
vn -0.3507 -0.0049 0.9364
vn 0.3623 0.0152 0.9319
vn -0.4183 -0.0040 -0.9083
vn 0.1049 0.0050 -0.9944
vn -0.4479 0.0055 -0.8940
vn 0.3575 0.0326 -0.9333
vn 0.5808 -0.0057 0.8140
vn -0.3329 -0.0244 0.9426
vn -0.0979 -0.0060 0.9951
vn 0.7001 0.1993 -0.6856
vn 0.5930 0.6804 0.4305
vn 0.8909 0.1997 0.4078
vn 0.4209 0.2861 0.8608
vn -0.3820 0.0427 0.9232
vn 0.1480 -0.0549 0.9874
vn 0.9149 -0.0264 -0.4027
vn -0.9127 0.1670 -0.3728
vn -0.9290 0.0243 -0.3693
vn -0.6889 0.2151 0.6922
vn 0.3561 0.1879 0.9153
vn -0.1457 0.8276 0.5420
vn -0.9365 0.0231 0.3499
vn -0.8943 0.0087 0.4472
vn -0.9684 -0.0013 -0.2491
vn -0.3618 0.0304 0.9317
vn 0.7053 0.0070 0.7088
vn 0.9114 0.4113 -0.0086
vn 0.8303 0.3876 -0.4005
vn 0.6302 0.6549 -0.4170
vn 0.3056 0.4403 -0.8442
vn -0.5320 0.7826 -0.3231
vn 0.1622 0.8657 -0.4735
vn 0.6800 0.6989 0.2215
vn 0.4118 0.7999 0.4366
vn 0.2133 0.7678 0.6041
vn -0.3285 0.8915 0.3118
vn -0.5550 0.8044 -0.2119
vn -0.4771 -0.0068 -0.8788
vn -0.2213 0.7754 -0.5913
vn -0.8597 -0.0110 -0.5106
vn -0.8771 0.2596 0.4041
vn -0.3955 0.8407 0.3699
vn -0.3386 0.3914 0.8556
vn 0.9560 0.0133 -0.2931
vn -0.3967 0.2123 -0.8931
vn 0.4940 0.6607 -0.5652
vn -0.3862 0.8740 -0.2948
vn 0.9387 -0.0010 -0.3447
vn 0.9215 0.2550 0.2929
vn 0.8580 0.0039 0.5136
vn 0.7298 -0.1383 -0.6695
vn -0.8126 -0.0432 0.5812
vn -0.9508 -0.0729 0.3009
vn 0.9952 -0.0023 -0.0971
vn -0.2598 0.3848 -0.8856
vn 0.4153 0.0533 -0.9081
vn 0.9473 0.0251 -0.3193
vn 0.3276 -0.0216 -0.9445
vn 0.7132 -0.1129 0.6918
vn -0.7135 -0.0175 0.7004
vn -0.9383 0.0428 0.3432
vn 0.6666 0.0565 -0.7432
vn 0.3265 -0.0272 -0.9448
vn -0.3395 -0.0005 -0.9406
vn -0.6327 0.0049 -0.7743
vn 0.5549 0.0208 -0.8316
vn -0.2988 -0.0478 0.9531
vn 0.6959 -0.0183 -0.7179
usemtl Default_OBJ.007
s 1
f 1/1/1 2/2/2 3/3/3
f 4/4/4 5/5/5 6/6/6
f 7/7/7 8/8/8 9/9/9
f 10/10/10 11/11/11 12/12/12
f 13/13/13 4/14/4 14/15/14
f 15/16/15 16/17/16 13/13/13
f 17/18/17 18/19/18 19/20/19
f 20/21/20 21/22/21 22/23/22
f 23/24/23 24/25/24 25/26/25
f 4/4/4 6/6/6 26/27/26
f 27/28/27 28/29/28 9/9/9
f 29/30/29 30/31/30 31/32/31
f 32/33/32 33/34/33 34/35/34
f 11/11/11 35/36/35 36/37/36
f 37/38/37 38/39/38 39/40/39
f 40/41/40 41/42/41 42/43/42
f 39/40/39 43/44/43 44/45/44
f 45/46/45 46/47/46 44/48/44
f 46/49/46 34/35/34 47/50/47
f 48/51/48 14/15/14 49/52/49
f 13/13/13 14/15/14 48/51/48
f 7/7/7 50/53/50 33/34/33
f 12/12/12 11/11/11 36/37/36
f 6/6/6 36/37/36 26/27/26
f 7/7/7 13/13/13 50/53/50
f 15/16/15 13/13/13 7/7/7
f 51/54/51 52/55/52 41/42/41
f 23/24/23 53/56/53 24/25/24
f 4/4/4 54/57/54 5/5/5
f 13/13/13 16/17/16 4/14/4
f 47/58/47 52/55/52 46/47/46
f 46/47/46 52/55/52 44/48/44
f 55/59/55 56/60/56 20/61/20
f 27/28/27 29/30/29 57/62/57
f 47/58/47 41/42/41 52/55/52
f 42/43/42 41/42/41 49/63/49
f 30/31/30 18/19/18 17/18/17
f 58/64/58 22/23/22 5/5/5
f 61/65/59 62/66/60 63/67/61
f 19/20/19 11/11/11 10/10/10
f 64/68/62 7/7/7 65/69/63
f 63/67/61 62/66/60 66/70/64
f 67/71/65 40/41/40 2/2/2
f 11/11/11 33/34/33 35/36/35
f 11/11/11 64/68/62 65/69/63
f 38/39/38 61/65/59 63/67/61
f 40/41/40 68/72/66 2/2/2
f 20/21/20 22/23/22 69/73/67
f 55/59/55 20/61/20 70/74/68
f 23/24/23 62/75/60 61/76/59
f 53/56/53 23/24/23 44/48/44
f 54/57/54 4/4/4 16/77/16
f 70/78/68 20/21/20 69/73/67
f 62/75/60 23/24/23 25/26/25
f 59/79/69 66/70/64 62/66/60
f 49/63/49 41/42/41 47/58/47
f 47/50/47 48/51/48 49/52/49
f 56/80/56 21/22/21 20/21/20
f 31/32/31 57/62/57 29/30/29
f 51/54/51 1/1/1 3/3/3
f 26/27/26 36/37/36 43/81/43
f 36/37/36 35/36/35 45/82/45
f 30/31/30 29/30/29 18/19/18
f 18/19/18 9/9/9 71/83/70
f 51/54/51 3/3/3 60/84/71
f 53/56/53 51/54/51 24/25/24
f 43/44/43 45/85/45 44/45/44
f 36/37/36 45/82/45 43/81/43
f 9/9/9 29/30/29 27/28/27
f 18/19/18 29/30/29 9/9/9
f 72/86/72 68/72/66 66/70/64
f 35/36/35 46/49/46 45/82/45
f 34/35/34 46/49/46 32/33/32
f 55/59/55 73/87/73 74/88/74
f 28/29/28 55/59/55 74/88/74
f 1/1/1 67/71/65 2/2/2
f 40/41/40 67/71/65 41/42/41
f 17/18/17 19/20/19 10/10/10
f 22/23/22 17/18/17 5/5/5
f 28/29/28 75/89/75 7/7/7
f 28/29/28 7/7/7 9/9/9
f 58/64/58 5/5/5 54/57/54
f 76/90/76 58/64/58 54/57/54
f 41/42/41 1/1/1 51/54/51
f 41/42/41 67/71/65 1/1/1
f 65/69/63 33/34/33 11/11/11
f 65/69/63 7/7/7 33/34/33
f 22/23/22 21/22/21 30/31/30
f 22/23/22 30/31/30 17/18/17
f 74/88/74 73/87/73 15/16/15
f 75/89/75 15/16/15 7/7/7
f 35/36/35 33/34/33 32/33/32
f 35/36/35 32/33/32 46/49/46
f 40/41/40 38/39/38 68/72/66
f 38/39/38 40/41/40 42/43/42
f 15/16/15 76/91/76 16/17/16
f 16/77/16 76/90/76 54/57/54
f 19/20/19 77/92/77 11/11/11
f 18/19/18 71/83/70 19/20/19
f 23/24/23 61/76/59 44/48/44
f 44/45/44 37/38/37 39/40/39
f 71/83/70 9/9/9 8/8/8
f 11/11/11 77/92/77 64/68/62
f 31/32/31 56/80/56 57/62/57
f 57/62/57 56/60/56 55/59/55
f 49/52/49 14/15/14 39/93/39
f 26/27/26 43/81/43 39/94/39
f 73/87/73 55/59/55 70/74/68
f 70/74/68 78/95/78 73/87/73
f 60/84/71 24/25/24 51/54/51
f 70/78/68 69/73/67 78/96/78
f 58/64/58 73/97/73 78/96/78
f 69/73/67 22/23/22 58/64/58
f 78/96/78 69/73/67 58/64/58
f 14/98/14 26/27/26 39/94/39
f 4/4/4 26/27/26 14/98/14
f 53/56/53 52/55/52 51/54/51
f 53/56/53 44/48/44 52/55/52
f 71/83/70 8/8/8 77/92/77
f 77/92/77 19/20/19 71/83/70
f 28/29/28 74/88/74 75/89/75
f 75/89/75 74/88/74 15/16/15
f 21/22/21 31/32/31 30/31/30
f 21/22/21 56/80/56 31/32/31
f 76/90/76 73/97/73 58/64/58
f 15/16/15 73/87/73 76/91/76
f 42/43/42 39/40/39 38/39/38
f 39/40/39 42/43/42 49/63/49
f 77/92/77 8/8/8 64/68/62
f 8/8/8 7/7/7 64/68/62
f 38/39/38 63/67/61 68/72/66
f 68/72/66 63/67/61 66/70/64
f 33/34/33 50/53/50 34/35/34
f 34/35/34 48/51/48 47/50/47
f 10/10/10 5/5/5 17/18/17
f 5/5/5 10/10/10 12/12/12
f 62/75/60 25/26/25 59/99/69
f 25/26/25 24/25/24 59/99/69
f 57/62/57 55/59/55 27/28/27
f 28/29/28 27/28/27 55/59/55
f 6/6/6 5/5/5 12/12/12
f 12/12/12 36/37/36 6/6/6
f 61/65/59 37/38/37 44/45/44
f 38/39/38 37/38/37 61/65/59
f 50/53/50 13/13/13 48/51/48
f 34/35/34 50/53/50 48/51/48
f 2/2/2 68/72/66 72/86/72
