# Blender v3.4.1 OBJ File: 'Medieval Farm Pack.blend'
# www.blender.org
mtllib Grain_Sack_1_Lowpoly.mtl
o Grain_Sack_1_Lowpoly
v -0.713827 0.333495 0.465965
v -0.794503 0.715900 0.396427
v -0.873545 0.378102 0.238265
v 0.164814 1.310190 0.789659
v 0.221570 0.629361 0.826130
v 0.485900 0.664455 0.762621
v -0.948072 0.020469 0.033266
v -0.462716 -0.048836 0.044488
v -0.671122 -0.050630 0.473576
v 0.756688 1.069263 -0.236696
v 0.790492 1.105226 0.205915
v 0.832026 0.835154 0.247547
v -0.467993 1.651113 -0.675431
v -0.530771 0.894138 -0.551103
v -0.706250 1.442351 -0.425254
v -0.269718 0.370899 -0.736061
v -0.036536 0.702679 -0.775462
v 0.131681 0.004286 -0.765206
v -0.457532 0.852772 0.646629
v 0.492940 1.521273 0.257171
v 0.661268 1.431608 0.344048
v 0.716198 1.488644 -0.052364
v 0.826175 0.443916 0.124121
v 0.634439 0.524762 -0.500187
v 0.697602 -0.049927 -0.552026
v 0.888158 -0.000862 0.087489
v 0.549184 -0.047435 0.468637
v 0.387684 1.560282 -0.238455
v 0.147109 1.560953 0.045669
v 0.206121 1.317585 -0.675677
v 0.681196 1.387300 -0.453923
v 0.474239 0.853399 -0.640490
v -0.885713 0.046569 0.355537
v -0.392364 0.353794 0.676111
v 0.308360 1.457527 0.609054
v -0.130380 1.483490 0.651959
v 0.007722 1.630892 0.741208
v -0.084523 0.929286 0.765503
v -0.887516 0.728979 0.238756
v -0.884177 0.834562 0.071511
v -0.872539 0.517653 -0.015514
v -0.083600 1.572104 -0.331857
v -0.612143 1.540825 0.063736
v -0.110429 1.575819 0.422583
v -0.444697 1.492281 0.472435
v -0.698471 1.589249 0.299342
v -0.697166 1.629319 0.528473
v -0.579935 1.634232 0.629703
v 0.207592 1.656323 0.775528
v 0.501873 1.609505 0.601346
v 0.383493 1.402656 0.724829
v 0.666245 0.757309 0.594060
v 0.627545 1.399234 0.482045
v -0.246515 -0.047252 0.687866
v 0.031837 0.328704 0.751205
v 0.396384 0.318241 0.713588
v -0.173891 0.034811 0.765994
v 0.172066 1.536716 0.560315
v -0.453709 -0.054830 -0.657947
v -0.758660 -0.038337 -0.388810
v -0.622462 0.041826 -0.702080
v -0.813339 0.980537 -0.135548
v -0.582610 0.379467 -0.592694
v -0.852533 0.080188 -0.400465
v -0.298950 1.234285 -0.692428
v 0.170985 1.603786 -0.811665
v -0.435348 1.489186 -0.504481
v -0.155806 1.464165 0.807054
v -0.257403 1.287476 0.678644
v -0.498927 1.514746 0.749274
v -0.751451 1.512410 0.543012
v -0.418804 1.296906 0.590633
v -0.066339 1.544496 -0.846858
v 0.298799 1.511442 -0.838843
v 0.656833 1.599615 -0.604142
v 0.709012 0.367739 0.478494
v -0.787532 1.430719 0.270683
v -0.925645 1.589982 -0.017267
v 0.798332 1.534667 0.491311
v 0.832425 1.380103 -0.018854
v 0.897784 1.573686 -0.093307
v -1.013534 0.084475 0.002922
v -0.905442 0.324950 -0.039226
v -0.253793 1.669756 0.772038
v 0.038804 1.596838 0.857754
v -0.037578 1.504687 -0.681117
v 0.836129 1.528388 -0.389094
v 0.794541 1.347976 -0.218750
v -0.790335 1.594247 0.490305
v -0.879939 1.645024 0.049574
v 0.773403 1.582217 -0.369202
v 0.825064 1.607442 0.238597
v 0.450222 1.595366 -0.563750
v 0.631018 1.455470 -0.297362
v -0.773716 1.286057 0.229838
v -0.821783 1.294149 0.076615
v 0.710974 1.555678 0.406302
v 0.722735 1.340328 0.421228
v 0.779047 1.336743 0.296880
v 0.547183 1.612945 0.708912
v -0.804378 1.617815 -0.143774
v -0.679472 1.493181 -0.219255
v -0.693506 1.493737 0.147982
v 0.933378 0.144716 0.060853
v 0.820743 0.053681 -0.507128
v -0.742888 1.586600 -0.485894
v 0.483852 1.471732 -0.461124
v 0.492557 0.416256 -0.655319
v 0.431029 0.076501 -0.719865
v -0.806916 1.378586 -0.192394
v -0.624477 0.030210 0.620535
v 0.218532 1.574836 0.267265
v 0.250070 0.012035 0.715512
v 0.765837 0.094398 0.436141
v -0.444697 1.492281 0.472435
v -0.693506 1.493737 0.147982
v 0.631018 1.455470 -0.297362
v 0.483852 1.471732 -0.461124
v -0.679472 1.493181 -0.219255
v -0.435348 1.489186 -0.504481
v 0.716198 1.488644 -0.052364
v -0.037578 1.504687 -0.681117
v 0.661268 1.431608 0.344048
vt 0.147287 0.871018
vt 0.219327 0.878319
vt 0.162052 0.924549
vt 0.277594 0.698621
vt 0.182487 0.702115
vt 0.184706 0.664899
vt 0.745845 0.054714
vt 0.717069 0.183859
vt 0.614190 0.106521
vt 0.232525 0.499561
vt 0.241723 0.570072
vt 0.201470 0.575325
vt 0.370118 0.286426
vt 0.235435 0.218201
vt 0.356430 0.216014
vt 0.114781 0.258628
vt 0.173421 0.318277
vt 0.013973 0.337686
vt 0.226539 0.804237
vt 0.663952 0.884898
vt 0.641638 0.938355
vt 0.562106 0.858408
vt 0.142021 0.563193
vt 0.137209 0.458917
vt 0.031802 0.486959
vt 0.080940 0.568836
vt 0.067264 0.642228
vt 0.603734 0.761672
vt 0.701552 0.782283
vt 0.278139 0.379987
vt 0.283443 0.460851
vt 0.193951 0.418339
vt 0.080313 0.971966
vt 0.068114 0.868166
vt 0.096867 0.909510
vt 0.144462 0.802463
vt 0.357547 0.658149
vt 0.364911 0.721159
vt 0.337356 0.706702
vt 0.229052 0.742623
vt 0.230542 0.910382
vt 0.262158 0.933261
vt 0.201832 0.972753
vt 0.689252 0.664045
vt 0.866797 0.663584
vt 0.816172 0.820136
vt 0.382534 0.765760
vt 0.391141 0.813446
vt 0.363555 0.797447
vt 0.354592 0.778010
vt 0.325478 0.682400
vt 0.331421 0.639776
vt 0.289596 0.664648
vt 0.194611 0.630275
vt 0.286349 0.617602
vt 0.551955 0.429372
vt 0.535542 0.207674
vt 0.137455 0.732732
vt 0.136294 0.677654
vt 0.089925 0.763614
vt 0.761213 0.931598
vt 0.779139 0.892516
vt 0.860269 0.870793
vt 0.900734 0.779128
vt 0.030924 0.204762
vt 0.042086 0.119063
vt 0.063057 0.183964
vt 0.287833 0.116774
vt 0.130223 0.188370
vt 0.193240 0.054184
vt 0.076098 0.114274
vt 0.284038 0.289521
vt 0.335223 0.379714
vt 0.411994 0.293034
vt 0.309017 0.734918
vt 0.286970 0.761244
vt 0.330401 0.770909
vt 0.348362 0.809369
vt 0.294015 0.788757
vt 0.331849 0.342472
vt 0.316153 0.392469
vt 0.317150 0.445316
vt 0.137516 0.618267
vt 0.352033 0.848567
vt 0.405179 0.881106
vt 0.312005 0.601908
vt 0.280747 0.533146
vt 0.307769 0.523134
vt 0.097588 0.984671
vt 0.148638 0.046032
vt 0.337019 0.739993
vt 0.316768 0.707782
vt 0.619967 0.594239
vt 0.737489 0.566042
vt 0.308641 0.482822
vt 0.276109 0.502568
vt 0.362635 0.811397
vt 0.406631 0.862285
vt 0.321933 0.482241
vt 0.342102 0.528772
vt 0.318807 0.566844
vt 0.339561 0.430356
vt 0.353173 0.486034
vt 0.331190 0.865319
vt 0.346588 0.891169
vt 0.330044 0.596687
vt 0.350545 0.590726
vt 0.281535 0.600650
vt 0.279253 0.580404
vt 0.317295 0.643043
vt 0.438163 0.868866
vt 0.838540 0.589141
vt 0.813729 0.522108
vt 0.418572 0.817915
vt 0.465823 0.854451
vt 0.446654 0.225891
vt 0.435247 0.188042
vt 0.099246 0.560520
vt 0.060923 0.495438
vt 0.380056 0.231151
vt 0.541196 0.729430
vt 0.902340 0.223529
vt 0.902340 0.384634
vt 0.110557 0.421789
vt 0.032441 0.411299
vt 0.535542 0.790560
vt 0.367916 0.161892
vt 0.441937 0.147552
vt 0.090251 0.844324
vt 0.723608 0.840092
vt 0.089839 0.700673
vt 0.069752 0.777312
vt 0.097070 0.612060
vt 0.158974 0.986027
vt 0.089337 0.017547
vt 0.375398 0.095287
vt 0.272759 0.056879
vt 0.357955 0.448977
vt 0.370254 0.356269
vt 0.067274 0.013973
vt 0.847443 0.128631
vt 0.465823 0.151604
vt 0.886698 0.467008
vt 0.900734 0.667146
vn -0.6843 0.1029 0.7219
vn -0.7555 0.0716 0.6512
vn -0.9352 0.1142 0.3352
vn 0.0703 -0.0642 0.9955
vn 0.0255 -0.0887 0.9957
vn 0.4831 -0.0604 0.8735
vn -0.5149 -0.8568 0.0280
vn -0.0500 -0.9987 0.0009
vn -0.3190 -0.9061 0.2779
vn 0.9628 -0.0557 -0.2643
vn 0.9850 0.0467 0.1661
vn 0.9825 0.0597 0.1763
vn -0.2795 0.8462 -0.4537
vn -0.6718 0.0149 -0.7406
vn -0.7612 -0.2426 -0.6015
vn -0.2381 0.0539 -0.9698
vn 0.0097 0.0507 -0.9987
vn 0.0710 -0.5340 -0.8425
vn -0.4826 0.0716 0.8729
vn 0.2643 0.9522 0.1530
vn 0.3610 0.8984 0.2502
vn 0.2751 0.9613 -0.0136
vn 0.9902 0.1327 0.0429
vn 0.8276 0.1345 -0.5450
vn 0.3972 -0.7681 -0.5022
vn 0.7095 -0.6927 0.1296
vn 0.2961 -0.8788 0.3743
vn 0.1722 0.9781 -0.1172
vn 0.0566 0.9984 -0.0057
vn 0.2840 -0.3123 -0.9065
vn 0.6806 -0.2805 -0.6769
vn 0.4618 0.0553 -0.8853
vn -0.8066 -0.3672 0.4631
vn -0.3612 0.0584 0.9306
vn -0.0346 0.9117 -0.4093
vn 0.0529 0.9120 -0.4067
vn 0.0030 0.6528 -0.7576
vn -0.2409 0.0336 0.9700
vn -0.9612 0.0525 0.2708
vn -0.9925 0.0617 -0.1056
vn -0.9705 0.0681 -0.2312
vn -0.0383 0.9930 -0.1118
vn -0.2934 0.9555 0.0298
vn -0.0709 0.9801 0.1852
vn 0.3815 0.8166 -0.4332
vn 0.6626 0.7124 -0.2314
vn -0.1075 0.9801 0.1666
vn -0.2151 0.9391 0.2680
vn 0.1074 0.9419 0.3181
vn -0.1285 0.8876 -0.4423
vn 0.4796 -0.1103 0.8705
vn 0.7910 0.0345 0.6108
vn 0.4657 -0.4132 0.7826
vn -0.0997 -0.8732 0.4771
vn -0.0466 -0.0524 0.9975
vn 0.3751 -0.1939 0.9065
vn -0.0899 -0.3040 0.9484
vn 0.1416 0.8774 0.4584
vn -0.2106 0.9468 0.2433
vn -0.1205 -0.8823 -0.4549
vn -0.4353 -0.8760 -0.2075
vn -0.5208 -0.2899 -0.8030
vn -0.9050 -0.0232 -0.4247
vn -0.6450 0.2342 -0.7274
vn -0.8758 -0.1085 -0.4703
vn -0.2763 -0.1003 -0.9558
vn 0.0076 0.8961 -0.4437
vn 0.4464 0.6790 0.5828
vn -0.1942 -0.3224 0.9265
vn -0.3837 -0.1335 0.9137
vn -0.4500 -0.1140 0.8857
vn -0.7444 -0.3356 0.5772
vn -0.5540 -0.2459 0.7953
vn -0.1401 0.1774 -0.9741
vn 0.3773 -0.0969 -0.9210
vn 0.5459 0.5238 -0.6539
vn 0.8061 -0.0222 0.5913
vn -0.8467 -0.3649 0.3872
vn -0.9697 0.2258 -0.0934
vn 0.7866 0.3149 0.5311
vn 0.9740 -0.2262 0.0073
vn 0.8844 0.4627 -0.0616
vn -0.9797 -0.1927 -0.0549
vn -0.9244 0.3139 -0.2167
vn -0.1309 0.8963 0.4237
vn 0.0343 0.2963 0.9545
vn -0.0002 0.9769 -0.2138
vn -0.1480 0.9748 -0.1667
vn 0.8901 0.1132 -0.4415
vn 0.9279 -0.2589 -0.2683
vn -0.8229 0.3835 0.4193
vn -0.4323 0.9006 0.0452
vn 0.1276 0.9917 0.0173
vn -0.7521 0.6585 0.0260
vn 0.3247 0.9404 0.1006
vn -0.2116 0.8846 0.4156
vn -0.5384 0.7427 0.3981
vn -0.8627 -0.0082 0.5056
vn -0.9908 -0.0505 0.1252
vn -0.3210 0.9315 -0.1710
vn -0.7747 0.5028 -0.3834
vn 0.4770 -0.5724 0.6669
vn 0.9467 -0.1832 0.2649
vn 0.5497 0.5212 0.6529
vn 0.4531 0.8910 0.0273
vn -0.2023 0.9718 -0.1214
vn 0.8274 0.5141 -0.2261
vn 0.7410 0.5680 0.3583
vn 0.9974 0.0392 0.0600
vn 0.8422 -0.1906 -0.5044
vn -0.7247 0.3133 -0.6137
vn 0.2534 0.9315 -0.2610
vn 0.4458 0.1087 -0.8885
vn 0.2873 -0.1593 -0.9445
vn 0.3374 0.9128 -0.2302
vn -0.9398 -0.1543 -0.3050
vn -0.5038 -0.3249 0.8003
vn 0.1145 0.9933 0.0152
vn 0.2221 -0.5697 0.7913
vn 0.7405 -0.3144 0.5940
vn -0.5680 0.4287 0.7026
vn 0.2124 0.5388 0.8152
vn -0.3721 0.9156 0.1524
usemtl Default_OBJ.031
s 1
f 1/1/1 2/2/2 3/3/3
f 4/4/4 5/5/5 6/6/6
f 7/7/7 8/8/8 9/9/9
f 10/10/10 11/11/11 12/12/12
f 13/13/13 14/14/14 15/15/15
f 16/16/16 17/17/17 18/18/18
f 19/19/19 2/2/2 1/1/1
f 20/20/20 123/21/21 121/22/22
f 10/10/10 23/23/23 24/24/24
f 25/25/25 26/26/26 27/27/27
f 28/28/28 29/29/29 20/20/20
f 30/30/30 31/31/31 32/32/32
f 7/33/7 9/34/9 33/35/33
f 34/36/34 19/19/19 1/1/1
f 35/37/35 36/38/36 37/39/37
f 4/4/4 38/40/38 5/5/5
f 39/41/39 40/42/40 41/43/41
f 42/44/42 43/45/43 44/46/44
f 115/47/45 46/48/46 47/49/47
f 48/50/48 37/39/37 36/38/36
f 49/51/49 50/52/50 37/39/37
f 51/53/51 52/54/52 53/55/53
f 8/8/8 27/56/27 54/57/54
f 55/58/55 38/40/38 34/36/34
f 56/59/56 6/6/6 5/5/5
f 56/59/56 55/58/55 57/60/57
f 35/61/35 58/62/58 36/63/36
f 43/45/43 45/64/59 44/46/44
f 59/65/60 60/66/61 61/67/62
f 62/68/63 63/69/64 41/70/41
f 35/61/35 123/21/21 58/62/58
f 35/37/35 37/39/37 50/52/50
f 63/69/64 61/67/62 64/71/65
f 14/14/14 65/72/66 16/16/16
f 14/14/14 13/13/13 65/72/66
f 66/73/67 13/13/13 120/74/68
f 68/75/69 69/76/70 4/4/4
f 70/77/71 71/78/72 72/79/73
f 65/72/66 13/13/13 73/80/74
f 30/30/30 74/81/75 75/82/76
f 6/6/6 56/59/56 76/83/77
f 53/55/53 52/54/52 12/12/12
f 72/79/73 71/78/72 77/84/78
f 71/78/72 78/85/79 77/84/78
f 79/86/80 80/87/81 81/88/82
f 10/10/10 24/24/24 31/31/31
f 33/35/33 3/3/3 82/89/83
f 83/90/84 63/69/64 64/71/65
f 70/77/71 84/91/85 48/50/48
f 85/92/86 84/91/85 70/77/71
f 28/28/28 86/93/87 42/44/42
f 67/94/88 42/44/42 86/93/87
f 16/16/16 18/18/18 61/67/62
f 61/67/62 63/69/64 16/16/16
f 31/31/31 87/95/89 88/96/90
f 30/30/30 75/82/76 31/31/31
f 89/97/91 47/49/47 90/98/92
f 48/50/48 89/97/91 70/77/71
f 91/99/93 22/100/94 92/101/95
f 93/102/96 94/103/97 91/99/93
f 39/41/39 95/104/98 96/105/99
f 72/79/73 95/104/98 2/2/2
f 35/37/35 97/106/100 21/107/101
f 21/107/101 97/106/100 22/100/94
f 62/68/63 14/14/14 63/69/64
f 63/69/64 14/14/14 16/16/16
f 98/108/102 99/109/103 79/86/80
f 79/86/80 100/110/104 98/108/102
f 46/48/46 101/111/105 47/49/47
f 42/44/42 102/112/106 43/45/43
f 8/8/8 54/57/54 9/9/9
f 55/58/55 34/36/34 57/60/57
f 59/65/60 61/67/62 18/18/18
f 8/8/8 25/113/25 27/56/27
f 85/92/86 49/51/49 84/91/85
f 100/110/104 51/53/51 53/55/53
f 103/114/107 119/115/108 101/111/105
f 119/116/108 13/13/13 101/117/105
f 17/17/17 32/32/32 18/18/18
f 104/118/109 105/119/110 24/24/24
f 15/15/15 14/14/14 62/68/63
f 13/13/13 106/120/111 101/117/105
f 85/92/86 68/75/69 4/4/4
f 4/4/4 100/110/104 85/92/86
f 20/20/20 121/22/22 28/28/28
f 28/28/28 118/121/112 86/93/87
f 59/122/60 18/123/18 25/113/25
f 108/124/113 105/119/110 109/125/114
f 121/22/22 117/126/115 28/28/28
f 94/103/97 22/100/94 91/99/93
f 96/105/99 95/104/98 78/85/79
f 106/120/111 110/127/116 78/128/79
f 57/60/57 34/36/34 111/129/117
f 34/36/34 1/1/1 111/129/117
f 3/3/3 2/2/2 39/41/39
f 2/2/2 95/104/98 39/41/39
f 112/130/118 29/29/29 44/46/44
f 36/63/36 58/62/58 44/46/44
f 113/131/119 54/132/54 27/27/27
f 27/27/27 114/133/120 113/131/119
f 3/3/3 39/41/39 41/43/41
f 82/89/83 3/3/3 83/134/84
f 65/72/66 17/17/17 16/16/16
f 65/72/66 74/81/75 30/30/30
f 38/40/38 55/58/55 5/5/5
f 5/5/5 55/58/55 56/59/56
f 83/90/84 64/71/65 82/135/83
f 60/66/61 64/71/65 61/67/62
f 82/135/83 64/71/65 60/66/61
f 82/89/83 7/33/7 33/35/33
f 87/95/89 81/88/82 88/96/90
f 81/88/82 91/99/93 92/101/95
f 106/120/111 13/13/13 15/15/15
f 110/127/116 106/120/111 15/15/15
f 72/79/73 77/84/78 95/104/98
f 78/85/79 95/104/98 77/84/78
f 93/102/96 91/99/93 75/82/76
f 87/95/89 91/99/93 81/88/82
f 44/46/44 45/64/59 36/63/36
f 36/38/36 115/47/45 47/49/47
f 33/35/33 1/1/1 3/3/3
f 1/1/1 33/35/33 111/129/117
f 96/105/99 40/42/40 39/41/39
f 62/68/63 110/127/116 15/15/15
f 75/82/76 74/81/75 66/73/67
f 73/80/74 13/13/13 66/73/67
f 96/136/99 110/127/116 40/137/40
f 78/128/79 110/127/116 96/136/99
f 105/119/110 25/25/25 109/125/114
f 25/25/25 105/119/110 26/26/26
f 107/138/121 93/102/96 122/139/122
f 122/139/122 66/73/67 120/74/68
f 40/137/40 62/68/63 41/70/41
f 40/137/40 110/127/116 62/68/63
f 6/6/6 76/83/77 52/54/52
f 51/53/51 6/6/6 52/54/52
f 119/116/108 120/74/68 13/13/13
f 67/94/88 102/112/106 42/44/42
f 60/66/61 7/140/7 82/135/83
f 7/7/7 60/141/61 8/8/8
f 12/12/12 52/54/52 76/83/77
f 23/23/23 104/118/109 24/24/24
f 38/40/38 19/19/19 34/36/34
f 69/76/70 38/40/38 4/4/4
f 23/23/23 76/83/77 104/118/109
f 27/27/27 26/26/26 114/133/120
f 69/76/70 19/19/19 38/40/38
f 19/19/19 72/79/73 2/2/2
f 10/10/10 12/12/12 23/23/23
f 12/12/12 76/83/77 23/23/23
f 76/83/77 114/133/120 104/118/109
f 56/59/56 114/133/120 76/83/77
f 104/118/109 26/26/26 105/119/110
f 114/133/120 26/26/26 104/118/109
f 79/86/80 97/106/100 100/110/104
f 92/101/95 79/86/80 81/88/82
f 113/131/119 114/133/120 56/59/56
f 56/59/56 57/60/57 113/131/119
f 35/37/35 50/52/50 97/106/100
f 100/110/104 97/106/100 50/52/50
f 83/90/84 41/70/41 63/69/64
f 41/43/41 83/134/84 3/3/3
f 32/32/32 17/17/17 30/30/30
f 65/72/66 30/30/30 17/17/17
f 37/39/37 84/91/85 49/51/49
f 37/39/37 48/50/48 84/91/85
f 24/24/24 32/32/32 31/31/31
f 108/124/113 24/24/24 105/119/110
f 92/101/95 22/100/94 97/106/100
f 97/106/100 79/86/80 92/101/95
f 101/111/105 90/98/92 47/49/47
f 101/117/105 106/120/111 90/142/92
f 58/62/58 123/21/21 20/20/20
f 58/62/58 112/130/118 44/46/44
f 53/55/53 12/12/12 11/11/11
f 53/55/53 98/108/102 100/110/104
f 108/124/113 32/32/32 24/24/24
f 32/32/32 108/124/113 18/18/18
f 68/75/69 70/77/71 72/79/73
f 85/92/86 70/77/71 68/75/69
f 20/20/20 112/130/118 58/62/58
f 20/20/20 29/29/29 112/130/118
f 87/95/89 75/82/76 91/99/93
f 31/31/31 75/82/76 87/95/89
f 59/122/60 25/113/25 8/8/8
f 60/141/61 59/122/60 8/8/8
f 69/76/70 72/79/73 19/19/19
f 68/75/69 72/79/73 69/76/70
f 66/73/67 122/139/122 93/102/96
f 75/82/76 66/73/67 93/102/96
f 98/108/102 53/55/53 11/11/11
f 99/109/103 98/108/102 11/11/11
f 47/49/47 48/50/48 36/38/36
f 47/49/47 89/97/91 48/50/48
f 51/53/51 4/4/4 6/6/6
f 100/110/104 4/4/4 51/53/51
f 80/87/81 99/109/103 11/11/11
f 79/86/80 99/109/103 80/87/81
f 18/123/18 109/143/114 25/113/25
f 18/18/18 108/124/113 109/125/114
f 80/87/81 88/96/90 81/88/82
f 10/10/10 80/87/81 11/11/11
f 10/10/10 88/96/90 80/87/81
f 10/10/10 31/31/31 88/96/90
f 111/129/117 33/35/33 9/34/9
f 54/132/54 111/129/117 9/34/9
f 43/45/43 116/144/123 45/64/59
f 102/112/106 116/144/123 43/45/43
f 57/60/57 54/132/54 113/131/119
f 57/60/57 111/129/117 54/132/54
f 46/48/46 103/114/107 101/111/105
f 115/47/45 103/114/107 46/48/46
f 117/126/115 118/121/112 28/28/28
f 107/138/121 94/103/97 93/102/96
f 29/29/29 42/44/42 44/46/44
f 29/29/29 28/28/28 42/44/42
f 89/97/91 90/98/92 78/85/79
f 106/120/111 78/128/79 90/142/92
f 71/78/72 70/77/71 89/97/91
f 78/85/79 71/78/72 89/97/91
f 66/73/67 74/81/75 73/80/74
f 74/81/75 65/72/66 73/80/74
f 50/52/50 49/51/49 100/110/104
f 85/92/86 100/110/104 49/51/49
