# Blender v3.4.1 OBJ File: 'Medieval Farm Pack.blend'
# www.blender.org
mtllib Grain_Sack_2.mtl
o Grain_Sack_1_Lowpoly
v -0.713827 0.363745 0.454053
v -0.794503 0.769082 0.342288
v -0.873545 0.395426 0.223581
v 0.164814 1.496683 0.596091
v 0.221570 0.729581 0.780998
v 0.485900 0.761777 0.712862
v -0.948072 0.020603 0.033224
v -0.462716 -0.049262 0.044252
v -0.671122 -0.055337 0.473300
v 0.756688 1.012100 -0.343324
v 0.790492 1.140905 0.081642
v 0.832026 0.871826 0.175911
v -0.467993 1.407208 -0.905536
v -0.530771 0.793303 -0.620915
v -0.706250 1.304330 -0.611180
v -0.269718 0.317019 -0.747608
v -0.036536 0.593809 -0.816488
v 0.131681 0.003642 -0.765208
v -0.457532 0.956552 0.566364
v 0.492940 1.574430 0.020284
v 0.661268 1.508267 0.130675
v 0.716198 1.452453 -0.266143
v 0.826175 0.454159 0.104317
v 0.634439 0.472392 -0.524543
v 0.697602 -0.044515 -0.552245
v 0.888158 -0.000876 0.087489
v 0.549184 -0.051799 0.468396
v 0.387684 1.464083 -0.464475
v 0.147109 1.550411 -0.193784
v 0.206121 1.130094 -0.822667
v 0.681196 1.248096 -0.624956
v 0.474239 0.742598 -0.702847
v -0.885713 0.049819 0.355309
v -0.392364 0.400435 0.662198
v 0.308360 1.609634 0.377162
v -0.130380 1.649820 0.409983
v 0.007722 1.836465 0.444653
v -0.084523 1.063031 0.668258
v -0.887516 0.760548 0.184237
v -0.884177 0.842498 0.002334
v -0.872539 0.515189 -0.041716
v -0.083600 1.446449 -0.556874
v -0.612143 1.536419 -0.170448
v -0.110429 1.679464 0.160689
v -0.444697 1.607467 0.235254
v -0.698471 1.655480 0.038952
v -0.697166 1.767858 0.243276
v -0.579935 1.804930 0.337633
v 0.207592 1.875058 0.467936
v 0.501873 1.769731 0.319379
v 0.383493 1.582090 0.505597
v 0.666245 0.842525 0.531309
v 0.627545 1.512467 0.272979
v -0.246515 -0.053633 0.687617
v 0.031837 0.376922 0.739039
v 0.396384 0.362591 0.702256
v -0.173891 0.040046 0.765858
v 0.172066 1.680006 0.304938
v -0.453709 -0.047746 -0.658204
v -0.758660 -0.035410 -0.388943
v -0.622462 0.036061 -0.702228
v -0.813339 0.948558 -0.227135
v -0.582610 0.335000 -0.605179
v -0.852533 0.073880 -0.401046
v -0.298950 1.056080 -0.821019
v 0.170985 1.326043 -1.022177
v -0.435348 1.322653 -0.699227
v -0.155806 1.672900 0.564935
v -0.257403 1.443532 0.495223
v -0.498927 1.712076 0.492799
v -0.751451 1.649164 0.296348
v -0.418804 1.431708 0.407366
v -0.066339 1.268054 -1.040605
v 0.298799 1.244070 -1.024796
v 0.656833 1.386817 -0.823720
v 0.709012 0.401936 0.463978
v -0.787532 1.487017 0.060449
v -0.925645 1.558981 -0.262593
v 0.798332 1.657357 0.239719
v 0.832425 1.358230 -0.204002
v 0.897784 1.520396 -0.330070
v -1.013534 0.084519 0.002221
v -0.905442 0.322229 -0.049508
v -0.253793 1.888595 0.459667
v 0.038804 1.835341 0.567673
v -0.037578 1.284594 -0.872257
v 0.836129 1.390541 -0.599306
v 0.794541 1.275076 -0.388468
v -0.790335 1.719316 0.219010
v -0.879939 1.632308 -0.216338
v 0.773403 1.444038 -0.595313
v 0.825064 1.654948 -0.024739
v 0.450222 1.395700 -0.784138
v 0.631018 1.351920 -0.491848
v -0.773716 1.329853 0.061049
v -0.821783 1.299527 -0.089374
v 0.710974 1.653780 0.151762
v 0.722735 1.434484 0.231388
v 0.779047 1.398474 0.112306
v 0.547183 1.806883 0.420400
v -0.804378 1.545845 -0.391363
v -0.679472 1.408524 -0.427209
v -0.693506 1.515196 -0.075806
v 0.933378 0.146426 0.058772
v 0.820743 0.048335 -0.507382
v -0.742888 1.412144 -0.707633
v 0.483852 1.319942 -0.653160
v 0.492557 0.362297 -0.670131
v 0.431029 0.065687 -0.720358
v -0.806916 1.310376 -0.370819
v -0.624477 0.033891 0.620435
v 0.218532 1.631190 0.013060
v 0.250070 0.013726 0.715495
v 0.765837 0.102475 0.435191
v -0.444697 1.607467 0.235254
v -0.693506 1.515196 -0.075806
v 0.631018 1.351920 -0.491848
v 0.483852 1.319942 -0.653160
v -0.679472 1.408524 -0.427209
v -0.435348 1.322653 -0.699227
v 0.716198 1.452453 -0.266143
v -0.037578 1.284594 -0.872257
v 0.661268 1.508267 0.130675
vt 0.147287 0.871018
vt 0.219327 0.878319
vt 0.162052 0.924549
vt 0.277594 0.698621
vt 0.182487 0.702115
vt 0.184706 0.664899
vt 0.745845 0.054714
vt 0.717069 0.183859
vt 0.614190 0.106521
vt 0.232525 0.499561
vt 0.241723 0.570072
vt 0.201470 0.575325
vt 0.370118 0.286426
vt 0.235435 0.218201
vt 0.356430 0.216014
vt 0.114781 0.258628
vt 0.173421 0.318277
vt 0.013973 0.337686
vt 0.226539 0.804237
vt 0.663952 0.884898
vt 0.641638 0.938355
vt 0.562106 0.858408
vt 0.142021 0.563193
vt 0.137209 0.458917
vt 0.031802 0.486959
vt 0.080940 0.568836
vt 0.067264 0.642228
vt 0.603734 0.761672
vt 0.701552 0.782283
vt 0.278139 0.379987
vt 0.283443 0.460851
vt 0.193951 0.418339
vt 0.080313 0.971966
vt 0.068114 0.868166
vt 0.096867 0.909510
vt 0.144462 0.802463
vt 0.357547 0.658149
vt 0.364911 0.721159
vt 0.337356 0.706702
vt 0.229052 0.742623
vt 0.230542 0.910382
vt 0.262158 0.933261
vt 0.201832 0.972753
vt 0.689252 0.664045
vt 0.866797 0.663584
vt 0.816172 0.820136
vt 0.382534 0.765760
vt 0.391141 0.813446
vt 0.363555 0.797447
vt 0.354592 0.778010
vt 0.325478 0.682400
vt 0.331421 0.639776
vt 0.289596 0.664648
vt 0.194611 0.630275
vt 0.286349 0.617602
vt 0.551955 0.429372
vt 0.535542 0.207674
vt 0.137455 0.732732
vt 0.136294 0.677654
vt 0.089925 0.763614
vt 0.761213 0.931598
vt 0.779139 0.892516
vt 0.860269 0.870793
vt 0.900734 0.779128
vt 0.030924 0.204762
vt 0.042086 0.119063
vt 0.063057 0.183964
vt 0.287833 0.116774
vt 0.130223 0.188370
vt 0.193240 0.054184
vt 0.076098 0.114274
vt 0.284038 0.289521
vt 0.335223 0.379714
vt 0.411994 0.293034
vt 0.309017 0.734918
vt 0.286970 0.761244
vt 0.330401 0.770909
vt 0.348362 0.809369
vt 0.294015 0.788757
vt 0.331849 0.342472
vt 0.316153 0.392469
vt 0.317150 0.445316
vt 0.137516 0.618267
vt 0.352033 0.848567
vt 0.405179 0.881106
vt 0.312005 0.601908
vt 0.280747 0.533146
vt 0.307769 0.523134
vt 0.097588 0.984671
vt 0.148638 0.046032
vt 0.337019 0.739993
vt 0.316768 0.707782
vt 0.619967 0.594239
vt 0.737489 0.566042
vt 0.308641 0.482822
vt 0.276109 0.502568
vt 0.362635 0.811397
vt 0.406631 0.862285
vt 0.321933 0.482241
vt 0.342102 0.528772
vt 0.318807 0.566844
vt 0.339561 0.430356
vt 0.353173 0.486034
vt 0.331190 0.865319
vt 0.346588 0.891169
vt 0.330044 0.596687
vt 0.350545 0.590726
vt 0.281535 0.600650
vt 0.279253 0.580404
vt 0.317295 0.643043
vt 0.438163 0.868866
vt 0.838540 0.589141
vt 0.813729 0.522108
vt 0.418572 0.817915
vt 0.465823 0.854451
vt 0.446654 0.225891
vt 0.435247 0.188042
vt 0.099246 0.560520
vt 0.060923 0.495438
vt 0.380056 0.231151
vt 0.541196 0.729430
vt 0.902340 0.223529
vt 0.902340 0.384634
vt 0.110557 0.421789
vt 0.032441 0.411299
vt 0.535542 0.790560
vt 0.367916 0.161892
vt 0.441937 0.147552
vt 0.090251 0.844324
vt 0.723608 0.840092
vt 0.089839 0.700673
vt 0.069752 0.777312
vt 0.097070 0.612060
vt 0.158974 0.986027
vt 0.089337 0.017547
vt 0.375398 0.095287
vt 0.272759 0.056879
vt 0.357955 0.448977
vt 0.370254 0.356269
vt 0.067274 0.013973
vt 0.847443 0.128631
vt 0.465823 0.151604
vt 0.886698 0.467008
vt 0.900734 0.667146
vn -0.6807 0.1475 0.7175
vn -0.7520 0.1607 0.6393
vn -0.9328 0.1348 0.3341
vn 0.0763 0.1810 0.9805
vn 0.0141 0.0571 0.9983
vn 0.4789 0.0743 0.8747
vn -0.5171 -0.8555 0.0277
vn -0.0499 -0.9987 -0.0087
vn -0.3322 -0.8980 0.2885
vn 0.9654 -0.1071 -0.2378
vn 0.9836 0.0819 0.1610
vn 0.9814 0.0881 0.1708
vn -0.2854 0.6563 -0.6985
vn -0.6804 -0.1109 -0.7244
vn -0.7624 -0.4144 -0.4970
vn -0.2430 -0.0245 -0.9697
vn 0.0179 -0.0770 -0.9969
vn 0.0705 -0.5750 -0.8151
vn -0.4810 0.2058 0.8522
vn 0.2767 0.9527 -0.1259
vn 0.3808 0.9247 -0.0028
vn 0.2725 0.9178 -0.2888
vn 0.9906 0.1309 0.0389
vn 0.8300 0.0861 -0.5511
vn 0.3862 -0.7746 -0.5009
vn 0.7117 -0.6901 0.1314
vn 0.3081 -0.8703 0.3843
vn 0.1652 0.9043 -0.3937
vn 0.0586 0.9496 -0.3080
vn 0.2865 -0.5492 -0.7851
vn 0.6874 -0.4590 -0.5628
vn 0.4542 -0.0837 -0.8869
vn -0.8136 -0.3460 0.4673
vn -0.3587 0.1275 0.9247
vn -0.0242 0.7547 -0.6556
vn 0.0508 0.7452 -0.6649
vn 0.0036 0.3297 -0.9441
vn -0.2301 0.2016 0.9520
vn -0.9594 0.0943 0.2658
vn -0.9931 0.0467 -0.1080
vn -0.9724 0.0417 -0.2298
vn -0.0367 0.9182 -0.3945
vn -0.2961 0.9218 -0.2501
vn -0.0761 0.9921 -0.0999
vn 0.4059 0.6188 -0.6725
vn 0.6820 0.5862 -0.4373
vn -0.1116 0.9838 -0.1406
vn -0.2170 0.9754 -0.0399
vn 0.1117 0.9937 0.0124
vn -0.1252 0.6883 -0.7146
vn 0.4791 0.1292 0.8682
vn 0.7870 0.1327 0.6025
vn 0.4696 -0.1569 0.8688
vn -0.1020 -0.8605 0.4991
vn -0.0491 0.0277 0.9984
vn 0.3729 -0.1086 0.9215
vn -0.0903 -0.2635 0.9604
vn 0.1510 0.9659 0.2103
vn -0.2245 0.9741 -0.0271
vn -0.1083 -0.8955 -0.4316
vn -0.4190 -0.8858 -0.1997
vn -0.5197 -0.3130 -0.7950
vn -0.9056 -0.1063 -0.4106
vn -0.6470 0.1995 -0.7359
vn -0.8729 -0.1249 -0.4717
vn -0.2747 -0.3280 -0.9039
vn 0.0081 0.7278 -0.6857
vn 0.4173 0.8571 0.3019
vn -0.1945 -0.0134 0.9808
vn -0.3822 0.1049 0.9181
vn -0.4507 0.1497 0.8800
vn -0.7526 -0.1374 0.6440
vn -0.5536 -0.0243 0.8325
vn -0.1313 -0.1016 -0.9861
vn 0.3795 -0.3526 -0.8554
vn 0.5432 0.2762 -0.7929
vn 0.8030 0.0249 0.5954
vn -0.8497 -0.2331 0.4730
vn -0.9701 0.1837 -0.1588
vn 0.7903 0.4522 0.4134
vn 0.9741 -0.2151 0.0698
vn 0.8864 0.4166 -0.2021
vn -0.9789 -0.1969 -0.0546
vn -0.9240 0.3043 -0.2316
vn -0.1338 0.9852 0.1073
vn 0.0384 0.5514 0.8333
vn -0.0006 0.8787 -0.4774
vn -0.1384 0.8909 -0.4327
vn 0.8872 -0.0173 -0.4611
vn 0.9277 -0.3264 -0.1813
vn -0.8230 0.4892 0.2885
vn -0.4341 0.8692 -0.2367
vn 0.1149 0.9512 -0.2863
vn -0.7516 0.6358 -0.1758
vn 0.3254 0.9277 -0.1832
vn -0.2000 0.9742 0.1049
vn -0.5143 0.8464 0.1385
vn -0.8590 0.1082 0.5003
vn -0.9899 -0.0204 0.1400
vn -0.3257 0.8331 -0.4471
vn -0.7859 0.3430 -0.5145
vn 0.4678 -0.3598 0.8073
vn 0.9473 -0.0986 0.3048
vn 0.5505 0.7043 0.4483
vn 0.4695 0.8495 -0.2406
vn -0.1959 0.8966 -0.3973
vn 0.8301 0.4152 -0.3722
vn 0.7307 0.6639 0.1591
vn 0.9975 0.0417 0.0562
vn 0.8415 -0.2108 -0.4975
vn -0.7186 0.1148 -0.6858
vn 0.2405 0.8266 -0.5088
vn 0.4719 0.0402 -0.8807
vn 0.2848 -0.2079 -0.9358
vn 0.3237 0.8182 -0.4752
vn -0.9414 -0.2305 -0.2463
vn -0.5078 -0.2971 0.8086
vn 0.1210 0.9516 -0.2824
vn 0.2318 -0.5368 0.8112
vn 0.7432 -0.2851 0.6053
vn -0.5567 0.6491 0.5184
vn 0.2130 0.7943 0.5689
vn -0.3755 0.9194 -0.1167
usemtl Default_OBJ.031
s 1
f 1/1/1 2/2/2 3/3/3
f 4/4/4 5/5/5 6/6/6
f 7/7/7 8/8/8 9/9/9
f 10/10/10 11/11/11 12/12/12
f 13/13/13 14/14/14 15/15/15
f 16/16/16 17/17/17 18/18/18
f 19/19/19 2/2/2 1/1/1
f 20/20/20 123/21/21 121/22/22
f 10/10/10 23/23/23 24/24/24
f 25/25/25 26/26/26 27/27/27
f 28/28/28 29/29/29 20/20/20
f 30/30/30 31/31/31 32/32/32
f 7/33/7 9/34/9 33/35/33
f 34/36/34 19/19/19 1/1/1
f 35/37/35 36/38/36 37/39/37
f 4/4/4 38/40/38 5/5/5
f 39/41/39 40/42/40 41/43/41
f 42/44/42 43/45/43 44/46/44
f 115/47/45 46/48/46 47/49/47
f 48/50/48 37/39/37 36/38/36
f 49/51/49 50/52/50 37/39/37
f 51/53/51 52/54/52 53/55/53
f 8/8/8 27/56/27 54/57/54
f 55/58/55 38/40/38 34/36/34
f 56/59/56 6/6/6 5/5/5
f 56/59/56 55/58/55 57/60/57
f 35/61/35 58/62/58 36/63/36
f 43/45/43 45/64/59 44/46/44
f 59/65/60 60/66/61 61/67/62
f 62/68/63 63/69/64 41/70/41
f 35/61/35 123/21/21 58/62/58
f 35/37/35 37/39/37 50/52/50
f 63/69/64 61/67/62 64/71/65
f 14/14/14 65/72/66 16/16/16
f 14/14/14 13/13/13 65/72/66
f 66/73/67 13/13/13 120/74/68
f 68/75/69 69/76/70 4/4/4
f 70/77/71 71/78/72 72/79/73
f 65/72/66 13/13/13 73/80/74
f 30/30/30 74/81/75 75/82/76
f 6/6/6 56/59/56 76/83/77
f 53/55/53 52/54/52 12/12/12
f 72/79/73 71/78/72 77/84/78
f 71/78/72 78/85/79 77/84/78
f 79/86/80 80/87/81 81/88/82
f 10/10/10 24/24/24 31/31/31
f 33/35/33 3/3/3 82/89/83
f 83/90/84 63/69/64 64/71/65
f 70/77/71 84/91/85 48/50/48
f 85/92/86 84/91/85 70/77/71
f 28/28/28 86/93/87 42/44/42
f 67/94/88 42/44/42 86/93/87
f 16/16/16 18/18/18 61/67/62
f 61/67/62 63/69/64 16/16/16
f 31/31/31 87/95/89 88/96/90
f 30/30/30 75/82/76 31/31/31
f 89/97/91 47/49/47 90/98/92
f 48/50/48 89/97/91 70/77/71
f 91/99/93 22/100/94 92/101/95
f 93/102/96 94/103/97 91/99/93
f 39/41/39 95/104/98 96/105/99
f 72/79/73 95/104/98 2/2/2
f 35/37/35 97/106/100 21/107/101
f 21/107/101 97/106/100 22/100/94
f 62/68/63 14/14/14 63/69/64
f 63/69/64 14/14/14 16/16/16
f 98/108/102 99/109/103 79/86/80
f 79/86/80 100/110/104 98/108/102
f 46/48/46 101/111/105 47/49/47
f 42/44/42 102/112/106 43/45/43
f 8/8/8 54/57/54 9/9/9
f 55/58/55 34/36/34 57/60/57
f 59/65/60 61/67/62 18/18/18
f 8/8/8 25/113/25 27/56/27
f 85/92/86 49/51/49 84/91/85
f 100/110/104 51/53/51 53/55/53
f 103/114/107 119/115/108 101/111/105
f 119/116/108 13/13/13 101/117/105
f 17/17/17 32/32/32 18/18/18
f 104/118/109 105/119/110 24/24/24
f 15/15/15 14/14/14 62/68/63
f 13/13/13 106/120/111 101/117/105
f 85/92/86 68/75/69 4/4/4
f 4/4/4 100/110/104 85/92/86
f 20/20/20 121/22/22 28/28/28
f 28/28/28 118/121/112 86/93/87
f 59/122/60 18/123/18 25/113/25
f 108/124/113 105/119/110 109/125/114
f 121/22/22 117/126/115 28/28/28
f 94/103/97 22/100/94 91/99/93
f 96/105/99 95/104/98 78/85/79
f 106/120/111 110/127/116 78/128/79
f 57/60/57 34/36/34 111/129/117
f 34/36/34 1/1/1 111/129/117
f 3/3/3 2/2/2 39/41/39
f 2/2/2 95/104/98 39/41/39
f 112/130/118 29/29/29 44/46/44
f 36/63/36 58/62/58 44/46/44
f 113/131/119 54/132/54 27/27/27
f 27/27/27 114/133/120 113/131/119
f 3/3/3 39/41/39 41/43/41
f 82/89/83 3/3/3 83/134/84
f 65/72/66 17/17/17 16/16/16
f 65/72/66 74/81/75 30/30/30
f 38/40/38 55/58/55 5/5/5
f 5/5/5 55/58/55 56/59/56
f 83/90/84 64/71/65 82/135/83
f 60/66/61 64/71/65 61/67/62
f 82/135/83 64/71/65 60/66/61
f 82/89/83 7/33/7 33/35/33
f 87/95/89 81/88/82 88/96/90
f 81/88/82 91/99/93 92/101/95
f 106/120/111 13/13/13 15/15/15
f 110/127/116 106/120/111 15/15/15
f 72/79/73 77/84/78 95/104/98
f 78/85/79 95/104/98 77/84/78
f 93/102/96 91/99/93 75/82/76
f 87/95/89 91/99/93 81/88/82
f 44/46/44 45/64/59 36/63/36
f 36/38/36 115/47/45 47/49/47
f 33/35/33 1/1/1 3/3/3
f 1/1/1 33/35/33 111/129/117
f 96/105/99 40/42/40 39/41/39
f 62/68/63 110/127/116 15/15/15
f 75/82/76 74/81/75 66/73/67
f 73/80/74 13/13/13 66/73/67
f 96/136/99 110/127/116 40/137/40
f 78/128/79 110/127/116 96/136/99
f 105/119/110 25/25/25 109/125/114
f 25/25/25 105/119/110 26/26/26
f 107/138/121 93/102/96 122/139/122
f 122/139/122 66/73/67 120/74/68
f 40/137/40 62/68/63 41/70/41
f 40/137/40 110/127/116 62/68/63
f 6/6/6 76/83/77 52/54/52
f 51/53/51 6/6/6 52/54/52
f 119/116/108 120/74/68 13/13/13
f 67/94/88 102/112/106 42/44/42
f 60/66/61 7/140/7 82/135/83
f 7/7/7 60/141/61 8/8/8
f 12/12/12 52/54/52 76/83/77
f 23/23/23 104/118/109 24/24/24
f 38/40/38 19/19/19 34/36/34
f 69/76/70 38/40/38 4/4/4
f 23/23/23 76/83/77 104/118/109
f 27/27/27 26/26/26 114/133/120
f 69/76/70 19/19/19 38/40/38
f 19/19/19 72/79/73 2/2/2
f 10/10/10 12/12/12 23/23/23
f 12/12/12 76/83/77 23/23/23
f 76/83/77 114/133/120 104/118/109
f 56/59/56 114/133/120 76/83/77
f 104/118/109 26/26/26 105/119/110
f 114/133/120 26/26/26 104/118/109
f 79/86/80 97/106/100 100/110/104
f 92/101/95 79/86/80 81/88/82
f 113/131/119 114/133/120 56/59/56
f 56/59/56 57/60/57 113/131/119
f 35/37/35 50/52/50 97/106/100
f 100/110/104 97/106/100 50/52/50
f 83/90/84 41/70/41 63/69/64
f 41/43/41 83/134/84 3/3/3
f 32/32/32 17/17/17 30/30/30
f 65/72/66 30/30/30 17/17/17
f 37/39/37 84/91/85 49/51/49
f 37/39/37 48/50/48 84/91/85
f 24/24/24 32/32/32 31/31/31
f 108/124/113 24/24/24 105/119/110
f 92/101/95 22/100/94 97/106/100
f 97/106/100 79/86/80 92/101/95
f 101/111/105 90/98/92 47/49/47
f 101/117/105 106/120/111 90/142/92
f 58/62/58 123/21/21 20/20/20
f 58/62/58 112/130/118 44/46/44
f 53/55/53 12/12/12 11/11/11
f 53/55/53 98/108/102 100/110/104
f 108/124/113 32/32/32 24/24/24
f 32/32/32 108/124/113 18/18/18
f 68/75/69 70/77/71 72/79/73
f 85/92/86 70/77/71 68/75/69
f 20/20/20 112/130/118 58/62/58
f 20/20/20 29/29/29 112/130/118
f 87/95/89 75/82/76 91/99/93
f 31/31/31 75/82/76 87/95/89
f 59/122/60 25/113/25 8/8/8
f 60/141/61 59/122/60 8/8/8
f 69/76/70 72/79/73 19/19/19
f 68/75/69 72/79/73 69/76/70
f 66/73/67 122/139/122 93/102/96
f 75/82/76 66/73/67 93/102/96
f 98/108/102 53/55/53 11/11/11
f 99/109/103 98/108/102 11/11/11
f 47/49/47 48/50/48 36/38/36
f 47/49/47 89/97/91 48/50/48
f 51/53/51 4/4/4 6/6/6
f 100/110/104 4/4/4 51/53/51
f 80/87/81 99/109/103 11/11/11
f 79/86/80 99/109/103 80/87/81
f 18/123/18 109/143/114 25/113/25
f 18/18/18 108/124/113 109/125/114
f 80/87/81 88/96/90 81/88/82
f 10/10/10 80/87/81 11/11/11
f 10/10/10 88/96/90 80/87/81
f 10/10/10 31/31/31 88/96/90
f 111/129/117 33/35/33 9/34/9
f 54/132/54 111/129/117 9/34/9
f 43/45/43 116/144/123 45/64/59
f 102/112/106 116/144/123 43/45/43
f 57/60/57 54/132/54 113/131/119
f 57/60/57 111/129/117 54/132/54
f 46/48/46 103/114/107 101/111/105
f 115/47/45 103/114/107 46/48/46
f 117/126/115 118/121/112 28/28/28
f 107/138/121 94/103/97 93/102/96
f 29/29/29 42/44/42 44/46/44
f 29/29/29 28/28/28 42/44/42
f 89/97/91 90/98/92 78/85/79
f 106/120/111 78/128/79 90/142/92
f 71/78/72 70/77/71 89/97/91
f 78/85/79 71/78/72 89/97/91
f 66/73/67 74/81/75 73/80/74
f 74/81/75 65/72/66 73/80/74
f 50/52/50 49/51/49 100/110/104
f 85/92/86 100/110/104 49/51/49
