# Blender v3.0.1 OBJ File: 'Medieval Town Pack.blend'
# www.blender.org
mtllib Stone_Wall_Railing_Pillar_Lowpoly.mtl
o Stone_Wall_Railing_Pillar_Lowpoly
v -0.517873 0.856489 -0.675363
v 0.216367 0.082822 0.699562
v 0.219595 1.091571 0.697876
v -0.271399 2.068792 -0.700862
v 0.008555 2.172851 -0.689484
v 0.621950 2.472526 -0.090708
v -0.450613 -0.205608 -0.693399
v -0.381677 -0.202654 0.698458
v 0.395463 2.665164 -0.780299
v -0.436310 2.407472 0.700381
v -0.291420 1.106746 0.691100
v -0.279586 2.063188 0.695470
v 0.605689 2.456059 0.757936
v 0.602897 2.598134 0.797548
v -0.610216 2.447918 -0.252551
v 0.021115 2.633745 -0.827340
v 0.554612 2.470743 -0.828902
v -0.060238 2.454222 -0.827687
v -0.615975 2.429359 0.773845
v -0.617285 2.651196 0.744670
v -0.564530 2.409757 0.781249
v -0.458336 2.441289 0.837017
v 0.598019 2.416552 -0.623930
v 0.597595 2.413219 0.225554
v 0.517937 2.408962 -0.797523
v 0.434961 2.405666 -0.701335
v 0.508995 2.406056 -0.642921
v -0.536045 2.407431 -0.788482
v -0.567724 2.410118 -0.191780
v -0.516761 2.406068 -0.612255
v -0.525697 2.404775 0.607745
v -0.468645 1.195839 -0.706384
v 0.507454 -0.205973 -0.586160
v 0.456763 0.563528 0.696846
v -0.510538 -0.202490 -0.623222
v -0.471726 0.433720 0.696182
v -0.514283 -0.200225 0.580417
v 0.536352 2.405052 0.786357
v 0.411462 2.404011 0.700294
v 0.499402 1.517994 -0.607432
v -0.466959 1.584596 0.693894
v -0.510987 0.935115 0.578562
v -0.419985 0.721848 0.692700
v -0.281959 0.084574 0.699441
v -0.520268 0.510510 0.638077
v 0.504017 2.409119 0.605502
v 0.499420 1.915472 0.688243
v 0.547586 2.466247 0.849051
v 0.205990 2.422417 0.840644
v 0.501640 0.224061 -0.684366
v -0.067864 -0.046657 0.696537
v 0.506477 2.272853 -0.656642
v -0.548028 2.614636 -0.836249
v -0.581964 2.495201 -0.835381
v -0.511576 2.661952 -0.808608
v 0.275175 2.063459 0.693486
v -0.009675 2.193186 0.698178
v 0.609899 2.479393 -0.787216
v 0.611428 2.596402 -0.773469
v -0.533580 2.638620 0.835717
v -0.542503 2.672071 0.781262
v -0.490118 0.218985 -0.694168
v -0.034030 -0.055850 -0.698295
v 0.436240 -0.131740 -0.698489
v -0.602364 2.522934 0.826962
v 0.257787 1.033027 0.651290
v -0.254165 0.078133 -0.686475
v -0.287826 1.092015 -0.706455
v 0.230005 2.068006 0.686570
v 0.233118 2.067937 -0.690750
v -0.226095 2.060663 -0.700022
v 0.281550 0.079681 -0.698261
v -0.253509 1.388740 0.659387
v -0.083343 2.148994 0.675306
v -0.611908 2.419154 -0.631266
v -0.259970 1.088997 0.649531
v -0.619925 2.475076 -0.766943
v -0.613882 2.643534 -0.727843
v 0.468878 -0.204555 0.694663
v 0.274420 0.062578 0.698326
v -0.219237 2.048566 0.697506
v -0.005844 2.135115 0.696855
v -0.577104 2.669173 -0.166915
v 0.246438 0.074540 -0.679514
v 0.254334 0.937927 -0.654669
v 0.285347 1.196293 -0.698042
v 0.615129 2.673294 -0.144762
v -0.231810 0.070790 0.687455
v 0.219270 0.947101 -0.702958
v 0.003886 -0.021112 0.679192
v 0.272251 2.071712 -0.700929
v 0.256374 2.033870 -0.660755
v 0.517507 2.660293 0.836993
v 0.505370 -0.188922 0.633197
v -0.619467 2.607381 0.809588
v -0.248358 2.059141 -0.677671
v -0.254865 0.106206 0.658047
v 0.579318 2.665606 -0.728701
v 0.011001 0.008634 -0.699644
v 0.288996 0.812374 0.698028
v -0.474492 2.400220 -0.694437
v -0.255127 0.993147 -0.656006
v -0.221781 0.919395 -0.707353
v -0.254363 0.987540 0.643874
v 0.098254 2.145049 0.674509
v 0.549250 2.604692 -0.828101
v -0.003131 -0.020501 -0.674542
v 0.607614 2.655521 0.472792
v 0.256784 2.032812 0.656747
v -0.521088 1.440944 -0.610666
v 0.509968 1.005177 0.609359
v 0.374414 -0.203940 -0.696556
v -0.605906 2.633803 -0.198549
v -0.253416 2.044069 0.666908
v -0.223559 1.067555 0.689709
v 0.434598 1.792844 -0.699923
v 0.246856 0.081285 0.673824
v 0.434961 2.405666 -0.701335
v -0.474492 2.400220 -0.694437
v 0.411462 2.404011 0.700294
v 0.504017 2.409119 0.605502
v -0.516761 2.406068 -0.612255
v -0.436310 2.407472 0.700381
v 0.508995 2.406056 -0.642921
v -0.525697 2.404775 0.607745
vt 0.454914 0.512899
vt 0.297698 0.250830
vt 0.539734 0.246343
vt 0.481214 0.176487
vt 0.279574 0.175540
vt 0.484526 0.086224
vt 0.081560 0.556051
vt 0.137603 0.520549
vt 0.258370 0.549898
vt 0.009856 0.042551
vt 0.276523 0.066461
vt 0.081750 0.073469
vt 0.648208 0.085531
vt 0.639991 0.281745
vt 0.601387 0.292909
vt 0.766324 0.413716
vt 0.879620 0.446733
vt 0.749005 0.450942
vt 0.178242 0.033747
vt 0.601999 0.078380
vt 0.961990 0.123476
vt 0.930558 0.378854
vt 0.941463 0.202914
vt 0.948397 0.386351
vt 0.647906 0.462189
vt 0.854054 0.482333
vt 0.660823 0.482333
vt 0.589274 0.280423
vt 0.577504 0.368879
vt 0.582007 0.112789
vt 0.590518 0.076637
vt 0.010053 0.015334
vt 0.563559 0.093231
vt 0.589739 0.407837
vt 0.571534 0.389355
vt 0.386621 0.230607
vt 0.542381 0.054803
vt 0.413424 0.033585
vt 0.543846 0.018612
vt 0.398460 0.990144
vt 0.326251 0.723584
vt 0.543837 0.976606
vt 0.952663 0.084503
vt 0.980947 0.101647
vt 0.958809 0.406253
vt 0.354634 0.040740
vt 0.482819 0.074347
vt 0.310916 0.978583
vt 0.311066 0.009856
vt 0.398441 0.018013
vt 0.886067 0.046607
vt 0.684270 0.037078
vt 0.819246 0.037207
vt 0.484078 0.556442
vt 0.526906 0.523276
vt 0.509619 0.119810
vt 0.542993 0.231256
vt 0.011287 0.503256
vt 0.013768 0.248342
vt 0.038923 0.505808
vt 0.646293 0.414503
vt 0.638579 0.440272
vt 0.842694 0.403568
vt 0.658804 0.405338
vt 0.649810 0.275056
vt 0.114307 0.234069
vt 0.084304 0.189429
vt 0.014481 0.220055
vt 0.056109 0.130781
vt 0.911294 0.410052
vt 0.878235 0.417624
vt 0.889860 0.403208
vt 0.336124 0.197307
vt 0.487723 0.191518
vt 0.482847 0.184382
vt 0.502714 0.134213
vt 0.669794 0.074739
vt 0.876625 0.082215
vt 0.541739 0.730564
vt 0.454948 0.716302
vt 0.542822 0.710364
vt 0.543846 0.534376
vt 0.512852 0.621574
vt 0.012827 0.713809
vt 0.011449 0.523283
vt 0.060781 0.612445
vt 0.927882 0.268858
vt 0.892033 0.152807
vt 0.932956 0.090268
vt 0.483499 0.667624
vt 0.082754 0.566089
vt 0.308413 0.570434
vt 0.084849 0.659198
vt 0.081418 0.671896
vt 0.278781 0.679208
vt 0.257918 0.714464
vt 0.871844 0.462024
vt 0.298712 0.668544
vt 0.313659 0.657814
vt 0.066947 0.115836
vt 0.597947 0.370569
vt 0.280394 0.076766
vt 0.219475 0.078555
vt 0.192982 0.497111
vt 0.615732 0.414984
vt 0.611156 0.397748
vt 0.642332 0.387683
vt 0.088077 0.089231
vt 0.071768 0.131317
vt 0.084315 0.178876
vt 0.483900 0.564938
vt 0.933630 0.420815
vt 0.069180 0.151840
vt 0.291416 0.186837
vt 0.648484 0.034140
vt 0.660609 0.026568
vt 0.888044 0.277683
vt 0.310294 0.559727
vt 0.909935 0.043376
vt 0.899102 0.080925
vt 0.889383 0.028468
vt 0.090604 0.561574
vt 0.657129 0.054577
vt 0.655154 0.071252
vt 0.665395 0.084697
vt 0.084257 0.665506
vt 0.543076 0.495158
vt 0.284309 0.087534
vt 0.300353 0.077924
vt 0.476342 0.081730
vt 0.878486 0.392552
vt 0.010564 0.983474
vt 0.011417 0.733706
vt 0.208199 0.736014
vt 0.504344 0.615531
vt 0.496939 0.613028
vt 0.092148 0.184279
vt 0.687318 0.009856
vt 0.087195 0.080363
vt 0.912786 0.424912
vt 0.863496 0.010485
vn 0.7298 -0.0029 -0.6836
vn 0.9776 -0.0096 0.2104
vn 0.9585 0.0064 0.2850
vn 0.3532 -0.3738 0.8576
vn 0.4196 -0.0006 0.9077
vn 0.1031 0.3729 0.9221
vn -0.1772 -0.1540 -0.9720
vn 0.4053 -0.0226 -0.9139
vn -0.4596 -0.0009 -0.8881
vn -0.3791 0.0051 0.9253
vn 0.4421 -0.0094 0.8969
vn 0.2139 -0.1353 0.9674
vn -0.7777 0.6141 0.1340
vn -0.9406 0.3395 0.0027
vn -0.9287 -0.3703 0.0190
vn 0.0123 0.4218 -0.9066
vn 0.3497 -0.2899 -0.8909
vn 0.0007 -0.3232 -0.9463
vn -0.5301 -0.0146 0.8477
vn -0.7479 -0.5570 0.3609
vn -0.0092 -0.9998 -0.0190
vn 0.7036 -0.7091 -0.0467
vn 0.5921 -0.8058 0.0055
vn 0.1424 -0.9818 -0.1251
vn -0.2563 -0.8327 -0.4908
vn 0.0302 -0.9992 -0.0270
vn -0.0593 -0.9975 -0.0377
vn -0.3882 -0.9215 -0.0016
vn -0.1331 -0.9911 0.0004
vn -0.0945 -0.9955 0.0073
vn -0.2439 -0.8620 0.4443
vn -0.9301 0.0078 0.3670
vn -0.0027 -0.9997 0.0238
vn 0.4786 0.0035 0.8780
vn -0.3246 -0.0457 0.9447
vn -0.4519 -0.0002 0.8920
vn -0.9221 -0.0509 0.3836
vn -0.9145 0.0484 0.4017
vn -0.8779 0.0011 -0.4788
vn 0.3159 -0.8863 0.3386
vn 0.0070 -1.0000 0.0019
vn -0.3544 0.0494 0.9337
vn 0.2369 0.1549 0.9591
vn -0.9531 -0.0045 0.3025
vn 0.4080 -0.3223 0.8542
vn -0.0732 -0.4755 0.8766
vn -0.0047 -0.6496 0.7602
vn -0.1475 0.0890 -0.9850
vn 0.4437 -0.1785 -0.8782
vn 0.0440 0.1330 0.9901
vn 0.4648 0.0026 0.8854
vn 0.9127 0.0247 -0.4077
vn 0.9394 0.0477 0.3394
vn 0.8732 -0.0023 -0.4873
vn -0.3960 0.3490 -0.8493
vn -0.5179 -0.1942 -0.8331
vn 0.0331 0.9122 -0.4083
vn -0.1626 0.8562 -0.4904
vn -0.4191 0.9079 -0.0070
vn 0.7153 0.0041 0.6988
vn -0.1818 -0.1733 0.9679
vn 0.3529 0.0430 0.9346
vn 0.0038 -0.2275 0.9738
vn 0.8574 -0.2978 -0.4197
vn 0.3224 0.4046 -0.8558
vn 0.8766 0.2738 -0.3956
vn -0.4382 0.0095 0.8988
vn -0.1590 0.1104 0.9811
vn -0.1152 0.1393 0.9835
vn -0.1814 0.5712 0.8005
vn -0.1805 0.4912 0.8521
vn 0.2687 0.6990 0.6627
vn -0.9429 -0.0396 -0.3306
vn -0.5296 -0.0250 -0.8479
vn -0.3929 -0.0302 -0.9190
vn 0.1870 -0.1858 -0.9646
vn 0.0219 0.1859 -0.9823
vn -0.5307 0.0053 -0.8475
vn 0.3016 0.0200 -0.9532
vn -0.0004 0.0080 -0.9999
vn 0.9845 -0.1754 0.0008
vn 0.7601 0.6486 0.0384
vn 0.8803 -0.4121 0.2347
vn -0.0106 0.0013 -0.9999
vn 0.0105 -0.3186 -0.9478
vn 0.4524 -0.0038 -0.8918
vn -0.4114 0.4128 -0.8126
vn 0.2037 -0.1070 -0.9731
vn 0.4605 -0.0100 -0.8876
vn -0.4454 0.0282 -0.8949
vn 0.2210 -0.8394 -0.4966
vn 0.0156 0.0150 -0.9998
vn -0.4583 0.0036 -0.8888
vn 0.1730 -0.3315 0.9274
vn -0.7516 -0.6593 -0.0189
vn 0.0557 -0.0323 0.9979
vn -0.0419 -0.0150 0.9990
vn 0.9639 0.0110 -0.2660
vn -0.9083 -0.2936 -0.2980
vn -0.7741 0.6041 -0.1893
vn -0.4085 0.3474 0.8440
vn 0.0148 0.4805 0.8768
vn 0.0168 -0.1619 0.9866
vn -0.2776 0.4169 -0.8655
vn -0.2514 -0.4928 0.8330
vn -0.0605 -0.0011 0.9982
vn 0.6936 0.7204 -0.0007
vn -0.0084 0.0056 -0.9999
vn 0.8395 0.3199 0.4392
vn -0.1335 -0.1970 -0.9713
vn -0.5547 -0.1397 0.8202
vn -0.7917 0.2908 0.5373
vn -0.2011 0.9325 0.2999
vn 0.1145 -0.2112 -0.9707
vn 0.9445 -0.1241 -0.3040
vn -0.4320 -0.0214 0.9016
vn -0.0328 0.0038 0.9995
vn 0.0578 0.2415 0.9687
vn 0.4897 0.8402 -0.2329
vn -0.9720 0.0040 -0.2347
vn -0.9693 0.0011 -0.2456
vn -0.1051 0.1317 -0.9857
vn 0.0578 -0.4056 -0.9122
vn -0.1336 -0.2029 0.9700
vn 0.1409 -0.1241 0.9822
usemtl Default_OBJ.023
s 1
f 50/1/1 111/2/2 94/3/3
f 2/4/4 3/5/5 88/6/6
f 91/7/7 116/8/8 86/9/9
f 10/10/10 11/11/11 12/12/12
f 20/13/13 113/14/14 15/15/15
f 16/16/16 17/17/17 18/18/18
f 11/11/11 10/10/10 41/19/19
f 19/20/20 20/13/13 15/15/15
f 121/21/21 23/22/22 24/23/23
f 124/24/24 23/22/22 121/21/21
f 28/25/25 118/26/26 119/27/27
f 29/28/28 122/29/29 125/30/30
f 29/28/28 125/30/30 21/31/31
f 10/10/10 31/32/32 41/19/19
f 125/30/30 123/33/33 21/31/31
f 28/34/25 119/35/27 122/29/29
f 34/36/34 94/3/3 111/2/2
f 8/37/35 36/38/36 37/39/37
f 45/40/38 1/41/39 37/42/37
f 121/21/21 38/43/40 39/44/41
f 118/45/26 23/22/22 124/24/24
f 43/46/42 36/38/36 44/47/43
f 42/48/44 1/41/39 45/40/38
f 43/46/42 42/49/44 45/50/38
f 48/51/45 22/52/46 49/53/47
f 72/54/48 50/1/1 64/55/49
f 44/47/43 36/38/36 8/37/35
f 51/56/50 8/37/35 79/57/51
f 27/58/52 46/59/53 52/60/54
f 53/61/55 16/16/16 54/62/56
f 9/63/57 55/64/58 83/65/59
f 47/66/60 56/67/61 34/36/34
f 120/68/62 10/10/10 57/69/63
f 58/70/64 106/71/65 59/72/66
f 16/16/16 55/64/58 9/63/57
f 34/36/34 56/67/61 100/73/67
f 79/57/51 80/74/68 51/56/50
f 117/75/69 90/76/70 80/74/68
f 60/77/71 22/52/46 93/78/72
f 35/79/73 62/80/74 7/81/75
f 112/82/76 63/83/77 64/55/49
f 101/84/78 26/85/79 5/86/80
f 113/14/14 20/13/13 83/65/59
f 6/87/81 108/88/82 13/89/83
f 62/80/74 67/90/84 7/81/75
f 70/91/85 89/92/86 71/93/87
f 4/94/88 68/95/89 32/96/90
f 17/17/17 25/97/91 18/18/18
f 6/87/81 24/23/23 23/22/22
f 57/69/63 10/10/10 12/12/12
f 63/83/77 72/54/48 64/55/49
f 102/98/92 71/93/87 103/99/93
f 6/87/81 13/89/83 24/23/23
f 74/100/94 57/69/63 12/12/12
f 113/14/14 75/101/95 15/15/15
f 67/90/84 63/83/77 7/81/75
f 51/56/50 44/47/43 8/37/35
f 76/102/96 73/103/97 11/11/11
f 52/60/54 47/66/60 40/104/98
f 43/46/42 41/19/19 42/49/44
f 11/11/11 41/19/19 43/46/42
f 54/105/56 28/34/25 77/106/99
f 78/107/100 54/105/56 77/106/99
f 34/36/34 80/74/68 79/57/51
f 91/7/7 26/85/79 116/8/8
f 55/64/58 78/107/100 83/65/59
f 54/105/56 78/107/100 53/61/55
f 37/39/37 36/38/36 45/50/38
f 43/46/42 45/50/38 36/38/36
f 74/100/94 81/108/101 82/109/102
f 69/110/103 82/109/102 81/108/101
f 103/99/93 71/93/87 89/92/86
f 103/99/93 89/92/86 84/111/104
f 118/45/26 25/112/91 23/22/22
f 23/22/22 25/112/91 58/70/64
f 56/67/61 105/113/105 69/110/103
f 100/73/67 56/67/61 66/114/106
f 19/20/20 29/28/28 21/31/31
f 19/115/20 21/116/31 22/52/46
f 108/88/82 6/87/81 87/117/107
f 63/83/77 84/111/104 72/54/48
f 51/56/50 88/6/6 44/47/43
f 89/92/86 70/91/85 85/118/108
f 2/4/4 88/6/6 90/76/70
f 48/51/45 13/119/83 14/120/109
f 13/119/83 48/51/45 38/121/40
f 5/86/80 26/85/79 91/7/7
f 91/7/7 92/122/110 70/91/85
f 55/64/58 16/16/16 53/61/55
f 90/76/70 117/75/69 2/4/4
f 3/5/5 2/4/4 117/75/69
f 93/78/72 48/51/45 14/120/109
f 14/120/109 108/88/82 93/78/72
f 34/36/34 79/57/51 94/3/3
f 68/95/89 67/90/84 62/80/74
f 68/95/89 102/98/92 67/90/84
f 47/66/60 120/68/62 56/67/61
f 65/123/111 95/124/112 19/115/20
f 61/125/113 95/124/112 60/77/71
f 68/95/89 96/126/114 102/98/92
f 96/126/114 4/94/88 5/86/80
f 113/14/14 83/65/59 78/107/100
f 113/14/14 78/107/100 75/101/95
f 112/82/76 64/55/49 33/127/115
f 115/128/116 104/129/117 97/130/118
f 44/47/43 97/130/118 104/129/117
f 98/131/119 59/72/66 106/71/65
f 11/11/11 44/47/43 104/129/117
f 11/11/11 43/46/42 44/47/43
f 69/110/103 3/5/5 66/114/106
f 54/62/56 18/18/18 28/25/25
f 16/16/16 18/18/18 54/62/56
f 100/73/67 66/114/106 80/74/68
f 100/73/67 80/74/68 34/36/34
f 31/132/32 30/133/120 110/134/121
f 85/118/108 86/9/9 72/54/48
f 3/5/5 115/128/116 88/6/6
f 98/131/119 9/63/57 87/117/107
f 75/101/95 77/106/99 28/34/25
f 75/101/95 28/34/25 122/29/29
f 107/135/122 84/111/104 63/83/77
f 106/71/65 16/16/16 9/63/57
f 16/16/16 106/71/65 17/17/17
f 51/56/50 90/76/70 88/6/6
f 51/56/50 80/74/68 90/76/70
f 121/21/21 24/23/23 38/43/40
f 67/90/84 99/136/123 107/135/122
f 107/135/122 99/136/123 84/111/104
f 91/7/7 70/91/85 5/86/80
f 5/86/80 70/91/85 71/93/87
f 87/117/107 93/78/72 108/88/82
f 75/101/95 122/29/29 29/28/28
f 95/124/112 65/123/111 60/77/71
f 56/67/61 109/137/124 66/114/106
f 38/121/40 48/51/45 49/53/47
f 49/53/47 22/52/46 21/116/31
f 42/48/44 110/134/121 1/41/39
f 82/109/102 69/110/103 105/113/105
f 123/138/33 38/121/40 21/116/31
f 21/116/31 38/121/40 49/53/47
f 31/32/32 42/49/44 41/19/19
f 34/36/34 111/2/2 47/66/60
f 114/139/125 73/103/97 115/128/116
f 59/72/66 98/131/119 87/117/107
f 52/60/54 26/85/79 27/58/52
f 44/47/43 88/6/6 97/130/118
f 72/54/48 116/8/8 50/1/1
f 82/109/102 105/113/105 74/100/94
f 57/69/63 74/100/94 105/113/105
f 58/70/64 59/72/66 23/22/22
f 15/15/15 29/28/28 19/20/20
f 3/5/5 117/75/69 66/114/106
f 75/101/95 78/107/100 77/106/99
f 31/132/32 110/134/121 42/48/44
f 104/129/117 115/128/116 76/102/96
f 92/122/110 91/7/7 86/9/9
f 70/91/85 92/122/110 85/118/108
f 67/90/84 103/99/93 99/136/123
f 103/99/93 84/111/104 99/136/123
f 116/8/8 40/104/98 50/1/1
f 20/13/13 95/124/112 61/125/113
f 95/124/112 20/13/13 19/115/20
f 63/83/77 67/90/84 107/135/122
f 1/41/39 110/134/121 32/96/90
f 22/52/46 60/77/71 65/123/111
f 65/123/111 19/115/20 22/52/46
f 30/133/120 101/84/78 110/134/121
f 89/92/86 85/118/108 84/111/104
f 102/98/92 96/126/114 71/93/87
f 84/111/104 85/118/108 72/54/48
f 71/93/87 96/126/114 5/86/80
f 69/110/103 66/114/106 109/137/124
f 56/67/61 69/110/103 109/137/124
f 64/55/49 50/1/1 33/127/115
f 50/1/1 94/3/3 33/127/115
f 73/103/97 114/139/125 12/12/12
f 88/6/6 115/128/116 97/130/118
f 85/118/108 92/122/110 86/9/9
f 17/140/17 106/71/65 58/70/64
f 25/112/91 17/140/17 58/70/64
f 83/65/59 20/13/13 61/125/113
f 80/74/68 66/114/106 117/75/69
f 12/12/12 114/139/125 74/100/94
f 74/100/94 114/139/125 81/108/101
f 24/23/23 13/89/83 38/43/40
f 120/68/62 47/66/60 46/59/53
f 98/131/119 106/71/65 9/63/57
f 55/64/58 53/61/55 78/107/100
f 102/98/92 103/99/93 67/90/84
f 18/18/18 25/97/91 28/25/25
f 28/25/25 25/97/91 118/26/26
f 116/8/8 52/60/54 40/104/98
f 123/138/33 39/141/41 38/121/40
f 9/63/57 83/65/59 87/117/107
f 56/67/61 120/68/62 57/69/63
f 57/69/63 105/113/105 56/67/61
f 83/65/59 61/125/113 93/78/72
f 81/108/101 3/5/5 69/110/103
f 46/59/53 47/66/60 52/60/54
f 59/72/66 87/117/107 6/87/81
f 81/108/101 115/128/116 3/5/5
f 115/128/116 81/108/101 114/139/125
f 86/9/9 116/8/8 72/54/48
f 59/72/66 6/87/81 23/22/22
f 110/134/121 101/84/78 32/96/90
f 101/84/78 5/86/80 4/94/88
f 115/128/116 73/103/97 76/102/96
f 93/78/72 61/125/113 60/77/71
f 108/88/82 14/120/109 13/89/83
f 93/78/72 22/52/46 48/51/45
f 63/83/77 112/82/76 7/81/75
f 32/96/90 101/84/78 4/94/88
f 32/96/90 68/95/89 62/80/74
f 62/80/74 1/41/39 32/96/90
f 76/102/96 11/11/11 104/129/117
f 15/15/15 75/101/95 29/28/28
f 26/85/79 52/60/54 116/8/8
f 35/79/73 1/41/39 62/80/74
f 40/104/98 111/2/2 50/1/1
f 47/66/60 111/2/2 40/104/98
f 87/117/107 83/65/59 93/78/72
f 73/103/97 12/12/12 11/11/11
f 4/94/88 96/126/114 68/95/89
f 1/41/39 35/79/73 37/42/37
