# Blender v3.4.1 OBJ File: 'Medieval Farm Pack.blend'
# www.blender.org
mtllib Rake_Lowpoly.mtl
o Rake_Lowpoly
v -0.028859 0.304888 -0.035562
v 0.015623 -0.286356 -0.051464
v 0.049099 0.292746 -0.057947
v 0.047688 -0.303408 -0.020764
v -0.015688 -0.466428 0.053231
v -0.004917 -0.030721 0.036965
v 0.069178 0.245861 -0.030190
v 0.069734 0.136495 0.006528
v -0.166727 1.739316 -0.049649
v -0.195982 1.820573 -0.032008
v 0.032269 -0.158553 0.047551
v 0.004878 -1.579419 -0.005437
v 0.007340 -1.555934 0.063767
v 0.051631 0.884354 -0.019024
v -0.011397 0.936237 0.047101
v 0.054778 0.502634 0.017294
v -0.032721 0.561663 -0.045433
v -0.044476 1.293962 -0.034343
v -0.000330 0.275312 0.030855
v -0.024793 0.214979 0.010366
v -0.052671 1.311497 0.015619
v -0.057471 0.964783 -0.002962
v -0.033031 1.813916 0.036825
v -0.152344 1.725085 0.049517
v -0.064373 1.641093 -0.019999
v -0.143974 1.693392 -0.032273
v 0.046617 1.649151 0.046980
v 0.064481 1.627102 -0.007175
v 0.094708 1.664363 -0.022795
v 0.015393 1.649464 -0.059535
v -0.054949 -1.537153 -0.013935
v -0.036842 -1.545250 0.041740
v -0.131413 1.816997 -0.009899
v -0.178456 1.845811 -0.013277
v 0.051035 1.784875 -0.045207
v 0.141366 1.703682 -0.047871
v 0.132050 1.818660 -0.005929
v 0.063600 1.813394 -0.013975
v 0.048285 1.820056 0.014255
v 0.148803 1.737784 0.052965
v -0.052052 1.784968 -0.045207
v -0.032088 2.031325 -0.090442
v 0.035197 1.853790 -0.040648
v -0.038642 1.827640 -0.040635
v 0.026934 2.048142 -0.032436
v -0.046059 1.831340 0.005468
v 0.034769 1.798070 0.042536
v 0.040595 -0.501320 0.036391
v -0.250296 1.870530 0.017659
v -0.230440 1.796478 -0.021061
v 0.058481 1.468237 0.013209
v 0.020094 1.435453 0.049042
v 0.046157 1.083568 0.020245
v 0.049277 1.176148 -0.026302
v 0.051365 1.468281 -0.022951
v -0.012137 1.468467 0.057887
v -0.055806 1.468126 0.023981
v -0.018032 1.163733 0.053295
v 0.151420 1.710301 0.032214
v 0.224195 1.786063 -0.023654
v 0.246191 1.855965 0.017684
v 0.179094 1.809944 -0.029430
v -0.039327 1.470684 -0.056181
v -0.001373 1.474730 -0.066839
v 0.048181 1.471191 -0.047177
v -0.058000 1.470528 -0.039423
v -0.026926 1.652225 -0.055981
v -0.062620 1.467698 -0.007086
v -0.033760 2.062083 -0.042015
v 0.188890 1.825243 0.028253
v 0.219264 2.155766 -0.063311
v 0.179894 1.851183 -0.015011
v 0.278816 1.980543 -0.060132
v 0.027868 -1.074193 -0.053479
v 0.025770 -0.595770 -0.046510
v -0.016568 -1.091085 -0.052976
v 0.029167 1.535654 0.069191
v -0.044785 -1.080145 0.032541
v -0.027230 -0.674520 0.048544
v 0.009439 -0.904733 0.053642
v -0.008617 -1.192235 0.055214
v -0.050081 1.655595 0.049140
v 0.001462 1.525813 0.081453
v -0.042187 1.470650 0.066245
v -0.059451 1.633967 0.022410
v -0.066886 1.469703 0.034878
v 0.269125 2.028372 -0.021580
v 0.241951 2.108155 -0.030597
v -0.016473 1.468430 -0.057777
v 0.026232 0.365036 -0.064516
v 0.060920 1.476966 0.045914
v 0.076833 1.530357 0.004422
v -0.183343 1.821454 0.029789
v 0.046099 -1.106939 0.013613
v 0.050508 -0.848652 -0.006178
v -0.023290 2.279092 -0.052926
v -0.026527 2.281371 -0.112622
v 0.229619 2.123554 -0.097494
v 0.203275 1.916309 -0.041929
v 0.290630 2.236865 -0.037144
v -0.041051 -0.097164 -0.014140
v -0.045088 -0.767782 -0.029755
v 0.071686 1.530149 0.009968
v 0.023721 1.468844 0.053070
v 0.032064 1.469037 0.071382
v 0.034403 2.263413 -0.073192
v 0.260643 2.319738 -0.084491
v 0.280249 2.126222 -0.101632
v -0.050832 -0.585741 0.030167
v 0.252816 2.268424 -0.031584
v 0.006554 1.467337 -0.060420
v 0.004218 1.110521 -0.057062
v 0.024764 2.258245 -0.115718
v 0.020849 2.424230 -0.062465
v 0.016313 2.271575 -0.049748
v -0.074012 1.529288 0.002886
v 0.291921 2.500724 0.048191
v 0.318143 2.395010 -0.050280
v 0.319053 2.332262 -0.040214
v -0.075919 1.814001 -0.003526
v -0.008780 1.469973 0.078016
v -0.049831 1.064370 0.026721
v -0.218161 2.064185 -0.028779
v -0.267961 2.222002 -0.028332
v 0.303095 2.414098 0.019968
v 0.342376 2.520550 0.056630
v -0.025399 2.442675 -0.043689
v 0.021327 2.393711 -0.029181
v -0.226303 2.125646 -0.096106
v -0.237866 2.261999 -0.049890
v -0.267377 2.013947 -0.019153
v -0.279753 1.983375 -0.051635
v 0.015737 0.418186 0.037194
v 0.053625 0.182525 0.026432
v -0.051657 1.468525 -0.033584
v -0.316690 2.397981 -0.048646
v -0.260133 2.331736 -0.080905
v -0.280221 2.115926 -0.099864
v 0.016100 2.493010 0.023259
v -0.054815 -1.133729 -0.012492
v -0.043613 -1.522010 -0.044717
v 0.032638 1.468445 -0.053689
v -0.309331 2.247927 -0.057843
v 0.058543 -1.262599 -0.002272
v 0.061776 -1.553595 0.003199
v -0.000464 -1.552869 -0.057793
v 0.028547 -1.458233 -0.053603
v -0.011782 -0.404720 -0.048939
v -0.298164 2.452861 0.045174
v -0.283015 2.329806 -0.006916
v 0.270763 2.421500 -0.032648
v -0.279980 2.464976 0.004690
v -0.338987 2.516880 0.050744
v -0.013181 2.489128 0.018885
v -0.053385 -0.613539 0.012568
v -0.332893 2.519526 0.086997
v -0.299253 2.519015 0.090820
v 0.047083 -0.908017 0.032597
v -0.072628 1.472852 -0.006745
v 0.319850 2.524710 0.099211
v 0.067954 1.470532 -0.021961
v 0.071512 1.470412 0.018647
v 0.034997 2.023516 -0.088036
v -0.071678 1.524044 0.007709
v -0.062620 1.467698 -0.007086
v -0.051657 1.468525 -0.033584
v 0.058481 1.468237 0.013209
v 0.051365 1.468281 -0.022951
v 0.023721 1.468844 0.053070
v -0.016473 1.468430 -0.057777
v 0.006554 1.467337 -0.060420
v 0.032638 1.468445 -0.053689
v -0.012137 1.468467 0.057887
v -0.055806 1.468126 0.023981
vt 0.095171 0.612597
vt 0.084519 0.387053
vt 0.105800 0.367005
vt 0.103476 0.574641
vt 0.112951 0.390204
vt 0.117370 0.579998
vt 0.055549 0.630754
vt 0.057889 0.497670
vt 0.069148 0.417384
vt 0.020346 0.409472
vt 0.031876 0.444321
vt 0.021107 0.581329
vt 0.036108 0.138933
vt 0.056246 0.183601
vt 0.036193 0.321772
vt 0.089556 0.304091
vt 0.091952 0.072619
vt 0.107148 0.132635
vt 0.058420 0.397363
vt 0.609396 0.710546
vt 0.566623 0.783094
vt 0.504570 0.741400
vt 0.494162 0.783725
vt 0.532608 0.814505
vt 0.484937 0.665774
vt 0.451004 0.626697
vt 0.479049 0.595392
vt 0.078396 0.970179
vt 0.060651 0.978110
vt 0.063881 0.959551
vt 0.341862 0.425842
vt 0.297701 0.425604
vt 0.314824 0.407781
vt 0.476600 0.480956
vt 0.511089 0.563811
vt 0.382396 0.562919
vt 0.547486 0.491358
vt 0.504966 0.461481
vt 0.518330 0.443432
vt 0.558119 0.608370
vt 0.594500 0.672188
vt 0.388551 0.462989
vt 0.428588 0.280072
vt 0.477679 0.419656
vt 0.408969 0.428772
vt 0.730675 0.626597
vt 0.740171 0.657587
vt 0.612659 0.657396
vt 0.378588 0.412302
vt 0.400194 0.265123
vt 0.037506 0.640978
vt 0.637861 0.839464
vt 0.595928 0.845114
vt 0.028950 0.017274
vt 0.045774 0.026890
vt 0.056489 0.016510
vt 0.074191 0.016637
vt 0.057733 0.114132
vt 0.539834 0.600442
vt 0.573265 0.545358
vt 0.616570 0.551343
vt 0.324509 0.649763
vt 0.411834 0.575773
vt 0.340187 0.659741
vt 0.360424 0.677475
vt 0.313983 0.645461
vt 0.343234 0.564165
vt 0.083917 0.016899
vt 0.075254 0.066337
vt 0.750977 0.687346
vt 0.605264 0.582364
vt 0.751900 0.518292
vt 0.633039 0.588765
vt 0.664295 0.503074
vt 0.561023 0.520026
vt 0.066780 0.815832
vt 0.059498 0.692776
vt 0.072928 0.674428
vt 0.048817 0.762499
vt 0.053692 0.850408
vt 0.424327 0.728746
vt 0.408397 0.752886
vt 0.490402 0.760801
vt 0.408661 0.768803
vt 0.689339 0.513635
vt 0.726399 0.513064
vt 0.023548 0.204390
vt 0.105963 0.017500
vt 0.392991 0.709885
vt 0.399183 0.677247
vt 0.680189 0.883632
vt 0.616465 0.801641
vt 0.635839 0.768552
vt 0.644870 0.794754
vt 0.078427 0.176508
vt 0.069466 0.144888
vt 0.112223 0.816288
vt 0.108401 0.672634
vt 0.125065 0.749631
vt 0.400385 0.149895
vt 0.429421 0.153400
vt 0.708014 0.444689
vt 0.613033 0.492831
vt 0.769744 0.476459
vt 0.401733 0.680569
vt 0.388951 0.728741
vt 0.375700 0.705704
vt 0.397424 0.725606
vt 0.851764 0.643106
vt 0.859813 0.677113
vt 0.790411 0.435933
vt 0.719045 0.466369
vt 0.067793 0.666123
vt 0.769684 0.414517
vt 0.820856 0.427016
vt 0.716522 0.420735
vt 0.455598 0.163765
vt 0.477596 0.157167
vt 0.466266 0.283423
vt 0.449520 0.082053
vt 0.856291 0.657592
vt 0.436700 0.781162
vt 0.304746 0.609948
vt 0.857767 0.421328
vt 0.816970 0.443338
vt 0.800775 0.457895
vt 0.370528 0.427723
vt 0.403208 0.740367
vt 0.395693 0.746303
vt 0.630619 0.740294
vt 0.023886 0.746040
vt 0.243082 0.241518
vt 0.272149 0.441159
vt 0.020312 0.109321
vt 0.835777 0.459911
vt 0.425896 0.067569
vt 0.917802 0.659021
vt 0.310204 0.262817
vt 0.270357 0.233573
vt 0.265848 0.158286
vt 0.699140 0.870351
vt 0.805100 0.902193
vt 0.045323 0.536389
vt 0.576731 0.500827
vt 0.051776 0.349780
vt 0.040345 0.429237
vt 0.471131 0.085832
vt 0.092833 0.016904
vt 0.123448 0.405075
vt 0.829902 0.888673
vt 0.730938 0.854529
vt 0.202721 0.117234
vt 0.233010 0.139411
vt 0.458111 0.026577
vt 0.081992 0.956890
vt 0.081165 0.835269
vt 0.091718 0.950675
vt 0.113319 0.018178
vt 0.121898 0.018238
vt 0.237744 0.316818
vt 0.212985 0.184492
vt 0.046358 0.986598
vt 0.048814 0.962946
vt 0.035893 0.763547
vt 0.032390 0.823450
vt 0.105102 0.961583
vt 0.113644 0.932438
vt 0.133149 0.962194
vt 0.098941 0.821531
vt 0.809007 0.930782
vt 0.941774 0.958282
vt 0.864644 0.926473
vt 0.968248 0.994693
vt 0.205929 0.069991
vt 0.150228 0.051013
vt 0.967484 0.681290
vt 0.441458 0.026416
vt 0.086181 0.721079
vt 0.784599 0.486753
vt 0.352708 0.673560
vt 0.362158 0.690259
vt 0.079100 0.518088
vt 0.943717 0.930525
vt 0.984530 0.985206
vt 0.164568 0.017464
vt 0.133366 0.825463
vt 0.131200 0.873448
vt 0.860729 0.439407
vt 0.307818 0.481577
vt 0.070684 0.990003
vt 0.296968 0.639554
vt 0.331409 0.658325
vt 0.312096 0.649535
vt 0.622726 0.615287
vt 0.402127 0.786846
vt 0.402569 0.771275
vt 0.631928 0.721692
vt 0.370515 0.688466
vt 0.382174 0.702233
vt 0.017407 0.017773
vt 0.988473 0.968480
vt 0.125217 0.206561
vt 0.125757 0.112092
vt 0.133366 0.019073
vt 0.433679 0.778694
vt 0.407941 0.787907
vt 0.877464 0.441908
vt 0.866870 0.458636
vt 0.422871 0.713496
vt 0.145250 0.027728
vt 0.297492 0.645792
vt 0.971664 0.667427
vt 0.935291 0.701950
vt 0.308418 0.513427
vt 0.023611 0.961651
vt 0.024963 0.871500
vt 0.045215 0.016198
vt 0.340856 0.665633
vn -0.3646 0.0027 -0.9312
vn -0.8582 -0.0225 -0.5129
vn -0.0512 -0.0057 -0.9987
vn 0.3565 -0.0240 -0.9340
vn 0.5653 -0.0005 -0.8249
vn 0.9139 -0.0295 -0.4049
vn -0.2099 0.0160 0.9776
vn -0.3192 0.0535 0.9462
vn -0.8795 0.0229 0.4753
vn 0.9521 -0.0037 -0.3058
vn 0.9611 -0.0215 0.2752
vn 0.8270 -0.0064 0.5621
vn -0.0748 -0.0190 0.9970
vn 0.5696 0.0077 0.8219
vn -0.7067 -0.0160 -0.7073
vn -0.8208 -0.0245 -0.5707
vn 0.1025 -0.0069 -0.9947
vn -0.3129 -0.0290 0.9493
vn -0.1939 0.3502 0.9164
vn -0.4669 -0.3869 0.7952
vn -0.4194 -0.1194 0.8999
vn -0.8403 -0.4360 -0.3222
vn -0.5999 -0.7298 -0.3277
vn 0.4357 -0.1054 0.8939
vn 0.9539 -0.2494 -0.1669
vn 0.5602 -0.8033 -0.2022
vn -0.8929 -0.4368 -0.1090
vn -0.0400 -0.9945 -0.0971
vn -0.7126 -0.4437 0.5434
vn 0.1912 0.9543 -0.2296
vn 0.0775 0.0777 -0.9940
vn 0.8847 0.3673 -0.2872
vn 0.1292 0.2314 -0.9642
vn 0.5041 -0.4703 -0.7243
vn -0.2398 -0.0433 -0.9699
vn -0.1247 0.9532 -0.2754
vn 0.3852 0.8398 -0.3826
vn 0.5961 0.6947 0.4027
vn 0.3420 -0.1641 0.9252
vn 0.0614 0.2761 0.9592
vn -0.1385 0.2508 -0.9581
vn -0.6689 -0.1173 -0.7340
vn 0.6196 -0.0117 -0.7848
vn -0.5262 0.1702 -0.8331
vn 0.7246 -0.1126 -0.6799
vn 0.6339 0.1696 0.7546
vn -0.8464 0.4596 0.2691
vn -0.7873 0.1220 0.6043
vn 0.7584 0.0050 0.6518
vn -0.6998 -0.0604 0.7118
vn -0.8301 -0.4296 -0.3556
vn 0.9559 -0.0403 0.2911
vn 0.4764 -0.0574 0.8774
vn -0.2238 -0.0426 0.9737
vn -0.8492 -0.0188 0.5277
vn -0.1649 -0.0142 0.9862
vn 0.6376 -0.6603 0.3969
vn 0.7675 -0.4498 -0.4567
vn 0.7287 -0.0951 0.6782
vn -0.3993 -0.5664 -0.7210
vn 0.1775 0.0564 -0.9825
vn 0.0041 -0.2949 -0.9555
vn 0.5658 -0.5183 -0.6413
vn -0.6621 -0.5674 -0.4896
vn -0.9950 -0.0400 -0.0915
vn -0.9690 -0.0422 0.2433
vn -0.1761 0.4451 0.8780
vn -0.9839 0.1464 0.1029
vn -0.9283 0.3502 -0.1250
vn 0.7918 -0.2571 -0.5541
vn -0.1020 0.1709 -0.9800
vn -0.8373 0.0055 0.5468
vn -0.5338 -0.0098 0.8456
vn -0.9956 -0.0439 0.0827
vn 0.1109 -0.0168 0.9937
vn 0.0252 0.0197 0.9995
vn -0.0008 0.0746 0.9972
vn -0.4814 -0.5934 0.6451
vn -0.9657 0.1161 0.2324
vn -0.7196 -0.6047 0.3415
vn 0.6513 0.0510 0.7571
vn -0.3368 0.1639 0.9272
vn 0.9343 0.0326 -0.3549
vn -0.3580 -0.0159 -0.9336
vn 0.7802 -0.3052 0.5460
vn 0.9835 -0.0497 0.1741
vn -0.9510 -0.1909 -0.2432
vn 0.1960 0.4330 0.8798
vn -0.9985 -0.0208 -0.0509
vn -0.8194 -0.0176 0.5729
vn 0.5870 0.0084 -0.8095
vn 0.5238 0.0024 -0.8519
vn 0.9819 0.0080 -0.1894
vn -0.7412 -0.0357 0.6703
vn -0.6709 0.1446 -0.7273
vn -0.5631 -0.0209 -0.8261
vn -0.3594 -0.1283 -0.9243
vn 0.3039 -0.1062 0.9468
vn 0.8582 0.0290 0.5124
vn -0.0060 -0.9997 0.0227
vn 0.1404 -0.9899 0.0196
vn 0.3540 -0.6488 0.6736
vn 0.9853 0.0373 0.1668
vn -0.4237 0.2710 -0.8643
vn 0.5162 -0.1066 -0.8498
vn -0.8665 -0.0022 0.4992
vn -0.5467 -0.0509 0.8358
vn -0.6798 0.5235 -0.5137
vn 0.5694 0.0665 -0.8194
vn 0.6027 0.4544 -0.6559
vn 0.3979 -0.0444 0.9164
vn -0.9979 0.0137 0.0626
vn -0.8586 0.5120 -0.0275
vn 0.6030 0.3163 -0.7324
vn 0.9856 -0.1556 0.0662
vn -0.1845 0.9530 -0.2404
vn -0.0928 -0.6478 0.7561
vn -0.0233 -0.9968 0.0765
vn -0.5177 -0.1081 -0.8487
vn 0.8957 -0.0326 -0.4434
vn 0.2379 -0.4050 0.8828
vn -0.7292 0.5081 -0.4583
vn 0.8104 -0.1461 0.5674
vn 0.7308 0.1778 0.6590
vn 0.6894 0.0373 -0.7234
vn 0.9531 0.1054 0.2837
vn -0.6031 0.1124 0.7897
vn -0.0786 -0.0198 0.9967
vn 0.3453 0.0211 0.9383
vn 0.1355 -0.0045 0.9908
vn 0.4934 0.0133 0.8697
vn -0.7784 -0.0293 -0.6271
vn -0.5771 0.3423 -0.7414
vn 0.4493 0.3052 -0.8397
vn 0.4548 0.6705 0.5861
vn -0.9440 0.0108 -0.3298
vn -0.6801 -0.2067 -0.7033
vn 0.0694 -0.0098 -0.9975
vn 0.5969 -0.0079 -0.8023
vn -0.9872 -0.1287 0.0943
vn 0.8791 -0.4764 0.0141
vn 0.1219 -0.5214 0.8445
vn 0.8419 -0.0139 0.5394
vn 0.9514 0.0002 0.3079
vn 0.0305 -0.5525 -0.8329
vn 0.5596 -0.0257 -0.8284
vn -0.3961 0.0047 -0.9182
vn 0.2797 -0.4241 0.8614
vn -0.0448 -0.3605 0.9317
vn -0.7427 0.6182 -0.2574
vn 0.7484 0.5594 -0.3564
vn -0.5346 0.6573 0.5312
vn -0.8225 0.0118 -0.5687
vn 0.3924 -0.1579 -0.9061
vn 0.1507 -0.9838 -0.0968
vn -0.9736 0.0166 -0.2274
vn -0.6336 0.3752 0.6766
vn 0.5335 0.4635 0.7075
vn 0.9998 0.0181 -0.0087
vn 0.7638 0.6410 -0.0757
vn -0.3585 -0.1868 -0.9147
vn -0.8780 -0.4579 -0.1396
vn -0.1188 -0.7712 -0.6255
vn -0.1709 -0.9753 -0.1402
vn -0.4133 -0.9077 -0.0720
vn -0.0844 -0.9947 0.0582
vn 0.7507 -0.5667 -0.3395
vn 0.7832 -0.6049 0.1436
vn 0.9325 -0.0025 -0.3612
vn -0.9449 0.0016 0.3273
vn 0.0250 0.4815 0.8761
vn 0.5076 0.0754 0.8583
vn 0.4747 -0.1560 0.8662
vn 0.1418 -0.5578 -0.8177
usemtl Default_OBJ.021
s 1
f 148/1/1 1/2/2 90/3/3
f 2/4/4 3/5/5 4/6/6
f 5/7/7 6/8/8 20/9/9
f 7/10/10 8/11/11 4/12/6
f 90/3/3 3/5/5 2/4/4
f 53/13/12 15/14/13 16/15/14
f 17/16/15 18/17/16 112/18/17
f 19/19/18 15/14/13 20/9/9
f 23/20/19 24/21/20 82/22/21
f 25/23/22 24/21/20 26/24/23
f 27/25/24 28/26/25 29/27/26
f 2/4/4 148/1/1 90/3/3
f 31/28/27 12/29/28 32/30/29
f 33/31/30 10/32/31 34/33/32
f 35/34/33 36/35/34 67/36/35
f 37/37/36 38/38/37 39/39/38
f 40/40/39 47/41/40 27/25/24
f 41/42/41 35/34/33 67/36/35
f 42/43/42 43/44/43 44/45/44
f 163/46/45 45/47/46 39/48/38
f 46/49/47 69/50/48 44/45/44
f 23/20/19 82/22/21 47/41/40
f 47/41/40 45/47/46 23/20/19
f 8/11/11 48/51/49 4/12/6
f 24/21/20 49/52/50 50/53/51
f 51/54/52 52/55/53 53/13/12
f 173/56/54 57/57/55 58/58/56
f 53/13/12 52/55/53 58/58/56
f 59/59/57 27/25/24 29/27/26
f 59/59/57 60/60/58 61/61/59
f 63/62/60 30/63/61 64/64/62
f 65/65/63 30/63/61 28/26/25
f 66/66/64 25/67/22 67/36/35
f 57/57/55 68/68/65 21/69/66
f 45/47/46 69/70/48 23/20/19
f 70/71/67 71/72/68 72/73/69
f 73/74/70 60/60/58 62/75/71
f 47/41/40 82/22/21 27/25/24
f 78/76/72 79/77/73 155/78/74
f 80/79/75 79/77/73 78/76/72
f 81/80/76 78/76/72 32/30/29
f 27/25/24 82/22/21 83/81/77
f 84/82/78 85/83/79 86/84/80
f 87/85/81 88/86/82 70/71/67
f 61/61/59 60/60/58 73/74/70
f 14/87/83 8/11/11 7/10/10
f 8/11/11 53/13/12 16/15/14
f 61/61/59 70/71/67 40/40/39
f 47/41/40 40/40/39 70/71/67
f 18/17/16 170/88/84 112/18/17
f 27/25/24 91/89/85 28/26/25
f 28/26/25 92/90/86 65/65/63
f 132/91/87 50/53/51 49/52/50
f 93/92/88 33/93/30 34/94/32
f 17/16/15 22/95/89 18/17/16
f 122/96/90 22/95/89 20/9/9
f 74/97/91 75/98/92 95/99/93
f 96/100/94 97/101/95 69/50/48
f 69/50/48 42/43/42 44/45/44
f 98/102/96 73/74/70 99/103/97
f 100/104/98 87/85/81 73/74/70
f 22/95/89 1/2/2 20/9/9
f 28/26/25 91/89/85 103/105/99
f 169/106/100 167/107/101 105/108/102
f 163/46/45 106/109/103 45/47/46
f 45/47/46 96/110/94 69/70/48
f 107/111/104 108/112/105 98/102/96
f 5/7/7 20/9/9 109/113/106
f 82/22/21 24/21/20 25/23/22
f 110/114/107 151/115/108 71/116/68
f 100/104/98 88/86/82 87/85/81
f 113/117/109 106/118/103 163/119/45
f 113/117/109 97/101/95 114/120/110
f 115/121/111 96/110/94 45/47/46
f 106/118/103 113/117/109 114/120/110
f 85/83/79 25/23/22 116/122/112
f 116/123/112 25/67/22 66/66/64
f 110/114/107 117/124/113 151/115/108
f 108/112/105 118/125/114 119/126/115
f 81/80/76 80/79/75 78/76/72
f 119/126/115 100/104/98 73/74/70
f 17/16/15 112/18/17 90/3/3
f 44/45/44 35/34/33 41/42/41
f 120/127/116 44/45/44 41/42/41
f 169/106/100 105/108/102 121/128/117
f 86/84/80 56/129/118 84/82/78
f 78/76/72 155/78/74 32/30/29
f 122/96/90 21/69/66 22/95/89
f 58/58/56 57/57/55 21/69/66
f 108/112/105 119/126/115 73/74/70
f 98/102/96 108/112/105 73/74/70
f 23/20/19 120/130/116 93/92/88
f 44/45/44 120/127/116 46/49/47
f 48/51/49 95/131/93 4/12/6
f 75/98/92 4/6/6 95/99/93
f 62/75/71 60/60/58 36/35/34
f 22/95/89 17/16/15 1/2/2
f 138/132/119 10/32/31 50/133/51
f 14/87/83 53/13/12 8/11/11
f 54/134/120 51/54/52 53/13/12
f 125/135/121 100/104/98 119/126/115
f 30/63/61 29/27/26 28/26/25
f 127/136/122 97/101/95 96/100/94
f 128/137/123 96/110/94 115/121/111
f 123/138/124 129/139/125 130/140/126
f 131/141/127 124/142/128 132/91/87
f 48/51/49 11/143/129 5/7/7
f 8/11/11 11/143/129 48/51/49
f 72/144/69 98/102/96 99/103/97
f 133/145/130 19/19/18 134/146/131
f 127/136/122 114/120/110 97/101/95
f 114/120/110 128/147/123 106/118/103
f 135/148/132 170/88/84 18/17/16
f 3/5/5 7/149/10 4/6/6
f 130/150/126 124/142/128 123/151/124
f 136/152/133 137/153/134 138/132/119
f 114/120/110 127/136/122 139/154/135
f 45/47/46 47/41/40 39/48/38
f 47/41/40 70/71/67 39/48/38
f 31/155/27 140/156/136 141/157/137
f 137/153/134 129/139/125 138/132/119
f 129/139/125 10/32/31 138/132/119
f 58/58/56 21/69/66 122/96/90
f 171/158/138 172/159/139 112/18/17
f 64/64/62 30/63/61 65/65/63
f 132/160/87 143/161/140 138/132/119
f 12/29/28 145/162/141 13/163/142
f 61/61/59 87/85/81 70/71/67
f 87/85/81 61/61/59 73/74/70
f 158/164/143 81/80/76 94/165/144
f 34/94/32 123/151/124 93/92/88
f 129/139/125 123/138/124 34/33/32
f 69/50/48 97/101/95 42/43/42
f 97/101/95 113/117/109 42/43/42
f 146/166/145 147/167/146 145/168/141
f 76/169/147 74/97/91 146/166/145
f 134/146/131 11/143/129 8/11/11
f 2/4/4 4/6/6 75/98/92
f 148/1/1 75/98/92 74/97/91
f 93/92/88 123/151/124 49/52/50
f 25/23/22 85/83/79 82/22/21
f 124/142/128 143/170/140 132/91/87
f 149/171/148 150/172/149 130/150/126
f 107/111/104 118/125/114 108/112/105
f 153/173/150 150/172/149 149/171/148
f 152/174/151 136/152/133 153/175/150
f 151/115/108 107/111/104 71/116/68
f 118/125/114 107/111/104 151/115/108
f 44/45/44 43/44/43 35/34/33
f 43/44/43 39/39/38 38/38/37
f 54/134/120 53/13/12 14/87/83
f 128/137/123 154/176/152 96/110/94
f 139/154/135 127/136/122 154/177/152
f 37/37/36 72/144/69 62/75/71
f 76/169/147 148/1/1 74/97/91
f 102/178/153 148/1/1 76/169/147
f 88/86/82 110/179/107 71/72/68
f 70/71/67 88/86/82 71/72/68
f 142/180/154 64/64/62 65/65/63
f 142/180/154 65/65/63 55/181/155
f 140/156/136 102/178/153 76/169/147
f 50/53/51 26/24/23 24/21/20
f 20/9/9 101/182/156 109/113/106
f 155/78/74 140/156/136 31/155/27
f 16/15/14 134/146/131 8/11/11
f 133/145/130 134/146/131 16/15/14
f 101/182/156 1/2/2 148/1/1
f 129/139/125 137/153/134 130/140/126
f 149/171/148 130/150/126 152/183/151
f 140/156/136 155/78/74 102/178/153
f 137/153/134 136/152/133 152/174/151
f 137/153/134 152/174/151 130/140/126
f 12/29/28 13/163/142 32/30/29
f 153/173/150 149/171/148 156/184/157
f 157/185/158 152/174/151 153/175/150
f 74/97/91 94/186/144 144/187/159
f 147/167/146 74/97/91 144/187/159
f 71/116/68 107/111/104 98/102/96
f 71/116/68 98/102/96 72/144/69
f 141/157/137 140/156/136 76/169/147
f 141/157/137 76/169/147 146/166/145
f 95/131/93 158/164/143 94/165/144
f 74/97/91 95/99/93 94/186/144
f 15/14/13 133/145/130 16/15/14
f 99/103/97 73/74/70 62/75/71
f 155/78/74 31/155/27 32/30/29
f 126/188/160 125/135/121 119/126/115
f 67/36/35 30/63/61 63/62/60
f 10/32/31 67/36/35 9/189/161
f 31/28/27 146/190/145 12/29/28
f 146/190/145 145/162/141 12/29/28
f 80/79/75 81/80/76 158/164/143
f 131/141/127 132/91/87 49/52/50
f 159/191/162 116/123/112 66/66/64
f 63/62/60 89/192/163 166/193/164
f 48/51/49 80/79/75 158/164/143
f 95/131/93 48/51/49 158/164/143
f 83/81/77 121/128/117 105/108/102
f 83/81/77 82/22/21 84/82/78
f 118/125/114 126/188/160 119/126/115
f 115/121/111 45/47/46 106/109/103
f 37/194/36 70/71/67 72/73/69
f 10/32/31 33/31/30 41/42/41
f 41/42/41 67/36/35 10/32/31
f 84/82/78 82/22/21 85/83/79
f 15/14/13 19/19/18 133/145/130
f 41/42/41 33/31/30 120/127/116
f 33/93/30 93/92/88 120/130/116
f 165/195/165 174/196/166 86/84/80
f 86/84/80 174/196/166 56/129/118
f 23/20/19 69/70/48 46/197/47
f 23/20/19 46/197/47 120/130/116
f 110/179/107 88/86/82 100/104/98
f 161/198/167 162/199/168 167/107/101
f 168/200/169 51/54/52 54/134/120
f 109/113/106 101/182/156 155/78/74
f 58/58/56 15/14/13 53/13/12
f 93/92/88 49/52/50 24/21/20
f 93/92/88 24/21/20 23/20/19
f 102/178/153 101/182/156 148/1/1
f 134/146/131 19/19/18 6/8/8
f 19/19/18 20/9/9 6/8/8
f 155/78/74 79/77/73 109/113/106
f 79/77/73 5/7/7 109/113/106
f 153/175/150 136/152/133 143/161/140
f 143/161/140 136/152/133 138/132/119
f 55/181/155 161/198/167 167/107/101
f 55/181/155 65/65/63 161/198/167
f 157/201/158 149/171/148 152/183/151
f 14/202/83 7/149/10 3/5/5
f 112/18/17 54/203/120 14/202/83
f 20/9/9 1/2/2 101/182/156
f 112/18/17 14/202/83 3/5/5
f 90/3/3 112/18/17 3/5/5
f 62/75/71 38/38/37 37/37/36
f 35/34/33 43/44/43 38/38/37
f 5/7/7 80/79/75 48/51/49
f 5/7/7 79/77/73 80/79/75
f 129/139/125 34/33/32 10/32/31
f 112/18/17 172/159/139 54/203/120
f 172/159/139 168/204/169 54/203/120
f 42/43/42 113/117/109 163/119/45
f 164/205/170 159/206/162 86/84/80
f 86/84/80 85/83/79 164/205/170
f 52/55/53 173/56/54 58/58/56
f 169/106/100 121/128/117 56/129/118
f 40/40/39 59/59/57 61/61/59
f 40/40/39 27/25/24 59/59/57
f 36/35/34 29/27/26 30/63/61
f 147/167/146 144/187/159 145/168/141
f 35/34/33 62/75/71 36/35/34
f 35/34/33 38/38/37 62/75/71
f 125/135/121 160/207/171 117/208/113
f 125/135/121 117/208/113 110/179/107
f 155/78/74 101/182/156 102/178/153
f 27/25/24 77/209/172 91/89/85
f 105/108/102 167/107/101 162/199/168
f 131/141/127 49/52/50 123/151/124
f 124/142/128 131/141/127 123/151/124
f 150/172/149 153/173/150 143/170/140
f 146/166/145 74/97/91 147/167/146
f 58/58/56 122/96/90 15/14/13
f 20/9/9 15/14/13 122/96/90
f 141/157/137 146/166/145 31/155/27
f 103/105/99 162/199/168 161/198/167
f 65/65/63 92/90/86 161/198/167
f 43/44/43 163/119/45 39/39/38
f 157/201/158 156/184/157 149/171/148
f 156/210/157 157/185/158 153/175/150
f 143/170/140 124/142/128 150/172/149
f 165/211/165 66/66/64 166/193/164
f 68/68/65 135/148/132 18/17/16
f 139/212/135 154/176/152 128/137/123
f 21/69/66 18/17/16 22/95/89
f 159/191/162 66/66/64 165/211/165
f 86/84/80 159/206/162 165/195/165
f 66/66/64 63/62/60 166/193/164
f 63/62/60 66/66/64 67/36/35
f 170/88/84 171/158/138 112/18/17
f 89/192/163 63/62/60 64/64/62
f 1/2/2 17/16/15 90/3/3
f 36/35/34 30/63/61 67/36/35
f 125/135/121 110/179/107 100/104/98
f 96/110/94 154/176/152 127/213/122
f 42/43/42 163/119/45 43/44/43
f 115/121/111 106/109/103 128/137/123
f 9/189/161 26/214/23 50/133/51
f 50/133/51 10/32/31 9/189/161
f 150/172/149 124/142/128 130/150/126
f 92/90/86 103/105/99 161/198/167
f 81/80/76 13/163/142 94/165/144
f 126/188/160 151/115/108 117/124/113
f 132/160/87 138/132/119 50/133/51
f 18/17/16 21/69/66 68/68/65
f 118/125/114 151/115/108 126/188/160
f 85/83/79 116/122/112 164/205/170
f 13/163/142 145/215/141 94/165/144
f 25/67/22 26/214/23 67/36/35
f 144/216/159 94/165/144 145/215/141
f 125/135/121 126/188/160 160/207/171
f 83/81/77 84/82/78 121/128/117
f 56/129/118 121/128/117 84/82/78
f 164/205/170 116/122/112 159/206/162
f 39/48/38 70/71/67 37/194/36
f 134/146/131 6/8/8 11/143/129
f 11/143/129 6/8/8 5/7/7
f 59/59/57 36/35/34 60/60/58
f 59/59/57 29/27/26 36/35/34
f 28/26/25 103/105/99 92/90/86
f 77/209/172 105/108/102 91/89/85
f 104/217/173 173/56/54 52/55/53
f 52/55/53 51/54/52 104/217/173
f 27/25/24 83/81/77 77/209/172
f 72/144/69 99/103/97 62/75/71
f 126/188/160 117/124/113 160/207/171
f 114/120/110 139/154/135 128/147/123
f 67/36/35 26/214/23 9/189/161
f 111/218/174 64/64/62 142/180/154
f 89/192/163 64/64/62 111/218/174
f 2/4/4 75/98/92 148/1/1
f 91/89/85 162/199/168 103/105/99
f 91/89/85 105/108/102 162/199/168
f 81/80/76 32/30/29 13/163/142
f 77/209/172 83/81/77 105/108/102
