# Blender v3.4.1 OBJ File: 'Medieval Farm Pack.blend'
# www.blender.org
mtllib Horse_Shoe_Lowpoly.mtl
o Horse_Shoe_Lowpoly
v -0.042930 0.037252 0.243811
v -0.043185 0.036699 0.271457
v -0.043002 -0.015267 0.273321
v 0.091746 0.032693 0.248686
v 0.122695 0.032540 0.247572
v -0.011875 -0.014685 0.243705
v -0.042673 -0.013344 0.244372
v 0.090090 -0.019196 0.233715
v 0.106773 0.034621 0.220668
v 0.122187 -0.018196 0.220918
v 0.189405 0.032626 0.154662
v 0.217491 0.032902 0.154408
v 0.188130 -0.017670 0.155676
v 0.217367 -0.019350 0.155218
v 0.218600 0.030173 -0.151169
v 0.189834 0.030642 -0.153420
v 0.217021 -0.021861 -0.153610
v 0.092530 0.033421 -0.220286
v 0.121786 0.032204 -0.157774
v 0.121682 0.033915 -0.219216
v -0.042796 -0.017153 -0.242610
v -0.008452 -0.015250 -0.204005
v 0.107732 0.031876 -0.246404
v 0.091651 -0.019536 -0.245576
v -0.158001 -0.016531 -0.226911
v -0.158428 0.037156 -0.254271
v -0.158764 -0.014730 -0.254741
v -0.042839 0.033853 -0.241487
v -0.042627 0.034030 -0.270683
v -0.043347 -0.017056 -0.270333
v -0.011426 -0.015194 -0.260745
v -0.011394 0.037281 0.271714
v -0.012522 -0.014416 0.272612
v 0.218438 -0.018707 0.127628
v -0.158766 -0.012026 0.230601
v -0.173222 0.037717 0.228740
v -0.188549 -0.015536 0.230415
v -0.161262 0.034370 -0.225572
v 0.059482 0.033844 0.313683
v -0.129763 -0.017257 0.307315
v 0.122295 -0.017856 -0.246631
v 0.048699 0.032262 -0.313073
v 0.058353 -0.016041 -0.314161
v -0.089053 -0.016798 -0.309864
v 0.258398 0.028822 0.173171
v 0.271151 -0.020691 -0.151548
v 0.107445 -0.018510 -0.218331
v 0.218666 -0.018857 -0.126266
v -0.188191 0.036113 0.254830
v -0.186732 -0.015852 0.257089
v 0.218082 0.032266 0.127674
v 0.183819 -0.020479 -0.253495
v 0.187892 -0.019656 -0.153286
v 0.117011 -0.010893 0.163940
v 0.169694 0.035588 0.089966
v 0.188427 0.033282 0.127384
v 0.217328 0.033795 -0.124832
v -0.188742 -0.014464 -0.236886
v -0.151326 -0.011646 0.199514
v -0.188793 0.036705 -0.245323
v -0.158472 -0.015886 0.256031
v 0.052849 0.032221 -0.195821
v 0.095545 -0.015449 -0.184064
v 0.173928 0.030178 -0.260440
v -0.272513 0.037581 -0.178210
v -0.135666 0.031810 -0.198269
v 0.188360 -0.018284 -0.124164
v -0.372324 0.069089 -0.225383
v -0.283605 0.036512 -0.258670
v -0.289567 0.033234 0.259270
v -0.158383 0.036673 0.256712
v 0.270836 0.026827 -0.148254
v -0.010601 0.035778 -0.251044
v 0.292787 0.028633 0.036728
v -0.125783 0.034772 -0.304266
v 0.008361 0.034668 -0.202717
v 0.035005 0.032900 0.205566
v -0.365858 -0.013135 -0.232951
v 0.126380 -0.021500 0.253640
v -0.011393 0.037049 0.244359
v 0.185405 0.028384 0.257402
v 0.191716 -0.018878 0.252346
v 0.183087 -0.014898 -0.052007
v 0.184544 0.031636 -0.024787
v 0.152780 0.031857 -0.119390
v 0.120776 0.035692 0.163535
v 0.075312 -0.013947 0.309762
v 0.043129 -0.013260 0.202917
v 0.187585 0.033193 -0.125401
v 0.167256 -0.014381 0.112258
v 0.255117 -0.018061 0.176124
v -0.299205 0.067104 0.245918
v -0.273444 -0.018057 0.265592
v -0.354183 -0.011292 -0.167035
v -0.368870 -0.010217 0.223755
v -0.269639 0.035869 0.183103
v 0.296629 -0.018453 0.029426
v -0.368168 0.065561 0.223298
v -0.288357 0.068789 0.178708
v -0.130524 -0.015554 -0.200334
v -0.352602 0.067641 0.167039
v -0.352660 0.066438 -0.167796
v -0.125353 0.030055 0.307147
v -0.351110 -0.014602 0.166859
v -0.286419 0.071553 -0.182348
v -0.302490 0.072483 -0.241301
v 0.188352 -0.017016 0.127291
v -0.042930 0.037252 0.243811
v -0.043185 0.036699 0.271457
v 0.090090 -0.019196 0.233715
v 0.122187 -0.018196 0.220918
v -0.043347 -0.017056 -0.270333
v -0.011426 -0.015194 -0.260745
v 0.217021 -0.021861 -0.153610
v 0.187892 -0.019656 -0.153286
v -0.188742 -0.014464 -0.236886
v -0.158764 -0.014730 -0.254741
v -0.158766 -0.012026 0.230601
v -0.158472 -0.015886 0.256031
v -0.158383 0.036673 0.256712
v -0.188191 0.036113 0.254830
v 0.189834 0.030642 -0.153420
v 0.187585 0.033193 -0.125401
v 0.092530 0.033421 -0.220286
v 0.121682 0.033915 -0.219216
v -0.188549 -0.015536 0.230415
v -0.186732 -0.015852 0.257089
v 0.091651 -0.019536 -0.245576
v 0.107445 -0.018510 -0.218331
v 0.189405 0.032626 0.154662
v 0.217491 0.032902 0.154408
v -0.158001 -0.016531 -0.226911
v 0.218082 0.032266 0.127674
v -0.043002 -0.015267 0.273321
v -0.012522 -0.014416 0.272612
v 0.217328 0.033795 -0.124832
v 0.091746 0.032693 0.248686
v 0.106773 0.034621 0.220668
v -0.011394 0.037281 0.271714
v -0.011393 0.037049 0.244359
v -0.042673 -0.013344 0.244372
v 0.188360 -0.018284 -0.124164
v 0.218666 -0.018857 -0.126266
v -0.173222 0.037717 0.228740
v 0.122695 0.032540 0.247572
v 0.218438 -0.018707 0.127628
v 0.217367 -0.019350 0.155218
v -0.158428 0.037156 -0.254271
v -0.161262 0.034370 -0.225572
v 0.122295 -0.017856 -0.246631
v 0.126380 -0.021500 0.253640
v 0.188130 -0.017670 0.155676
v -0.042796 -0.017153 -0.242610
v 0.188427 0.033282 0.127384
v -0.188793 0.036705 -0.245323
v 0.107732 0.031876 -0.246404
v -0.042839 0.033853 -0.241487
v -0.010601 0.035778 -0.251044
v -0.011875 -0.014685 0.243705
v 0.218600 0.030173 -0.151169
v -0.042627 0.034030 -0.270683
v 0.188352 -0.017016 0.127291
vt 0.679682 0.558833
vt 0.681062 0.515353
vt 0.762843 0.513384
vt 0.774909 0.074149
vt 0.764505 0.121745
vt 0.679682 0.109214
vt 0.761593 0.607343
vt 0.759283 0.558890
vt 0.769479 0.170784
vt 0.683450 0.161235
vt 0.690080 0.215211
vt 0.761364 0.802870
vt 0.761894 0.847055
vt 0.682220 0.801021
vt 0.679682 0.847026
vt 0.684731 0.458429
vt 0.685414 0.413036
vt 0.766716 0.458217
vt 0.288188 0.708589
vt 0.245236 0.679248
vt 0.300138 0.695855
vt 0.467348 0.770982
vt 0.448178 0.756351
vt 0.508657 0.751109
vt 0.900249 0.829639
vt 0.908820 0.876463
vt 0.819177 0.854344
vt 0.914634 0.195260
vt 0.829864 0.152832
vt 0.911483 0.151484
vt 0.902586 0.380567
vt 0.905056 0.433493
vt 0.822325 0.380287
vt 0.823511 0.437362
vt 0.902021 0.334638
vt 0.821671 0.336671
vt 0.823878 0.284202
vt 0.679882 0.651488
vt 0.761231 0.652831
vt 0.287877 0.328688
vt 0.337511 0.387888
vt 0.288103 0.349130
vt 0.250168 0.821332
vt 0.200088 0.818215
vt 0.195127 0.756919
vt 0.681355 0.890442
vt 0.820632 0.598064
vt 0.900108 0.616314
vt 0.817798 0.645156
vt 0.834420 0.198183
vt 0.348206 0.277385
vt 0.415563 0.275568
vt 0.830017 0.756453
vt 0.911340 0.782755
vt 0.822191 0.806129
vt 0.402642 0.791675
vt 0.511545 0.819640
vt 0.489078 0.353863
vt 0.534193 0.396809
vt 0.450672 0.350334
vt 0.355561 0.736136
vt 0.395575 0.731502
vt 0.339859 0.572553
vt 0.298986 0.507133
vt 0.346219 0.508777
vt 0.379281 0.639446
vt 0.348906 0.686622
vt 0.345500 0.638736
vt 0.249094 0.901835
vt 0.911340 0.922291
vt 0.828049 0.903112
vt 0.352148 0.809223
vt 0.762501 0.318699
vt 0.684880 0.280501
vt 0.766716 0.275552
vt 0.905811 0.663355
vt 0.827192 0.686157
vt 0.386795 0.680550
vt 0.428987 0.653446
vt 0.485482 0.691554
vt 0.132777 0.463595
vt 0.205648 0.463893
vt 0.205331 0.529799
vt 0.764222 0.935735
vt 0.685120 0.937700
vt 0.762843 0.700785
vt 0.679682 0.322047
vt 0.764597 0.412307
vt 0.829932 0.103027
vt 0.911261 0.096592
vt 0.520786 0.225247
vt 0.581391 0.253441
vt 0.526845 0.249174
vt 0.391264 0.397750
vt 0.484890 0.251599
vt 0.246494 0.723420
vt 0.190825 0.699478
vt 0.317362 0.706550
vt 0.190110 0.387881
vt 0.280743 0.415838
vt 0.495125 0.333023
vt 0.282666 0.832440
vt 0.308990 0.844636
vt 0.297964 0.654524
vt 0.316755 0.647239
vt 0.476183 0.610991
vt 0.442257 0.642969
vt 0.116336 0.397053
vt 0.256180 0.512231
vt 0.289996 0.519673
vt 0.495115 0.988406
vt 0.424112 0.989725
vt 0.495822 0.944844
vt 0.354043 0.895750
vt 0.460956 0.442740
vt 0.538630 0.461990
vt 0.470649 0.500255
vt 0.349938 0.140764
vt 0.439088 0.508253
vt 0.444265 0.523033
vt 0.380421 0.575998
vt 0.287233 0.248042
vt 0.391591 0.507139
vt 0.273882 0.497830
vt 0.764222 0.760013
vt 0.905056 0.275552
vt 0.905811 0.519691
vt 0.901628 0.566498
vt 0.824196 0.513384
vt 0.774909 0.220596
vt 0.409800 0.647695
vt 0.418788 0.638232
vt 0.819416 0.557616
vt 0.290708 0.773835
vt 0.311101 0.829039
vt 0.186153 0.139190
vt 0.115208 0.245630
vt 0.761535 0.889131
vt 0.475160 0.831888
vt 0.444755 0.829713
vt 0.694791 0.045757
vt 0.680205 0.608453
vt 0.342301 0.459206
vt 0.391498 0.463705
vt 0.248995 0.328146
vt 0.250328 0.350005
vt 0.242745 0.592661
vt 0.191193 0.612396
vt 0.133622 0.519908
vt 0.246401 0.650756
vt 0.526237 0.523270
vt 0.578616 0.083608
vt 0.681041 0.701498
vt 0.077853 0.064806
vt 0.254443 0.432327
vt 0.417441 0.697311
vt 0.431434 0.707642
vt 0.762230 0.366498
vt 0.681249 0.368829
vt 0.295932 0.432689
vt 0.299631 0.758712
vt 0.247418 0.748024
vt 0.309894 0.115049
vt 0.436655 0.163753
vt 0.468208 0.078336
vt 0.226961 0.055201
vt 0.581391 0.010275
vt 0.282047 0.644308
vt 0.294370 0.225736
vt 0.247916 0.233643
vt 0.445803 0.695816
vt 0.417754 0.943419
vt 0.185597 0.941727
vt 0.472960 0.010801
vt 0.235214 0.107317
vt 0.341975 0.063399
vt 0.465618 0.419978
vt 0.275896 0.917111
vt 0.260197 0.945963
vt 0.834468 0.049790
vt 0.914634 0.045757
vt 0.305648 0.638304
vt 0.320309 0.918693
vt 0.330251 0.952355
vt 0.454705 0.331130
vt 0.426860 0.434711
vt 0.477309 0.229965
vt 0.457369 0.847514
vt 0.318392 0.773332
vt 0.685176 0.756453
vt 0.439363 0.771257
vt 0.485202 0.517399
vn 0.6977 -0.0001 0.7164
vn 0.7225 -0.0222 -0.6911
vn 0.6881 -0.0139 -0.7254
vn 0.8456 -0.0998 -0.5244
vn -0.8371 -0.2570 -0.4829
vn -0.6039 0.0652 -0.7944
vn -0.7126 0.0146 0.7014
vn 0.7168 0.0114 0.6972
vn 0.0569 -0.2468 0.9674
vn -0.5764 -0.0263 0.8167
vn 0.9724 0.2228 0.0690
vn 0.6922 -0.0321 -0.7210
vn -0.7024 -0.0157 -0.7116
vn 0.6823 -0.0187 -0.7308
vn -0.7027 -0.0094 -0.7114
vn -0.7762 -0.0350 0.6295
vn 0.6714 -0.0470 0.7396
vn -0.6673 0.0087 0.7447
vn -0.0603 0.9971 -0.0472
vn -0.4499 0.7547 0.4775
vn 0.0366 0.9993 -0.0005
vn 0.0126 -0.9998 0.0163
vn 0.0138 -0.9999 0.0017
vn -0.0262 -0.7281 0.6850
vn -0.0282 -0.3480 0.9371
vn 0.8190 -0.1109 -0.5630
vn 0.8449 0.0739 0.5298
vn -0.6092 0.0233 -0.7927
vn -0.5965 -0.0428 0.8015
vn -0.5441 0.0858 0.8346
vn 0.5747 0.0103 -0.8183
vn -0.9809 -0.0685 -0.1822
vn 0.5512 0.1058 -0.8276
vn -0.9770 0.1164 0.1788
vn 0.4973 -0.1029 0.8615
vn 0.6279 0.0055 0.7783
vn -0.7162 -0.0109 -0.6978
vn -0.6946 0.0027 -0.7194
vn -0.0169 0.9953 0.0950
vn 0.1358 0.6470 0.7503
vn 0.0129 0.9983 0.0563
vn 0.0657 0.6692 0.7402
vn 0.0499 -0.7260 0.6859
vn -0.7418 -0.0017 0.6706
vn -0.7212 -0.0367 0.6917
vn -0.0212 -0.3192 0.9475
vn 0.7609 -0.0265 0.6484
vn -0.4382 -0.1199 -0.8908
vn -0.1170 0.6327 0.7655
vn -0.1142 -0.6879 0.7167
vn 0.0001 0.3145 -0.9493
vn -0.7892 -0.1028 -0.6055
vn -0.7969 0.0739 0.5996
vn -0.0864 -0.6763 -0.7315
vn -0.0085 -0.9989 -0.0463
vn -0.1929 -0.7328 -0.6525
vn 0.0047 -0.9996 -0.0262
vn 0.1261 0.6765 -0.7256
vn 0.1553 -0.6370 -0.7551
vn 0.7344 0.6765 0.0537
vn 0.0580 0.9979 0.0283
vn 0.6971 0.6213 0.3577
vn 0.7001 -0.6418 -0.3129
vn 0.4475 0.6539 -0.6100
vn 0.7124 0.6316 -0.3060
vn 0.3967 0.4371 0.8072
vn -0.1394 0.6612 -0.7372
vn -0.7752 0.0258 -0.6312
vn 0.8421 -0.1737 -0.5107
vn 0.6620 0.0133 -0.7494
vn 0.4606 -0.6693 -0.5830
vn -0.0629 -0.9977 0.0258
vn -0.3328 -0.7865 0.5203
vn -0.4546 -0.6938 -0.5586
vn -0.3965 0.8025 -0.4458
vn -0.6038 0.7668 -0.2179
vn 0.7136 -0.0139 0.7004
vn 0.6928 -0.0024 0.7211
vn -0.6548 -0.0208 -0.7556
vn 0.6875 0.0000 0.7262
vn 0.9633 -0.0764 0.2574
vn 0.9763 0.1181 -0.1815
vn 0.0379 -0.9982 -0.0473
vn 0.0614 -0.7410 -0.6687
vn -0.2635 -0.9618 -0.0748
vn 0.1731 -0.6255 0.7608
vn -0.0083 -0.9989 -0.0454
vn -0.1653 0.7385 0.6536
vn 0.0071 0.9995 -0.0320
vn -0.1133 0.7603 -0.6396
vn 0.0060 1.0000 0.0014
vn -0.0051 -0.9991 -0.0430
vn 0.0263 0.9973 0.0692
vn 0.0148 0.9999 -0.0041
vn 0.0086 0.9997 -0.0217
vn 0.0558 0.9968 -0.0576
vn -0.6296 -0.7628 0.1476
vn -0.0435 -0.9980 0.0448
vn 0.0605 0.9977 0.0312
vn 0.0358 0.9994 -0.0027
vn -0.4302 0.5589 0.7089
vn -0.7424 0.5768 -0.3408
vn -0.4616 -0.5746 0.6759
vn -0.0222 0.5074 -0.8614
vn -0.0626 -0.9922 -0.1081
vn -0.0543 -0.9982 -0.0250
vn -0.0847 0.4615 0.8831
vn -0.0244 -0.9956 0.0902
vn -0.0454 -0.9981 -0.0418
vn 0.7616 -0.6469 0.0390
vn -0.0152 0.9948 0.1005
vn 0.6513 -0.6691 0.3580
vn 0.0193 0.9998 -0.0087
vn -0.8037 -0.1733 -0.5693
vn -0.0056 -0.9996 0.0284
vn -0.0055 -0.9980 0.0623
vn -0.6928 0.0105 -0.7211
vn 0.0145 0.9995 -0.0297
vn -0.0121 0.9998 -0.0155
vn 0.4043 0.5068 -0.7613
vn -0.7146 -0.0056 0.6995
vn -0.0678 -0.9944 0.0807
vn -0.0361 -0.9993 -0.0103
vn -0.7186 -0.0021 0.6955
vn 0.4635 0.6316 0.6215
vn 0.4805 -0.6598 0.5777
vn 0.0083 0.9989 -0.0456
vn 0.0439 0.9976 -0.0542
vn -0.6492 0.7605 0.0131
vn -0.5163 -0.8089 -0.2813
vn -0.5260 0.7925 0.3087
vn -0.4239 -0.5881 -0.6888
vn 0.0056 0.9994 0.0346
vn -0.0289 -0.9992 -0.0271
vn -0.1279 -0.9916 0.0200
vn 0.6844 0.0172 -0.7289
vn 0.7142 -0.0317 -0.6993
vn 0.0516 0.9982 0.0317
vn 0.0033 0.9999 -0.0099
vn -0.0311 0.7338 0.6786
vn 0.2967 0.7391 0.6048
vn -0.2408 -0.7053 0.6668
vn -0.7685 -0.5339 0.3526
vn -0.4352 0.5851 -0.6843
vn -0.0379 0.9989 -0.0271
vn -0.0277 0.9948 0.0983
vn -0.0051 0.9999 -0.0157
vn -0.0220 -0.9975 0.0664
vn -0.6706 -0.5981 -0.4389
vn -0.7353 0.5756 0.3578
vn 0.4885 0.6882 -0.5364
vn -0.0483 -0.9961 -0.0735
vn 0.5268 0.7307 0.4342
vn 0.0905 0.9959 0.0091
vn 0.2375 0.8006 -0.5501
vn 0.0090 -0.9992 -0.0395
vn 0.0043 -0.9974 0.0717
vn 0.0180 -0.9993 -0.0341
vn -0.0171 -0.9998 0.0106
vn 0.0061 0.9999 -0.0159
vn 0.0484 -0.9969 -0.0624
vn -0.0791 -0.9949 -0.0633
usemtl Default_OBJ.033
s 1
f 108/1/1 109/2/2 134/3/3
f 4/4/4 145/5/5 79/6/6
f 159/7/7 108/1/1 141/8/8
f 138/9/9 111/10/10 145/5/5
f 138/9/9 110/11/11 111/10/10
f 130/12/12 131/13/13 152/14/14
f 131/13/13 147/15/15 152/14/14
f 160/16/16 122/17/17 17/18/18
f 18/19/19 19/20/20 125/21/21
f 153/22/22 31/23/23 22/24/24
f 156/25/25 124/26/26 128/27/27
f 132/28/28 148/29/29 117/30/30
f 157/31/31 158/32/32 21/33/33
f 158/32/32 113/34/34 21/33/33
f 29/35/35 112/36/36 113/37/34
f 32/38/37 159/7/7 135/39/38
f 2/40/39 39/41/40 139/42/41
f 66/43/42 100/44/43 22/45/24
f 131/13/13 34/46/44 147/15/15
f 35/47/45 36/48/46 126/49/47
f 149/50/48 148/29/29 132/28/28
f 39/41/40 103/51/49 40/52/50
f 129/53/51 20/54/52 150/55/53
f 29/35/35 157/31/31 112/36/36
f 44/56/54 153/22/22 100/57/43
f 6/58/55 88/59/56 33/60/57
f 42/61/58 43/62/59 44/56/54
f 74/63/60 12/64/61 45/65/62
f 46/66/63 64/67/64 72/68/65
f 66/43/42 65/69/66 100/44/43
f 124/26/26 20/70/52 129/71/51
f 44/56/54 75/72/67 42/61/58
f 150/55/53 156/25/25 128/27/27
f 48/73/68 160/74/16 17/75/18
f 126/49/47 121/76/69 127/77/70
f 52/78/71 53/79/72 63/80/73
f 54/81/74 86/82/75 55/83/76
f 31/23/23 43/62/59 22/24/24
f 154/84/77 107/85/78 34/46/44
f 134/86/3 32/38/37 135/39/38
f 57/87/79 160/74/16 48/73/68
f 17/18/18 122/17/17 115/88/80
f 60/89/81 116/90/82 117/30/30
f 37/91/83 59/92/84 118/93/85
f 124/26/26 129/71/51 128/27/27
f 39/41/40 40/52/50 87/94/86
f 118/93/85 59/92/84 119/95/87
f 62/96/88 63/97/73 19/20/20
f 52/78/71 64/67/64 46/66/63
f 64/67/64 42/61/58 23/98/89
f 77/99/90 139/42/41 137/100/91
f 7/101/92 88/59/56 6/58/55
f 38/102/93 155/103/94 65/69/66
f 153/22/22 22/24/24 100/57/43
f 64/67/64 16/104/95 15/105/96
f 83/106/97 63/80/73 142/107/98
f 54/81/74 88/108/56 77/99/90
f 55/83/76 56/109/99 133/110/100
f 102/111/101 68/112/102 94/113/103
f 69/114/104 65/69/66 155/103/94
f 10/115/105 54/116/74 13/117/106
f 44/56/54 43/62/59 31/23/23
f 103/51/49 70/118/107 40/52/50
f 14/119/108 146/120/109 97/121/110
f 103/51/49 2/40/39 120/122/111
f 18/19/19 62/96/88 19/20/20
f 18/19/19 23/98/89 62/96/88
f 54/81/74 77/99/90 86/82/75
f 45/65/62 91/123/112 97/121/110
f 38/102/93 65/69/66 66/43/42
f 55/83/76 11/124/113 56/109/99
f 154/125/77 130/12/12 152/14/14
f 158/126/32 29/35/35 113/37/34
f 121/127/69 71/128/114 127/129/70
f 138/9/9 4/130/4 110/11/11
f 114/131/115 46/66/63 143/132/116
f 71/128/114 35/47/45 61/133/117
f 28/134/118 75/72/67 26/135/119
f 96/136/120 77/99/90 59/137/84
f 131/13/13 51/138/121 34/46/44
f 44/56/54 25/139/122 27/140/123
f 4/4/4 79/6/6 110/141/11
f 32/38/37 140/142/124 159/7/7
f 52/78/71 114/131/115 53/79/72
f 117/30/30 148/29/29 60/89/81
f 71/128/114 36/48/46 35/47/45
f 81/143/125 82/144/126 45/65/62
f 1/145/127 80/146/128 77/99/90
f 84/147/129 83/148/97 90/149/130
f 83/148/97 85/150/131 63/97/73
f 55/83/76 86/82/75 11/124/113
f 1/145/127 77/99/90 96/136/120
f 23/98/89 42/61/58 62/96/88
f 83/106/97 46/66/63 90/151/130
f 104/152/132 59/92/84 37/91/83
f 87/94/86 82/144/126 81/143/125
f 77/99/90 88/108/56 59/137/84
f 109/153/2 32/38/37 134/86/3
f 120/122/111 2/40/39 1/145/127
f 96/136/120 59/137/84 104/154/132
f 77/99/90 80/146/128 139/42/41
f 77/99/90 137/100/91 9/155/133
f 137/100/91 139/42/41 39/41/40
f 41/156/134 43/62/59 52/78/71
f 43/62/59 24/157/135 63/80/73
f 64/67/64 52/78/71 43/62/59
f 67/158/136 57/87/79 48/73/68
f 122/17/17 123/159/137 115/88/80
f 5/160/138 137/100/91 39/41/40
f 142/107/98 143/132/116 83/106/97
f 143/132/116 46/66/63 83/106/97
f 42/61/58 73/161/139 76/162/140
f 90/151/130 46/66/63 97/121/110
f 26/135/119 66/43/42 76/162/140
f 54/81/74 55/83/76 90/149/130
f 96/136/120 92/163/141 70/118/107
f 40/52/50 70/118/107 93/164/142
f 16/104/95 64/67/64 19/20/20
f 16/104/95 19/20/20 85/150/131
f 93/164/142 70/118/107 95/165/143
f 101/166/144 96/136/120 104/154/132
f 104/152/132 37/91/83 93/164/142
f 101/167/144 104/152/132 95/165/143
f 85/150/131 84/147/129 89/168/145
f 63/97/73 85/150/131 19/20/20
f 91/123/112 82/144/126 13/117/106
f 45/65/62 82/144/126 91/123/112
f 49/169/146 144/170/147 96/136/120
f 90/151/130 13/117/106 54/116/74
f 74/63/60 45/65/62 97/121/110
f 63/80/73 24/157/135 47/171/148
f 76/162/140 66/43/42 22/45/24
f 47/171/148 52/78/71 63/80/73
f 78/172/149 75/72/67 44/56/54
f 12/64/61 9/155/133 81/143/125
f 86/82/75 77/99/90 9/155/133
f 65/69/66 94/173/103 100/44/43
f 64/67/64 125/21/21 19/20/20
f 95/165/143 98/174/150 101/167/144
f 99/175/151 92/163/141 96/136/120
f 25/139/122 44/56/54 100/57/43
f 101/166/144 98/176/150 92/163/141
f 92/163/141 98/176/150 70/118/107
f 81/143/125 5/160/138 39/41/40
f 9/155/133 5/160/138 81/143/125
f 88/59/56 8/177/152 33/60/57
f 65/69/66 69/114/104 105/178/153
f 65/69/66 102/179/101 94/173/103
f 1/145/127 144/170/147 120/122/111
f 39/41/40 2/40/39 103/51/49
f 43/62/59 42/61/58 64/67/64
f 88/59/56 54/116/74 8/177/152
f 55/83/76 84/147/129 90/149/130
f 72/68/65 55/83/76 74/63/60
f 149/180/48 132/181/28 116/90/82
f 1/145/127 96/136/120 144/170/147
f 140/142/124 108/1/1 159/7/7
f 60/89/81 149/180/48 116/90/82
f 89/168/145 16/104/95 85/150/131
f 49/169/146 96/136/120 70/118/107
f 62/96/88 22/45/24 63/97/73
f 22/24/24 43/62/59 63/80/73
f 104/152/132 93/164/142 95/165/143
f 64/67/64 15/105/96 72/68/65
f 15/105/96 136/182/154 72/68/65
f 106/183/155 68/184/102 105/178/153
f 105/178/153 102/179/101 65/69/66
f 68/184/102 102/179/101 105/178/153
f 75/72/67 155/103/94 26/135/119
f 3/185/156 33/60/57 87/94/86
f 123/159/137 57/87/79 67/158/136
f 84/147/129 136/182/154 89/168/145
f 79/6/6 145/5/5 111/10/10
f 52/78/71 47/171/148 41/156/134
f 123/159/137 67/158/136 115/88/80
f 63/80/73 53/79/72 142/107/98
f 69/114/104 75/72/67 78/172/149
f 69/114/104 155/103/94 75/72/67
f 125/21/21 64/67/64 23/98/89
f 20/54/52 156/25/25 150/55/53
f 141/8/8 108/1/1 134/3/3
f 68/112/102 78/172/149 94/113/103
f 49/169/146 103/51/49 120/122/111
f 121/76/69 126/49/47 36/48/46
f 82/144/126 87/94/86 151/186/157
f 50/187/158 40/52/50 93/164/142
f 127/129/70 71/128/114 61/133/117
f 101/166/144 99/175/151 96/136/120
f 99/175/151 101/166/144 92/163/141
f 86/82/75 9/155/133 11/124/113
f 83/148/97 84/147/129 85/150/131
f 66/43/42 26/135/119 38/102/93
f 73/161/139 28/134/118 76/162/140
f 74/63/60 55/83/76 133/110/100
f 14/119/108 97/121/110 91/123/112
f 14/119/108 91/123/112 13/117/106
f 58/188/159 25/139/122 100/57/43
f 78/172/149 58/188/159 94/113/103
f 28/134/118 161/189/160 75/72/67
f 42/61/58 161/189/160 73/161/139
f 76/162/140 22/45/24 62/96/88
f 72/68/65 74/63/60 97/121/110
f 72/68/65 97/121/110 46/66/63
f 51/138/121 154/84/77 34/46/44
f 45/65/62 12/64/61 81/143/125
f 69/114/104 106/183/155 105/178/153
f 68/184/102 106/183/155 69/114/104
f 154/125/77 152/14/14 107/190/78
f 9/155/133 12/64/61 11/124/113
f 70/118/107 103/51/49 49/169/146
f 114/131/115 52/78/71 46/66/63
f 41/156/134 24/157/135 43/62/59
f 12/64/61 74/63/60 133/110/100
f 50/187/158 119/95/87 40/52/50
f 13/117/106 151/186/157 10/115/105
f 44/56/54 27/140/123 78/172/149
f 68/184/102 69/114/104 78/172/149
f 42/61/58 75/72/67 161/189/160
f 42/61/58 76/162/140 62/96/88
f 72/68/65 136/182/154 84/147/129
f 72/68/65 84/147/129 55/83/76
f 8/177/152 151/186/157 33/60/57
f 70/118/107 98/176/150 95/165/143
f 119/95/87 7/101/92 40/52/50
f 39/41/40 87/94/86 81/143/125
f 33/60/57 151/186/157 87/94/86
f 44/56/54 31/23/23 30/191/161
f 90/151/130 97/121/110 146/120/109
f 94/113/103 58/188/159 100/57/43
f 30/191/161 153/22/22 44/56/54
f 112/36/36 157/31/31 21/33/33
f 59/92/84 7/101/92 119/95/87
f 13/117/106 82/144/126 151/186/157
f 59/92/84 88/59/56 7/101/92
f 40/52/50 7/101/92 3/185/156
f 40/52/50 3/185/156 87/94/86
f 10/115/105 8/177/152 54/116/74
f 27/140/123 58/188/159 78/172/149
f 93/164/142 37/91/83 50/187/158
f 28/134/118 26/135/119 76/162/140
f 162/192/162 13/117/106 90/151/130
f 146/120/109 162/192/162 90/151/130
