# Blender v2.92.0 OBJ File: ''
# www.blender.org
mtllib Rock1.mtl
o 1_Group57697.002
v 0.441710 0.068025 -0.119076
v 0.480822 0.220371 0.026746
v 0.511399 0.139374 0.041435
v 0.391669 -0.006454 0.130670
v 0.272110 0.245320 0.148513
v 0.131977 0.000784 0.151450
v 0.137247 0.293505 -0.031650
v -0.104760 0.276956 -0.231350
v -0.108734 0.272494 0.138019
v -0.334154 -0.080697 -0.204872
v -0.309996 0.205892 -0.231422
v -0.285602 -0.175755 -0.247526
v -0.330327 0.255538 0.048399
v -0.328027 0.261187 0.159543
v 0.063430 -0.293035 0.051455
v 0.319822 -0.280037 0.016520
v 0.188820 -0.288943 0.088445
v -0.434730 -0.140422 0.166443
v -0.404601 -0.294059 0.124861
v -0.211889 -0.252784 0.190724
v 0.247347 -0.191696 -0.153225
v 0.385840 -0.052596 -0.120324
v 0.449574 -0.137897 -0.047665
v 0.184364 0.200167 -0.243753
v 0.031740 0.199356 -0.304377
v 0.100405 0.266590 -0.220521
v -0.001518 -0.101696 -0.304712
v 0.011873 0.070466 -0.325901
v 0.191412 -0.094190 -0.242782
v -0.393453 0.115913 0.204098
v -0.364728 0.221650 0.015911
v -0.118022 0.049135 0.183617
v -0.323988 0.238376 0.195030
v 0.248862 0.303202 0.081995
v 0.496404 0.003576 0.077523
v 0.514055 -0.048689 0.033628
v 0.000403 0.291329 -0.200035
v -0.185323 -0.293294 -0.112082
v -0.147345 -0.183487 -0.279212
v -0.484770 -0.078327 -0.023215
v 0.326118 0.281145 0.106288
v 0.339878 0.304956 -0.033259
v 0.372868 0.252818 -0.144476
v 0.289003 0.310406 -0.099303
v 0.316452 -0.286005 -0.066396
v 0.145701 -0.291750 -0.123917
v -0.410714 -0.162105 -0.103378
v 0.221288 0.147395 -0.229603
v 0.263180 0.229097 -0.208866
v 0.230891 0.308018 -0.120569
v 0.154091 0.259945 -0.190853
v -0.320642 -0.293261 -0.019768
v -0.192433 -0.276307 0.031412
v -0.295581 -0.293786 0.138494
v -0.187707 -0.284568 -0.079430
v -0.321182 -0.217471 -0.138315
v 0.526181 -0.031660 -0.001361
v -0.107763 0.233200 -0.292235
v -0.413563 0.069092 0.047397
v -0.398988 -0.044997 0.205788
v 0.070675 -0.258177 0.156383
v -0.110920 -0.290089 0.141527
v 0.023327 -0.162335 -0.264783
v -0.020603 -0.290958 -0.126361
v -0.458758 -0.050385 0.151500
v 0.125341 0.290438 -0.129586
v 0.416468 0.268255 0.045526
v -0.454090 -0.148793 -0.020354
v -0.397692 0.154141 -0.129597
vt 0.390373 0.276770
vt 0.437456 0.247484
vt 0.448413 0.273091
vt 0.866712 0.582371
vt 0.985000 0.637421
vt 0.871452 0.703979
vt 0.368715 0.165640
vt 0.290324 0.177920
vt 0.305466 0.079019
vt 0.217070 0.237626
vt 0.240592 0.180706
vt 0.230123 0.258111
vt 0.210738 0.092009
vt 0.202334 0.041701
vt 0.265831 0.371174
vt 0.343398 0.361057
vt 0.307013 0.386185
vt 0.084350 0.255396
vt 0.127634 0.290477
vt 0.117366 0.390122
vt 0.516550 0.404705
vt 0.327263 0.311153
vt 0.368382 0.296947
vt 0.376489 0.325376
vt 0.337795 0.218489
vt 0.308033 0.210742
vt 0.329397 0.199179
vt 0.282557 0.264840
vt 0.296309 0.234102
vt 0.321805 0.281457
vt 0.047618 0.041001
vt 0.196184 0.109954
vt 0.895478 0.821399
vt 0.985000 0.916689
vt 0.928164 0.950026
vt 0.516550 0.137122
vt 0.438811 0.155091
vt 0.438556 0.321412
vt 0.413685 0.326845
vt 0.314831 0.183627
vt 0.220147 0.297944
vt 0.251543 0.269214
vt 0.149735 0.219298
vt 0.460230 0.188864
vt 0.413182 0.210093
vt 0.392829 0.231246
vt 0.392700 0.207171
vt 0.337213 0.340820
vt 0.297449 0.328642
vt 0.181461 0.247383
vt 0.344885 0.231146
vt 0.366109 0.223019
vt 0.379741 0.199545
vt 0.341691 0.202266
vt 0.174591 0.292038
vt 0.190029 0.330502
vt 0.136678 0.327795
vt 0.212312 0.303442
vt 0.199207 0.267341
vt 0.408917 0.314755
vt 0.284288 0.194584
vt 0.151719 0.155146
vt 0.007856 0.216027
vt 0.259242 0.417109
vt 0.191075 0.387680
vt 0.282511 0.280425
vt 0.257353 0.317784
vt 0.754979 0.867003
vt 0.750869 0.734094
vt 0.080480 0.209198
vt 0.853042 0.953541
vt 0.345505 0.185856
vt 0.437695 0.225441
vt 0.154539 0.243574
vt 0.191773 0.008103
vt 0.208245 0.175824
vn 0.7039 0.0072 -0.7102
vn 0.8356 0.5292 0.1474
vn 0.9218 0.2664 0.2816
vn 0.3589 -0.1390 0.9230
vn 0.1865 0.3856 0.9036
vn 0.1020 -0.0250 0.9945
vn -0.0638 0.9951 -0.0753
vn -0.1084 0.9295 -0.3524
vn -0.0131 0.9415 0.3368
vn -0.7397 -0.1558 -0.6546
vn -0.5536 0.5127 -0.6563
vn -0.6563 -0.4918 -0.5722
vn -0.4453 0.8922 -0.0759
vn -0.4763 0.8363 0.2714
vn -0.0001 -0.9998 0.0179
vn 0.4607 -0.8125 0.3573
vn 0.2553 -0.8380 0.4822
vn -0.7087 -0.2689 0.6523
vn -0.5645 -0.7472 0.3508
vn -0.0037 -0.4303 0.9027
vn 0.4171 -0.4521 -0.7884
vn 0.5728 -0.2714 -0.7735
vn 0.7603 -0.4944 -0.4213
vn 0.6253 0.4383 -0.6457
vn 0.1688 0.4223 -0.8906
vn 0.2327 0.8099 -0.5384
vn 0.1232 -0.2765 -0.9531
vn 0.0918 0.0064 -0.9958
vn 0.4154 -0.2803 -0.8654
vn -0.6195 0.2588 0.7411
vn -0.8022 0.5954 -0.0443
vn 0.0933 0.0007 0.9956
vn -0.3056 0.5045 0.8075
vn 0.0341 0.9424 0.3327
vn 0.6706 -0.1195 0.7321
vn 0.8089 -0.4073 0.4241
vn -0.0190 0.9620 -0.2723
vn -0.3783 -0.9205 -0.0973
vn -0.1033 -0.5023 -0.8585
vn -0.9771 -0.0207 -0.2116
vn 0.3418 0.7201 0.6039
vn 0.3291 0.9432 -0.0444
vn 0.5708 0.5323 -0.6252
vn 0.1719 0.9444 -0.2802
vn 0.4373 -0.8223 -0.3642
vn 0.1436 -0.8807 -0.4514
vn -0.7271 -0.3954 -0.5613
vn 0.3955 0.1789 -0.9009
vn -0.0179 0.4468 -0.8945
vn -0.2661 0.8453 -0.4633
vn 0.6112 0.7408 -0.2786
vn -0.2675 -0.9232 -0.2760
vn 0.0323 -0.9993 -0.0201
vn -0.0108 -0.9348 0.3550
vn -0.1841 -0.9821 -0.0400
vn -0.2486 -0.6124 -0.7505
vn 0.9587 -0.1862 -0.2149
vn -0.1421 0.5060 -0.8508
vn -0.9304 0.3498 0.1094
vn -0.3257 -0.0540 0.9439
vn 0.1637 -0.4735 0.8654
vn 0.0222 -0.9408 0.3382
vn 0.2001 -0.5856 -0.7855
vn 0.0004 -0.9433 -0.3320
vn -0.9183 0.0706 0.3895
vn 0.3255 0.9363 -0.1322
vn 0.5401 0.7784 0.3200
vn -0.8557 -0.4542 -0.2480
vn -0.8601 0.3644 -0.3570
usemtl m_Rocks
s 1
f 1/1/1 2/2/2 3/3/3
f 4/4/4 5/5/5 6/6/6
f 7/7/7 8/8/8 9/9/9
f 10/10/10 11/11/11 12/12/12
f 8/8/8 13/13/13 14/14/14
f 15/15/15 16/16/16 17/17/17
f 18/18/18 19/19/19 20/20/20
f 4/21/4 17/17/17 16/16/16
f 21/22/21 22/23/22 23/24/23
f 24/25/24 25/26/25 26/27/26
f 27/28/27 28/29/28 29/30/29
f 30/31/30 14/14/14 31/32/31
f 32/33/32 33/34/33 30/35/30
f 28/29/28 24/25/24 29/30/29
f 5/36/5 34/37/34 9/9/9
f 4/21/4 35/38/35 3/3/3
f 16/16/16 36/39/36 4/21/4
f 25/26/25 37/40/37 26/27/26
f 38/41/38 12/12/12 39/42/39
f 28/29/28 25/26/25 24/25/24
f 28/29/28 39/42/39 12/12/12
f 12/12/12 38/41/38 10/10/10
f 18/18/18 40/43/40 19/19/19
f 5/36/5 41/44/41 34/37/34
f 42/45/42 43/46/43 44/47/44
f 44/47/44 34/37/34 42/45/42
f 7/7/7 9/9/9 34/37/34
f 16/16/16 45/48/45 23/24/23
f 46/49/46 16/16/16 15/15/15
f 16/16/16 23/24/23 36/39/36
f 47/50/47 11/11/11 10/10/10
f 48/51/48 1/1/1 29/30/29
f 1/1/1 43/46/43 2/2/2
f 49/52/49 44/47/44 43/46/43
f 1/1/1 49/52/49 43/46/43
f 34/37/34 50/53/50 7/7/7
f 7/7/7 50/53/50 49/52/49
f 46/49/46 45/48/45 16/16/16
f 7/7/7 48/51/48 51/54/51
f 37/40/37 8/8/8 7/7/7
f 52/55/52 53/56/53 54/57/54
f 55/58/55 56/59/56 10/10/10
f 22/23/22 1/1/1 57/60/57
f 25/26/25 58/61/58 8/8/8
f 30/31/30 31/32/31 59/62/59
f 60/63/60 18/18/18 20/20/20
f 61/64/61 17/17/17 4/21/4
f 61/64/61 20/20/20 62/65/62
f 58/61/58 11/11/11 8/8/8
f 63/66/63 46/49/46 64/67/64
f 32/33/32 20/68/20 61/69/61
f 49/52/49 48/51/48 7/7/7
f 49/52/49 1/1/1 48/51/48
f 52/55/52 54/57/54 19/19/19
f 20/20/20 19/19/19 54/57/54
f 3/3/3 35/38/35 36/39/36
f 4/21/4 36/39/36 35/38/35
f 48/51/48 24/25/24 51/54/51
f 24/25/24 48/51/48 29/30/29
f 60/63/60 30/31/30 65/70/65
f 20/68/20 30/35/30 60/71/60
f 52/55/52 55/58/55 53/56/53
f 2/2/2 43/46/43 42/45/42
f 3/3/3 41/44/41 5/36/5
f 60/63/60 65/70/65 18/18/18
f 65/70/65 40/43/40 18/18/18
f 55/58/55 64/67/64 53/56/53
f 53/56/53 15/15/15 62/65/62
f 66/72/66 26/27/26 37/40/37
f 40/43/40 65/70/65 59/62/59
f 2/2/2 41/44/41 3/3/3
f 51/54/51 24/25/24 26/27/26
f 66/72/66 51/54/51 26/27/26
f 38/41/38 55/58/55 10/10/10
f 67/73/67 34/37/34 41/44/41
f 41/44/41 2/2/2 67/73/67
f 68/74/68 40/43/40 47/50/47
f 47/50/47 19/19/19 68/74/68
f 61/64/61 62/65/62 17/17/17
f 15/15/15 17/17/17 62/65/62
f 33/75/33 5/36/5 9/9/9
f 14/14/14 30/31/30 33/75/33
f 63/66/63 21/22/21 46/49/46
f 9/9/9 8/8/8 14/14/14
f 14/14/14 33/75/33 9/9/9
f 29/30/29 63/66/63 27/28/27
f 39/42/39 27/28/27 63/66/63
f 29/30/29 22/23/22 21/22/21
f 29/30/29 1/1/1 22/23/22
f 56/59/56 47/50/47 10/10/10
f 5/5/5 33/34/33 32/33/32
f 6/6/6 5/5/5 32/33/32
f 58/61/58 25/26/25 28/29/28
f 36/39/36 57/60/57 3/3/3
f 50/53/50 34/37/34 44/47/44
f 50/53/50 44/47/44 49/52/49
f 11/11/11 58/61/58 12/12/12
f 40/43/40 68/74/68 19/19/19
f 11/11/11 13/13/13 8/8/8
f 25/26/25 8/8/8 37/40/37
f 57/60/57 1/1/1 3/3/3
f 46/49/46 21/22/21 45/48/45
f 21/22/21 23/24/23 45/48/45
f 11/11/11 31/32/31 13/13/13
f 69/76/69 31/32/31 11/11/11
f 34/37/34 67/73/67 42/45/42
f 47/50/47 56/59/56 52/55/52
f 31/32/31 14/14/14 13/13/13
f 28/29/28 27/28/27 39/42/39
f 38/41/38 64/67/64 55/58/55
f 20/20/20 54/57/54 62/65/62
f 12/12/12 58/61/58 28/29/28
f 66/72/66 37/40/37 7/7/7
f 6/6/6 32/33/32 61/69/61
f 56/59/56 55/58/55 52/55/52
f 20/68/20 32/33/32 30/35/30
f 6/6/6 61/69/61 4/4/4
f 39/42/39 64/67/64 38/41/38
f 39/42/39 63/66/63 64/67/64
f 63/66/63 29/30/29 21/22/21
f 15/15/15 64/67/64 46/49/46
f 64/67/64 15/15/15 53/56/53
f 47/50/47 52/55/52 19/19/19
f 30/31/30 59/62/59 65/70/65
f 54/57/54 53/56/53 62/65/62
f 36/39/36 23/24/23 57/60/57
f 57/60/57 23/24/23 22/23/22
f 59/62/59 31/32/31 40/43/40
f 40/43/40 31/32/31 69/76/69
f 40/43/40 69/76/69 11/11/11
f 2/2/2 42/45/42 67/73/67
f 4/21/4 3/3/3 5/36/5
f 51/54/51 66/72/66 7/7/7
f 47/50/47 40/43/40 11/11/11
