# Blender v2.79 (sub 0) OBJ File: 'FantasyBuildingPackMasterfile.blend'
# www.blender.org
mtllib Window1Low.mtl
o Group44170
v -0.207899 0.706501 1.038027
v -0.221561 0.704501 0.716675
v -0.219974 -1.062062 0.730504
v -0.208985 -1.057100 -0.721821
v -0.209005 0.062168 -1.009487
v -0.218792 -1.051204 -1.043950
v 0.119276 -1.054264 1.039701
v -0.225928 -1.054906 1.045341
v 0.172423 -1.108072 0.422662
v 0.176198 -1.102774 -0.314938
v 0.128133 -1.065784 0.144731
v 0.359813 1.026960 0.738265
v 0.312111 1.212084 0.547771
v 0.120033 1.019622 0.762933
v -0.061343 1.016424 0.763721
v -0.087954 1.298334 0.421306
v 0.081549 0.083388 0.729540
v -0.231840 1.083008 -0.242519
v -0.231889 1.403030 -0.226085
v -0.231854 1.023069 -0.744259
v 0.028084 -0.825355 -0.723684
v 0.121695 -0.504264 0.750205
v 0.135007 -1.057423 0.730206
v -0.231796 1.083082 0.235578
v -0.231926 1.392397 0.250313
v 0.299574 1.101358 -0.039505
v 0.310513 1.066808 -0.273700
v 0.354292 0.908726 -0.533181
v -0.231690 0.892866 0.548558
v 0.312810 0.910492 0.525266
v 0.360086 0.708678 0.691144
v 0.115692 -0.028896 -0.695267
v -0.208918 0.117245 -0.690263
v 0.046475 -1.069471 0.060225
v 0.121470 0.126013 -0.956367
v 0.120914 -1.056258 -0.732586
v -0.229130 -1.363657 -1.089603
v 0.161852 -1.358054 -1.090023
v 0.121204 -1.380919 0.413754
v -0.231848 1.031027 0.770964
v -0.047073 1.196398 -0.567589
v -0.231379 1.209489 -0.557930
v 0.300966 1.387403 -0.269150
v 0.351710 1.238150 -0.501761
v 0.094342 1.372213 -0.295423
v 0.164645 -1.362310 -0.451084
v -0.228601 -1.370180 1.084775
v 0.359563 1.024282 -0.744291
v 0.359329 1.099038 -0.327159
v 0.124971 0.141082 -0.786072
v 0.358196 0.944708 0.560050
v 0.352742 0.711191 1.103673
v 0.169073 -1.061493 1.093953
v -0.216520 -1.062340 1.092815
v 0.071767 -1.058789 0.729970
v 0.351802 1.405342 0.132489
v 0.351800 1.079750 0.249234
v 0.359758 1.140908 0.020513
v 0.204646 1.411294 -0.112831
v -0.073319 1.400490 -0.194592
v 0.359512 1.335906 -0.257390
v -0.112065 1.400492 0.165244
v 0.223158 1.399876 0.166707
v -0.231400 0.886814 -0.558405
v 0.182462 0.373029 0.778822
v 0.283769 0.499168 0.785454
v 0.179918 0.362412 0.975557
v 0.131597 0.706811 0.723560
v -0.208976 0.707902 -1.028861
v 0.115292 0.191560 -0.998360
v 0.181607 0.366002 -0.979616
v 0.179798 0.176422 -0.970537
v 0.133044 0.707144 1.002383
v 0.286535 0.508990 0.970621
v -0.217700 0.703496 -0.701071
v 0.115784 0.705420 -0.723154
v 0.179610 0.370346 -0.781603
v 0.287343 0.503018 -0.789269
v -0.219570 -1.096490 -1.105468
v 0.173097 -1.060287 -1.084488
v 0.318043 1.023764 1.057458
v 0.354047 0.944099 1.105771
v -0.231753 0.709604 1.107429
v -0.231710 1.022906 1.107263
v -0.231802 0.708935 -1.113857
v -0.231670 1.022358 -1.113748
v 0.359901 0.810465 -1.106857
v -0.043526 1.022845 -0.741281
v 0.337152 1.009895 -1.108031
v 0.174141 -1.326868 1.094363
v 0.269231 0.708727 -1.113747
v 0.359522 0.708538 -0.669797
v 0.314974 0.708104 -1.066559
v 0.121975 -1.053677 -1.032340
v 0.176731 -1.058620 -0.721676
v 0.124793 0.707706 -0.771093
v 0.127204 0.703894 -1.010069
v 0.277214 0.707524 -0.789873
v 0.284787 0.707281 -0.965852
v 0.277659 0.707291 0.969921
v 0.284841 0.707337 0.792947
v 0.050120 -1.061901 -0.717752
v 0.339169 1.381642 0.262103
v 0.077967 -0.471077 -1.028726
v 0.084723 0.226457 1.043212
v 0.126398 0.162459 0.993964
v 0.177877 -1.368999 1.061516
v 0.176977 -1.324012 0.468156
v 0.125002 0.707876 0.769493
v 0.179641 -1.378906 -0.122158
v 0.102778 1.021886 1.069938
v -0.082549 1.022321 1.107484
v 0.283136 0.505024 -0.974416
v 0.180202 0.186174 -0.783086
v 0.182117 0.181436 0.972336
v 0.127453 0.145945 0.774462
v 0.128077 -1.062770 -0.326953
v 0.184714 0.179665 0.787566
v -0.017703 0.816266 0.741701
v -0.017703 -1.132235 0.741701
v -0.017703 0.816266 -0.777528
v -0.017703 -1.132235 -0.777528
v -0.017703 1.114051 -0.354098
v -0.017703 1.114051 0.318271
v -0.017703 -1.132235 0.410179
v -0.017703 -1.132235 -0.446006
vt 0.910257 0.453679
vt 0.928607 0.005205
vt 0.994795 0.005205
vt 0.994795 0.394225
vt 0.691479 0.394226
vt 0.691479 0.005205
vt 0.757668 0.005205
vt 0.776018 0.453679
vt 0.754611 0.800217
vt 0.755941 0.864302
vt 0.403953 0.871030
vt 0.007387 0.670860
vt 0.229131 0.737502
vt 0.005940 0.735091
vt 0.548004 0.217415
vt 0.548041 0.364747
vt 0.535442 0.272852
vt 0.191601 0.511407
vt 0.205082 0.460353
vt 0.242521 0.514216
vt 0.755941 0.616217
vt 0.630338 0.673830
vt 0.402885 0.607760
vt 0.121720 0.794945
vt 0.344287 0.303800
vt 0.290670 0.320050
vt 0.314243 0.197528
vt 0.403676 0.808259
vt 0.402946 0.739463
vt 0.512503 0.680804
vt 0.401816 0.678104
vt 0.348137 0.398571
vt 0.294364 0.393104
vt 0.026391 0.325546
vt 0.136892 0.354515
vt 0.035439 0.418131
vt 0.133885 0.302060
vt 0.129618 0.234109
vt 0.037139 0.486656
vt 0.142429 0.483990
vt 0.138615 0.531570
vt 0.211258 0.863101
vt 0.241226 0.927350
vt 0.052605 0.881205
vt 0.535329 0.156126
vt 0.518881 0.289772
vt 0.253968 0.802826
vt 0.681070 0.518639
vt 0.603263 0.518841
vt 0.609968 0.218333
vt 0.203016 0.314108
vt 0.186047 0.266243
vt 0.237753 0.306287
vt 0.601566 0.390698
vt 0.465552 0.156236
vt 0.401816 0.517986
vt 0.404900 0.085085
vt 0.172075 0.198249
vt 0.148045 0.292350
vt 0.240961 0.810847
vt 0.244995 0.844733
vt 0.006495 0.862662
vt 0.159189 0.487752
vt 0.162660 0.599036
vt 0.539016 0.083396
vt 0.539456 0.007373
vt 0.600178 0.005205
vt 0.467591 0.093559
vt 0.523220 0.156265
vt 0.360986 0.474032
vt 0.200210 0.378579
vt 0.151792 0.416859
vt 0.152057 0.365824
vt 0.190157 0.314583
vt 0.221276 0.338773
vt 0.275152 0.381972
vt 0.220892 0.384125
vt 0.012891 0.254492
vt 0.355278 0.230034
vt 0.771217 0.523544
vt 0.758698 0.552230
vt 0.727472 0.514284
vt 0.754685 0.686739
vt 0.871007 0.701958
vt 0.834045 0.686012
vt 0.875638 0.687428
vt 0.230583 0.655796
vt 0.192515 0.629344
vt 0.296095 0.660450
vt 0.728550 0.548369
vt 0.358378 0.926568
vt 0.357531 0.859815
vt 0.837982 0.641422
vt 0.805741 0.645889
vt 0.199641 0.585291
vt 0.543913 0.519203
vt 0.554603 0.597351
vt 0.208309 0.572174
vt 0.302912 0.648139
vt 0.319191 0.511470
vt 0.391407 0.514426
vt 0.377733 0.596232
vt 0.312472 0.586824
vt 0.382114 0.099202
vt 0.391407 0.196027
vt 0.308723 0.104478
vt 0.138514 0.112553
vt 0.267195 0.194674
vt 0.176070 0.114995
vt 0.591204 0.083790
vt 0.182346 0.041083
vt 0.301585 0.024685
vt 0.108041 0.192127
vt 0.114926 0.117762
vt 0.533219 0.509022
vt 0.531375 0.448666
vt 0.542375 0.446433
vt 0.464729 0.513921
vt 0.005205 0.211708
vt 0.063182 0.190407
vt 0.774755 0.607760
vt 0.691479 0.573470
vt 0.358378 0.741381
vt 0.357776 0.676321
vt 0.529464 0.094634
vt 0.462211 0.086194
vt 0.093481 0.170181
vt 0.103388 0.135601
vt 0.460660 0.095829
vt 0.202216 0.657093
vt 0.140652 0.581619
vt 0.129582 0.551171
vt 0.241565 0.673844
vt 0.037180 0.531469
vt 0.455007 0.521683
vt 0.384817 0.582351
vt 0.293367 0.005205
vt 0.388710 0.118851
vt 0.752455 0.590263
vt 0.464148 0.509526
vt 0.466546 0.445373
vt 0.517835 0.445041
vt 0.099157 0.537206
vt 0.766351 0.673611
vt 0.769027 0.639122
vt 0.718798 0.582480
vt 0.202402 0.401114
vt 0.276129 0.429908
vt 0.005205 0.802852
vt 0.658210 0.743134
vt 0.754164 0.731883
vt 0.645492 0.730241
vt 0.164067 0.068293
vt 0.592777 0.207875
vt 0.098967 0.546912
vt 0.785641 0.594814
vt 0.600178 0.087634
vt 0.247533 0.575329
vt 0.283323 0.585165
vt 0.802908 0.675931
vt 0.767691 0.705669
vt 0.601421 0.325220
vt 0.264130 0.245477
vt 0.402054 0.666052
vt 0.891817 0.650166
vt 0.891817 0.685668
vt 0.877096 0.648484
vt 0.735630 0.477015
vt 0.889353 0.639866
vt 0.731200 0.464529
vt 0.777705 0.464088
vt 0.725462 0.469611
vt 0.280723 0.513506
vt 0.265882 0.324191
vt 0.535097 0.367284
vt 0.774032 0.480387
vt 0.785641 0.474241
vt 0.006657 0.928856
vt 0.063069 0.180224
vt 0.608055 0.596744
vt 0.465034 0.529302
vt 0.358194 0.850075
vt 0.642392 0.686853
vt 0.754076 0.695969
vt 0.005333 0.877113
vt 0.681070 0.083969
vt 0.298813 0.251373
vt 0.110631 0.105257
vt 0.889057 0.700620
vt 0.355554 0.808144
vt 0.212738 0.011722
vt 0.173774 0.006400
vt 0.466246 0.083904
vn 1.0000 0.0000 -0.0000
vn -0.3278 -0.8848 0.3312
vn -0.7918 -0.2597 -0.5528
vn -0.8983 0.3149 -0.3065
vn -0.0834 0.9338 0.3479
vn -0.7046 0.0074 -0.7095
vn -0.8227 0.2916 -0.4879
vn 0.9306 0.3659 -0.0066
vn 0.9132 0.4074 0.0116
vn 0.3395 0.9405 -0.0012
vn 0.8083 0.5391 0.2365
vn 0.3257 0.7602 0.5621
vn -0.0113 0.9415 0.3367
vn 0.3775 -0.0045 -0.9260
vn 0.3183 0.0412 -0.9471
vn -0.7695 -0.6129 0.1797
vn -0.6513 0.7355 -0.1866
vn -0.8095 0.5410 -0.2281
vn -0.8787 0.2833 0.3842
vn 0.3612 0.8598 0.3609
vn 0.8393 -0.0019 -0.5436
vn 0.6143 0.7322 -0.2942
vn -0.7682 -0.6151 -0.1775
vn -0.6259 0.7431 0.2367
vn 0.2658 -0.9634 0.0328
vn 0.3837 -0.8659 0.3209
vn 0.7451 -0.4853 0.4574
vn -0.7470 -0.5151 -0.4203
vn 0.3794 -0.6958 -0.6098
vn 0.6319 -0.6968 -0.3392
vn 0.6659 -0.0078 0.7459
vn -0.6934 -0.0060 0.7206
vn 0.0210 -0.0209 0.9995
vn -0.0078 0.9999 0.0018
vn 0.2740 -0.1104 -0.9554
vn -0.5891 -0.5830 -0.5595
vn 0.5745 -0.5786 -0.5788
vn 0.3410 -0.9399 0.0169
vn 0.3177 0.9011 -0.2951
vn 0.6781 0.5966 -0.4292
vn 0.0020 0.9188 -0.3946
vn 0.7799 -0.6256 -0.0181
vn -0.5875 -0.5766 0.5677
vn 0.7997 0.5543 -0.2307
vn 0.9567 -0.2561 0.1379
vn 0.9236 -0.3119 -0.2227
vn 0.9512 -0.2223 0.2139
vn 0.3506 0.8203 0.4519
vn 0.9551 -0.2109 -0.2079
vn 0.5774 -0.5740 0.5806
vn 0.5804 0.5550 0.5959
vn -0.5055 0.5363 0.6759
vn -0.0031 0.7093 -0.7049
vn 0.6791 0.7305 0.0719
vn 0.7585 -0.6184 -0.2052
vn 0.9228 -0.3836 -0.0351
vn 0.9026 0.4123 -0.1235
vn 0.0338 0.9969 -0.0704
vn 0.0044 0.9880 0.1542
vn -0.0051 0.9928 0.1197
vn -0.7557 -0.4954 0.4282
vn 0.6221 -0.2007 -0.7567
vn 0.7499 -0.2508 -0.6122
vn 0.7579 -0.1735 0.6288
vn 0.3100 -0.9170 -0.2509
vn 0.7233 -0.2006 -0.6608
vn 0.7728 -0.4034 -0.4899
vn 0.1313 -0.7008 0.7012
vn 0.7717 -0.2337 0.5914
vn -0.7783 -0.2488 0.5765
vn 0.3439 -0.8641 0.3675
vn 0.6322 -0.1949 0.7499
vn 0.7629 -0.2433 0.5990
vn 0.6695 0.2530 0.6983
vn 0.6107 0.5497 -0.5699
vn -0.6091 0.3353 -0.7187
vn 0.4029 0.8199 0.4067
vn -0.5821 -0.5667 0.5831
vn -0.7635 0.6070 0.2203
vn -0.5741 0.5815 0.5765
vn -0.5802 -0.5739 -0.5779
vn -0.5698 0.5807 -0.5815
vn 0.7494 -0.1340 -0.6484
vn 0.0058 0.9200 -0.3918
vn 0.5289 0.5975 -0.6027
vn 0.6409 -0.2128 0.7375
vn 0.1692 -0.6798 -0.7136
vn 0.6221 -0.6893 0.3713
vn 0.5284 -0.8168 -0.2315
vn 0.3587 0.8686 -0.3417
vn 0.7431 0.6689 0.0170
vn 0.5442 -0.6148 0.5708
vn -0.2727 -0.9085 -0.3166
vn 0.3576 -0.8750 0.3264
vn 0.4237 -0.8592 -0.2868
vn 0.4038 -0.8529 0.3308
vn 0.3706 -0.8792 -0.2992
vn 0.0599 0.7457 0.6635
vn 0.5599 0.7680 0.3110
vn -0.0376 0.8501 0.5252
vn 0.3991 0.0019 0.9169
vn 0.8127 -0.1969 0.5483
vn 0.9383 -0.3458 -0.0052
vn 0.6532 -0.5772 -0.4900
vn 0.6614 -0.6685 0.3401
vn 0.0629 0.9341 0.3512
vn 0.0089 0.7107 0.7034
vn 0.7645 -0.2449 -0.5962
vn 0.0996 -0.7163 -0.6907
vn 0.6039 -0.7963 -0.0352
vn 0.0153 0.7741 -0.6328
vn 0.6932 -0.3361 0.6375
vn 0.7569 -0.4537 0.4703
vn 0.8229 -0.2323 -0.5185
vn 0.0318 0.9418 0.3347
vn 0.0199 0.9945 -0.1026
vn 0.3054 0.9517 0.0303
vn 0.7665 -0.4040 -0.4992
vn -0.6718 0.5828 -0.4571
usemtl None
s off
f 123/1/1 126/2/1 122/3/1 121/4/1
f 119/5/1 120/6/1 125/7/1 124/8/1
f 124/8/1 125/7/1 126/2/1 123/1/1
s 1
f 1/9/2 2/10/3 3/11/4
f 4/12/5 5/13/6 6/14/7
f 9/15/8 10/16/9 11/17/10
f 12/18/11 13/19/12 14/20/13
f 2/21/3 17/22/14 3/23/4
f 104/24/15 6/14/7 5/13/6
f 18/25/16 19/26/17 20/27/18
f 1/9/2 8/28/19 7/29/20
f 8/28/19 1/9/2 3/11/4
f 22/30/21 7/29/20 23/31/22
f 24/32/23 25/33/24 18/25/16
f 18/34/16 26/35/25 24/36/23
f 27/37/26 18/34/16 28/38/27
f 29/39/28 30/40/29 31/41/30
f 32/42/31 33/43/32 21/44/33
f 9/15/8 11/17/10 23/45/22
f 11/17/10 34/46/34 23/45/22
f 70/47/35 104/24/15 5/13/6
f 37/48/36 38/49/37 39/50/38
f 43/51/39 44/52/40 45/53/41
f 39/50/38 38/49/37 46/54/42
f 3/55/4 37/56/36 47/57/43
f 48/58/44 49/59/45 28/38/27
f 35/60/46 50/61/47 36/62/48
f 51/63/49 52/64/50 31/41/30
f 48/58/44 44/52/40 49/59/45
f 53/65/51 54/66/52 47/67/43
f 8/68/19 3/55/4 47/57/43
f 23/45/22 34/46/34 55/69/53
f 24/36/23 30/40/29 29/39/28
f 25/33/24 24/32/23 29/70/28
f 56/71/54 57/72/55 58/73/56
f 26/35/25 57/72/55 24/36/23
f 25/33/24 19/26/17 18/25/16
f 61/74/57 56/71/54 58/73/56
f 59/75/58 62/76/59 63/77/60
f 28/38/27 18/34/16 64/78/61
f 18/25/16 20/27/18 64/79/61
f 65/80/62 66/81/63 67/82/64
f 2/21/3 68/83/65 17/22/14
f 70/84/35 71/85/66 72/86/67
f 73/87/68 52/88/50 1/89/2
f 74/90/69 67/82/64 66/81/63
f 75/91/70 32/42/31 76/92/71
f 77/93/72 71/85/66 78/94/73
f 51/63/49 12/18/11 52/64/50
f 12/18/11 82/95/74 52/64/50
f 80/96/75 46/54/42 38/49/37
f 79/97/76 80/96/75 38/49/37
f 12/18/11 14/20/13 81/98/77
f 52/88/50 82/95/74 83/99/78
f 40/100/79 2/101/3 83/102/78
f 40/100/79 83/102/78 84/103/80
f 20/27/18 85/104/81 75/105/70
f 86/106/82 85/104/81 20/27/18
f 48/58/44 28/38/27 87/107/83
f 88/108/84 48/58/44 89/109/85
f 10/16/9 9/15/8 90/110/86
f 90/110/86 53/65/51 47/67/43
f 89/109/85 91/111/87 85/112/81
f 92/113/88 93/114/89 87/107/83
f 28/38/27 92/113/88 87/107/83
f 28/38/27 64/78/61 92/113/88
f 94/115/90 36/116/48 95/117/91
f 80/96/75 6/118/7 94/115/90
f 75/119/70 76/120/71 92/113/88
f 78/94/73 96/121/92 77/93/72
f 74/90/69 73/122/68 67/82/64
f 50/61/47 76/92/71 32/42/31
f 50/61/47 32/42/31 36/62/48
f 5/13/6 69/123/93 70/47/35
f 75/124/70 69/123/93 5/13/6
f 7/125/20 54/126/52 53/65/51
f 23/45/22 7/125/20 53/65/51
f 98/127/94 99/128/95 93/114/89
f 7/125/20 8/129/19 54/126/52
f 100/130/96 52/88/50 73/87/68
f 100/131/96 101/132/97 52/64/50
f 75/91/70 33/43/32 32/42/31
f 33/133/32 75/124/70 5/13/6
f 57/72/55 12/18/11 51/63/49
f 24/36/23 57/72/55 30/40/29
f 2/101/3 40/100/79 29/70/28
f 29/39/28 31/41/30 2/134/3
f 3/55/4 79/135/76 37/56/36
f 64/79/61 20/27/18 75/105/70
f 92/113/88 64/78/61 75/119/70
f 83/99/78 1/89/2 52/88/50
f 83/102/78 2/101/3 1/136/2
f 85/112/81 91/111/87 69/137/93
f 85/104/81 69/138/93 75/105/70
f 101/139/97 74/90/69 66/81/63
f 6/140/7 3/55/4 4/141/5
f 102/142/98 4/141/5 34/46/34
f 31/41/30 52/64/50 101/132/97
f 31/41/30 68/143/65 2/134/3
f 99/144/95 98/145/94 78/94/73
f 98/145/94 96/121/92 78/94/73
f 101/139/97 100/146/96 74/90/69
f 100/146/96 73/122/68 74/90/69
f 13/19/12 103/147/99 16/148/100
f 6/14/7 104/24/15 94/149/90
f 93/114/89 92/113/88 98/127/94
f 98/127/94 92/113/88 76/120/71
f 105/150/101 73/151/68 1/9/2
f 73/151/68 105/150/101 106/152/102
f 40/100/79 25/33/24 29/70/28
f 103/147/99 62/76/59 16/148/100
f 88/108/84 89/109/85 86/106/82
f 86/106/82 89/109/85 85/112/81
f 87/153/83 91/111/87 89/109/85
f 35/60/46 36/62/48 94/149/90
f 104/24/15 35/60/46 94/149/90
f 32/42/31 21/44/33 36/62/48
f 56/71/54 12/18/11 57/72/55
f 103/147/99 13/19/12 12/18/11
f 90/110/86 108/154/103 10/16/9
f 31/41/30 101/132/97 109/155/104
f 66/81/63 65/80/62 109/156/104
f 107/157/105 39/50/38 108/154/103
f 111/158/106 14/20/13 112/159/107
f 82/95/74 112/159/107 83/99/78
f 78/94/73 71/85/66 113/160/108
f 97/161/109 71/85/66 70/84/35
f 108/154/103 39/50/38 110/162/110
f 108/154/103 110/162/110 10/16/9
f 41/163/111 48/58/44 88/108/84
f 81/98/77 82/95/74 12/18/11
f 82/95/74 111/158/106 112/159/107
f 78/94/73 113/160/108 99/144/95
f 113/160/108 71/85/66 97/161/109
f 57/72/55 26/35/25 58/73/56
f 27/37/26 28/38/27 49/59/45
f 68/143/65 31/41/30 109/155/104
f 97/161/109 99/144/95 113/160/108
f 43/51/39 45/53/41 59/75/58
f 61/74/57 43/51/39 56/71/54
f 30/40/29 57/72/55 51/63/49
f 30/40/29 51/63/49 31/41/30
f 55/164/53 22/30/21 23/31/22
f 104/24/15 70/47/35 35/60/46
f 108/154/103 90/110/86 107/157/105
f 90/110/86 47/67/43 107/157/105
f 48/58/44 41/163/111 44/52/40
f 50/165/47 35/166/46 72/86/67
f 72/86/67 71/85/66 114/167/112
f 16/148/100 25/33/24 40/100/79
f 67/82/64 73/122/68 115/168/113
f 65/80/62 67/82/64 115/168/113
f 26/35/25 27/37/26 49/59/45
f 18/34/16 27/37/26 26/35/25
f 50/165/47 72/86/67 114/167/112
f 96/121/92 50/169/47 114/167/112
f 80/96/75 94/115/90 95/117/91
f 106/170/102 116/171/114 115/168/113
f 115/168/113 73/122/68 106/172/102
f 15/173/115 16/148/100 40/100/79
f 15/173/115 40/100/79 84/103/80
f 45/53/41 60/174/116 59/75/58
f 102/142/98 117/175/117 95/117/91
f 117/175/117 102/142/98 34/46/34
f 71/85/66 77/93/72 114/167/112
f 77/93/72 96/121/92 114/167/112
f 115/168/113 116/171/114 118/176/118
f 116/177/114 109/156/104 65/80/62
f 49/59/45 61/74/57 58/73/56
f 26/35/25 49/59/45 58/73/56
f 21/44/33 33/43/32 4/178/5
f 33/133/32 5/13/6 4/12/5
f 117/175/117 10/16/9 95/117/91
f 96/179/92 98/127/94 76/120/71
f 79/97/76 38/49/37 37/180/36
f 10/16/9 110/162/110 46/54/42
f 39/50/38 46/54/42 110/162/110
f 79/181/76 6/118/7 80/96/75
f 9/15/8 53/65/51 90/110/86
f 9/15/8 23/45/22 53/65/51
f 17/22/14 22/30/21 55/164/53
f 117/175/117 34/46/34 11/17/10
f 10/16/9 117/175/117 11/17/10
f 34/46/34 3/55/4 55/69/53
f 3/23/4 17/22/14 55/164/53
f 22/30/21 106/152/102 7/29/20
f 62/76/59 103/147/99 63/77/60
f 56/71/54 103/147/99 12/18/11
f 96/182/92 76/92/71 50/61/47
f 109/156/104 101/139/97 66/81/63
f 17/22/14 68/83/65 116/183/114
f 68/83/65 109/184/104 116/183/114
f 62/76/59 19/26/17 25/33/24
f 21/44/33 102/185/98 36/62/48
f 95/117/91 36/116/48 102/142/98
f 44/52/40 61/74/57 49/59/45
f 61/74/57 44/52/40 43/51/39
f 37/48/36 39/50/38 47/186/43
f 39/50/38 107/157/105 47/186/43
f 105/150/101 1/9/2 7/29/20
f 105/150/101 7/29/20 106/152/102
f 89/109/85 48/58/44 87/107/83
f 42/187/119 20/27/18 19/26/17
f 41/163/111 42/187/119 45/53/41
f 65/80/62 115/168/113 118/176/118
f 116/177/114 65/80/62 118/176/118
f 45/53/41 42/187/119 19/26/17
f 45/53/41 19/26/17 60/174/116
f 34/46/34 4/141/5 3/55/4
f 93/114/89 91/188/87 87/107/83
f 99/128/95 91/188/87 93/114/89
f 72/86/67 35/189/46 70/84/35
f 69/123/93 97/190/109 70/47/35
f 25/33/24 16/148/100 62/76/59
f 88/108/84 86/106/82 20/27/18
f 88/108/84 20/27/18 42/187/119
f 17/22/14 116/183/114 22/30/21
f 116/183/114 106/152/102 22/30/21
f 44/52/40 41/163/111 45/53/41
f 111/158/106 82/95/74 81/98/77
f 14/20/13 111/158/106 81/98/77
f 59/75/58 60/174/116 62/76/59
f 83/99/78 112/159/107 84/103/80
f 15/173/115 84/103/80 112/159/107
f 60/174/116 19/26/17 62/76/59
f 80/96/75 10/16/9 46/54/42
f 43/51/39 59/75/58 56/71/54
f 14/20/13 15/173/115 112/159/107
f 95/117/91 10/16/9 80/96/75
f 6/140/7 79/135/76 3/55/4
f 97/191/109 91/111/87 99/192/95
f 91/111/87 97/191/109 69/137/93
f 56/71/54 63/77/60 103/147/99
f 59/75/58 63/77/60 56/71/54
f 16/148/100 15/173/115 14/20/13
f 14/20/13 13/19/12 16/148/100
f 54/193/52 8/68/19 47/57/43
f 21/44/33 4/178/5 102/185/98
f 41/163/111 88/108/84 42/187/119
