# Blender v3.4.1 OBJ File: 'Medieval Farm Pack.blend'
# www.blender.org
mtllib Bench_Lowpoly.mtl
o Bench_Lowpoly
v 0.281177 0.599634 1.324141
v 0.070993 0.451420 1.337795
v -0.288567 0.551586 1.330179
v 0.365746 0.287110 1.362106
v 0.070061 0.315988 1.353338
v -0.134525 1.096219 -1.395968
v 0.268925 0.654098 -1.433000
v -0.367571 0.001095 1.391892
v 0.367189 0.001199 1.395166
v 0.070500 0.334950 -1.352257
v 0.237120 0.725504 -1.291165
v 0.069444 0.469190 -1.331511
v 0.415662 1.089459 0.125501
v 0.397767 1.099120 1.767199
v -0.105353 1.097829 1.257349
v 0.244790 1.096034 1.273653
v -0.149230 1.104330 -1.255983
v -0.225682 0.717300 -1.305446
v -0.267394 0.667607 1.432317
v -0.068222 0.459057 1.336021
v 0.242874 1.138100 -1.381819
v 0.248277 1.099901 1.377370
v -0.085399 1.094032 1.387637
v 0.064999 0.477372 -1.467814
v -0.066180 0.291711 0.251647
v -0.072616 0.330012 -1.356730
v -0.155475 1.068079 -0.168193
v 0.041071 1.208687 -0.716991
v 0.418163 1.215260 1.323943
v -0.068848 0.477927 -1.333931
v -0.238841 1.092546 -1.387912
v -0.367968 1.069106 -0.022979
v -0.066749 0.315786 1.353857
v -0.365476 0.306312 1.362893
v 0.259837 1.098606 1.774283
v -0.233662 1.090296 1.266741
v -0.248258 1.092751 1.379007
v -0.368088 1.170326 0.050295
v 0.413516 1.208563 1.785041
v 0.081444 1.190435 1.792820
v 0.420626 1.195540 0.112390
v 0.423243 1.124136 1.793127
v 0.301718 1.096323 -1.768856
v 0.230732 1.131263 -1.246137
v -0.422839 1.204134 -0.885382
v -0.430705 1.109735 -0.872322
v -0.186228 1.165125 -1.788483
v -0.113024 1.114663 -1.794488
v -0.144261 1.216390 -1.788746
v 0.050616 1.209827 -1.797628
v -0.362770 0.001484 1.509055
v 0.365634 0.000004 1.508709
v -0.367662 0.284755 -1.375042
v -0.257355 0.705371 -1.439506
v -0.367536 0.002175 -1.547075
v -0.368939 0.000655 -1.414138
v 0.367755 0.000943 -1.403802
v -0.246890 1.091356 -1.269018
v -0.270163 0.674196 -1.342967
v -0.193770 1.096392 -0.839617
v 0.217832 1.077279 -0.044177
v -0.421027 1.193679 0.815908
v 0.071596 0.438411 -0.253426
v -0.053624 0.440793 0.049113
v -0.428757 1.196903 -1.785245
v 0.182791 1.095369 -1.251435
v 0.390724 1.212379 -1.788485
v 0.395706 1.105636 -1.792788
v 0.366473 0.293079 -1.365392
v 0.366720 0.000041 -1.538267
v -0.193354 1.214980 -1.211725
v 0.416562 1.212263 -1.060150
v 0.434935 1.119595 -1.751782
v -0.221153 1.211247 -1.790974
v -0.392788 1.224104 -1.753454
v -0.416397 1.106168 -1.792065
v 0.218621 0.965405 1.276378
v 0.198127 1.094577 -1.390750
v 0.250867 1.116508 -1.796235
v -0.421929 1.213030 1.780621
v -0.424405 1.087946 0.926400
v 0.368118 0.276744 -1.490181
v 0.265607 0.702118 -1.321542
v -0.240605 1.183720 0.112717
v -0.261349 1.221045 1.768029
v 0.091659 1.214029 1.177390
v -0.071071 1.102383 -1.793488
v 0.071783 0.342369 -1.489145
v -0.366623 0.306889 -1.504637
v 0.085515 1.204890 0.928692
v -0.160093 1.210582 1.225097
v -0.368569 0.285138 1.475929
v -0.068866 0.471422 -1.472984
v -0.066748 0.334975 -1.494952
v 0.042647 1.212105 1.793214
v -0.138906 1.115870 1.798820
v 0.116626 1.190804 0.068007
v 0.094677 1.220766 -1.769403
v 0.092102 1.206788 -1.364664
v 0.068819 0.465927 -1.587913
v -0.413815 1.104854 1.788445
v 0.064082 0.337675 -1.590266
v -0.077980 0.407459 0.290968
v 0.070995 0.292571 0.391135
v -0.065370 0.460432 1.461686
v -0.068846 0.315947 1.478732
v -0.060752 0.469457 -1.592594
v -0.061879 0.340693 -1.597128
v -0.160043 1.092902 1.388139
v -0.219684 1.200262 1.796031
v 0.065618 0.314329 1.478376
v 0.368080 0.298458 1.475798
v 0.075323 1.174335 -0.768935
v 0.266616 0.670751 1.432972
v -0.121372 1.132620 1.384170
v 0.072164 0.453680 1.462091
v 0.428183 1.179902 -1.785920
v 0.059642 0.458344 1.551051
v 0.072424 0.332428 1.555622
v -0.071888 0.450222 1.554743
v -0.065505 0.322086 1.549069
v 0.220814 1.209647 -1.073937
v 0.244790 1.096034 1.273653
v 0.248277 1.099901 1.377370
v 0.242874 1.138100 -1.381819
v 0.198127 1.094577 -1.390750
v 0.182791 1.095369 -1.251435
v 0.230732 1.131263 -1.246137
v -0.248258 1.092751 1.379007
v -0.160043 1.092902 1.388139
v -0.068846 0.315947 1.478732
v 0.065618 0.314329 1.478376
v -0.149230 1.104330 -1.255983
v -0.246890 1.091356 -1.269018
v 0.070993 0.451420 1.337795
v -0.068222 0.459057 1.336021
v -0.105353 1.097829 1.257349
v -0.233662 1.090296 1.266741
v -0.238841 1.092546 -1.387912
v -0.068848 0.477927 -1.333931
v 0.069444 0.469190 -1.331511
v 0.064999 0.477372 -1.467814
v -0.068866 0.471422 -1.472984
v -0.121372 1.132620 1.384170
v 0.072164 0.453680 1.462091
v -0.072616 0.330012 -1.356730
v 0.070061 0.315988 1.353338
v -0.066749 0.315786 1.353857
v -0.085399 1.094032 1.387637
v 0.070500 0.334950 -1.352257
v 0.071783 0.342369 -1.489145
v -0.066748 0.334975 -1.494952
v -0.065370 0.460432 1.461686
v -0.134525 1.096219 -1.395968
vt 0.681687 0.577306
vt 0.656517 0.523076
vt 0.689463 0.444271
vt 0.662500 0.491466
vt 0.609239 0.578555
vt 0.625748 0.517422
vt 0.802529 0.230000
vt 0.706425 0.333184
vt 0.707930 0.207437
vt 0.567724 0.411470
vt 0.547463 0.574468
vt 0.737105 0.062656
vt 0.674434 0.089716
vt 0.644790 0.084013
vt 0.336341 0.514503
vt 0.285190 0.470818
vt 0.290028 0.044815
vt 0.419910 0.177045
vt 0.329360 0.172383
vt 0.809153 0.161786
vt 0.717528 0.167317
vt 0.821650 0.315788
vt 0.725825 0.354863
vt 0.694507 0.607523
vt 0.796994 0.605288
vt 0.801842 0.682710
vt 0.618801 0.361584
vt 0.661845 0.288544
vt 0.950320 0.975634
vt 0.947450 0.697018
vt 0.983996 0.979782
vt 0.433161 0.545888
vt 0.488032 0.508241
vt 0.502792 0.262587
vt 0.257348 0.474300
vt 0.170020 0.262068
vt 0.256659 0.159580
vt 0.671030 0.120664
vt 0.502792 0.963851
vt 0.430149 0.861676
vt 0.456973 0.859573
vt 0.630007 0.487242
vt 0.636075 0.420172
vt 0.453197 0.175112
vt 0.457068 0.146349
vt 0.410891 0.141323
vt 0.327810 0.145077
vt 0.325478 0.043802
vt 0.258447 0.039343
vt 0.170858 0.034820
vt 0.261173 0.017392
vt 0.330799 0.856925
vt 0.312790 0.956005
vt 0.333967 0.822886
vt 0.051255 0.491300
vt 0.045851 0.729772
vt 0.024067 0.725309
vt 0.115215 0.958269
vt 0.164131 0.960943
vt 0.120083 0.983141
vt 0.554829 0.763946
vt 0.518177 0.602675
vt 0.543560 0.601277
vt 0.638456 0.114458
vt 0.615805 0.173262
vt 0.548610 0.196990
vt 0.554736 0.165946
vt 0.582718 0.007693
vt 0.458979 0.828992
vt 0.704761 0.181202
vt 0.803566 0.181811
vt 0.799841 0.207475
vt 0.629851 0.782269
vt 0.704734 0.733955
vt 0.686780 0.765763
vt 0.528737 0.766818
vt 0.085480 0.474825
vt 0.178583 0.486095
vt 0.915704 0.976920
vt 0.913024 0.619063
vt 0.818420 0.087288
vt 0.828134 0.346973
vt 0.250354 0.957415
vt 0.255154 0.983745
vt 0.216378 0.984278
vt 0.812147 0.473708
vt 0.646631 0.018564
vt 0.554378 0.365084
vt 0.262064 0.960352
vt 0.255148 0.773883
vt 0.278237 0.951438
vt 0.100210 0.965046
vt 0.101085 0.813060
vt 0.875183 0.281815
vt 0.868943 0.566762
vt 0.833594 0.530603
vt 0.087599 0.958404
vt 0.044208 0.947272
vt 0.034294 0.981263
vt 0.032654 0.956364
vt 0.809414 0.307046
vt 0.345566 0.859373
vt 0.328311 0.962925
vt 0.497699 0.040061
vt 0.230597 0.992307
vt 0.900834 0.556548
vt 0.878232 0.982586
vt 0.423985 0.964574
vt 0.631754 0.387081
vt 0.562282 0.396085
vt 0.171437 0.197185
vt 0.131525 0.987733
vt 0.280972 0.037771
vt 0.412148 0.964062
vt 0.630537 0.292751
vt 0.614919 0.198430
vt 0.106154 0.184773
vt 0.617998 0.759935
vt 0.559999 0.790399
vt 0.658532 0.258041
vt 0.626574 0.261677
vt 0.159868 0.037435
vt 0.091707 0.035777
vt 0.112562 0.013236
vt 0.174067 0.850738
vt 0.175439 0.953570
vt 0.631616 0.888939
vt 0.667967 0.921562
vt 0.621846 0.952209
vt 0.038497 0.040139
vt 0.040234 0.011615
vt 0.565273 0.812800
vt 0.596495 0.849938
vt 0.529454 0.855756
vt 0.527875 0.913590
vt 0.592662 0.923297
vt 0.566175 0.954699
vt 0.841140 0.982068
vt 0.653946 0.690095
vt 0.620773 0.693292
vt 0.667967 0.856317
vt 0.558350 0.885483
vt 0.435247 0.144221
vt 0.617983 0.663600
vt 0.608139 0.599853
vt 0.205853 0.777271
vt 0.631394 0.816233
vt 0.080135 0.043718
vt 0.798935 0.582505
vt 0.426438 0.038960
vt 0.734584 0.361647
vt 0.169188 0.699414
vt 0.433892 0.825555
vt 0.523622 0.366745
vt 0.518177 0.198078
vt 0.039309 0.291321
vt 0.802942 0.700097
vt 0.812148 0.690576
vt 0.649655 0.658750
vt 0.814597 0.844121
vt 0.814597 0.899841
vt 0.778548 0.849168
vt 0.288761 0.962017
vt 0.780108 0.812800
vt 0.727436 0.845442
vt 0.723278 0.813489
vt 0.778412 0.940418
vt 0.720509 0.929695
vt 0.776716 0.902483
vt 0.724762 0.901411
vt 0.809992 0.503157
vt 0.769466 0.573158
vt 0.945884 0.285816
vt 0.980832 0.282214
vt 0.983996 0.530244
vt 0.811227 0.745377
vt 0.910975 0.286156
vt 0.444513 0.718521
vt 0.218168 0.008014
vt 0.254686 0.007693
vt 0.158114 0.686563
vt 0.024337 0.510426
vt 0.010529 0.264006
vt 0.695378 0.848686
vt 0.828134 0.077786
vt 0.349100 0.824393
vt 0.839716 0.281112
vt 0.010113 0.038676
vt 0.696209 0.903094
vt 0.007693 0.956599
vt 0.804783 0.720233
vt 0.271948 0.978743
vt 0.422488 0.144363
vn 0.6819 0.0521 -0.7296
vn 0.0073 -0.0980 -0.9952
vn -0.6509 0.0765 -0.7553
vn -0.0044 -0.0734 -0.9973
vn 0.7274 0.0187 -0.6860
vn 0.0104 -0.1194 -0.9928
vn -0.0206 0.1150 -0.9931
vn 0.6579 0.2210 -0.7200
vn -0.6337 0.1965 -0.7482
vn -0.5924 -0.6054 -0.5316
vn 0.5885 -0.6053 -0.5360
vn 0.3536 -0.0865 0.9314
vn -0.0141 -0.1465 0.9891
vn -0.0156 -0.1672 0.9858
vn 0.0409 -0.9992 0.0000
vn 0.7106 -0.7036 0.0014
vn 0.3040 -0.9104 0.2807
vn 0.0165 -0.9998 0.0057
vn -0.0254 -0.9995 0.0162
vn -0.0627 -0.1107 0.9919
vn -0.3047 -0.1054 0.9466
vn 0.9178 0.1055 -0.3828
vn 0.9337 0.1037 0.3426
vn 0.6595 0.1797 0.7299
vn 0.7417 0.1173 0.6604
vn 0.0085 0.1075 0.9942
vn 0.7319 0.1782 -0.6577
vn 0.0301 0.1605 -0.9866
vn 0.7460 0.6658 0.0175
vn 0.7376 0.6751 0.0145
vn 0.6857 -0.7277 -0.0189
vn -0.0010 -0.9999 -0.0123
vn -0.6767 -0.7360 0.0221
vn -0.7162 -0.6979 0.0007
vn 0.7225 0.6914 -0.0024
vn -0.0088 0.9997 -0.0233
vn 0.6906 0.7232 -0.0026
vn -0.0345 -0.1427 0.9892
vn -0.5278 -0.5894 -0.6117
vn 0.0043 -0.9994 -0.0336
vn -0.0141 -0.9995 -0.0275
vn -0.0150 -0.1154 -0.9932
vn -0.7423 0.0453 -0.6685
vn 0.0133 -0.9999 -0.0005
vn -0.0148 -0.9996 0.0234
vn -0.3751 -0.9268 -0.0169
vn -0.0605 -0.9979 0.0228
vn 0.0069 -0.9127 0.4086
vn 0.5341 0.6399 0.5525
vn 0.1476 0.6202 0.7704
vn 0.6739 -0.3284 0.6618
vn -0.6331 -0.7702 -0.0772
vn -0.1334 -0.9706 -0.2006
vn -0.2999 -0.9527 -0.0485
vn -0.7321 0.6811 -0.0085
vn -0.6867 0.7261 0.0364
vn -0.8911 -0.4534 0.0193
vn -0.3215 0.7252 -0.6088
vn -0.0465 0.6683 -0.7425
vn -0.1063 -0.6249 -0.7735
vn -0.5549 -0.5531 0.6214
vn 0.5656 -0.5555 0.6095
vn -0.0277 -0.2145 0.9763
vn -0.7394 -0.0111 0.6732
vn -0.5632 -0.5334 -0.6310
vn -0.5925 -0.6133 0.5223
vn 0.5838 -0.6141 0.5311
vn 0.0254 -0.9996 -0.0146
vn -0.9198 0.1337 0.3690
vn -0.7116 -0.0385 0.7015
vn -0.7144 0.1319 -0.6872
vn -0.6643 0.1827 0.7248
vn -0.0542 0.9985 -0.0035
vn -0.0159 0.9999 0.0022
vn -0.7070 0.7070 0.0161
vn -0.3816 0.9243 0.0111
vn -0.0222 -0.1100 0.9937
vn 0.7928 -0.0092 0.6094
vn 0.2891 0.7244 -0.6258
vn 0.3099 -0.6478 -0.6959
vn -0.0503 -0.6365 -0.7696
vn -0.6222 -0.0843 -0.7783
vn 0.7768 0.0179 0.6295
vn 0.5675 -0.5350 -0.6259
vn 0.7398 0.3046 -0.5999
vn 0.6609 0.7503 0.0125
vn 0.8460 -0.5006 -0.1839
vn -0.0039 0.3868 -0.9222
vn 0.0044 0.9999 0.0100
vn -0.6784 -0.7343 0.0237
vn -0.6589 -0.7522 -0.0075
vn 0.6996 -0.7145 0.0078
vn 0.3590 0.6727 -0.6470
vn -0.2441 0.9426 -0.2281
vn -0.6911 0.3968 -0.6041
vn 0.0579 0.1045 -0.9928
vn 0.3687 -0.9295 0.0099
vn -0.5562 -0.5806 0.5946
vn -0.9772 0.2123 -0.0068
vn -0.6773 -0.7354 -0.0212
vn -0.0041 0.9999 -0.0165
vn -0.0792 -0.7374 -0.6708
vn 0.0295 0.1422 -0.9894
vn -0.7162 0.1931 -0.6706
vn -0.0120 0.9998 -0.0151
vn -0.7343 0.1540 0.6611
vn 0.0239 0.1614 -0.9866
vn 0.0262 0.1383 -0.9900
vn 0.1749 0.7384 0.6513
vn 0.0626 0.6319 0.7725
vn -0.0008 -0.6649 0.7470
vn -0.3552 0.9347 0.0132
vn -0.0856 0.9872 -0.1348
vn 0.6031 0.5436 -0.5837
vn 0.6286 0.7773 -0.0266
vn 0.7877 -0.6161 0.0061
vn -0.6267 0.5704 0.5309
vn -0.6877 0.7236 -0.0585
vn -0.5473 0.5757 -0.6075
vn -0.7277 -0.6840 -0.0515
vn 0.5559 -0.5917 -0.5838
vn -0.0087 0.1315 0.9913
vn -0.0091 0.1051 0.9944
vn -0.5563 -0.5394 -0.6321
vn 0.3763 -0.9262 0.0226
vn 0.0080 0.1045 0.9945
vn 0.7379 0.1708 0.6530
vn -0.0057 0.9999 0.0120
vn 0.1267 0.9585 0.2552
vn 0.7021 0.0023 -0.7121
vn 0.0452 0.9983 0.0366
vn 0.0479 -0.9987 -0.0195
vn -0.7256 0.6866 -0.0464
vn -0.0312 0.1095 0.9935
vn 0.0053 0.0943 0.9955
vn 0.0078 0.1266 0.9919
vn 0.7228 0.6909 0.0111
vn -0.6378 0.7702 -0.0058
vn 0.5063 0.6303 0.5886
vn 0.6206 -0.4690 0.6285
vn 0.6619 -0.7448 0.0845
vn -0.7182 -0.6930 0.0625
vn -0.6169 0.5121 0.5976
vn -0.5573 -0.5819 0.5923
vn -0.0420 -0.2420 -0.9694
vn 0.1300 -0.0889 -0.9875
vn 0.7507 0.6606 -0.0080
vn 0.6832 -0.7300 0.0184
vn -0.7114 0.7028 -0.0026
vn -0.0028 -0.9998 -0.0201
vn 0.3463 0.9381 -0.0009
vn 0.2944 -0.9552 -0.0313
vn -0.7963 0.1104 0.5947
vn -0.0305 -0.9987 -0.0416
usemtl Default_OBJ.026
s 1
f 1/1/1 135/2/2 3/3/3
f 20/4/4 3/3/3 135/2/2
f 135/2/2 4/5/5 147/6/6
f 6/7/7 7/8/8 54/9/9
f 8/10/10 147/6/6 9/11/11
f 11/12/12 141/13/13 150/14/14
f 61/15/15 13/16/16 14/17/17
f 137/18/18 61/15/15 16/19/19
f 17/20/20 18/21/21 11/12/12
f 7/8/8 125/22/22 83/23/23
f 114/24/24 22/25/25 149/26/26
f 7/8/8 82/27/27 142/28/28
f 12/29/29 63/30/30 10/31/31
f 27/32/32 137/18/18 32/33/33
f 81/34/34 32/33/33 137/18/18
f 41/35/35 90/36/36 29/37/37
f 11/12/12 18/21/21 30/38/38
f 76/39/39 154/40/40 31/41/41
f 147/6/6 8/10/10 148/42/42
f 3/3/3 148/42/42 34/43/43
f 61/15/15 14/17/17 16/19/19
f 138/44/44 129/45/45 81/34/34
f 23/46/46 124/47/47 35/48/48
f 39/49/49 40/50/50 42/51/51
f 41/35/35 29/37/37 13/16/16
f 21/52/52 43/53/53 44/54/54
f 38/55/55 45/56/56 46/57/57
f 49/58/58 50/59/59 48/60/60
f 51/61/61 9/62/11 52/63/62
f 150/14/14 26/64/63 53/65/64
f 30/38/38 53/65/64 26/64/63
f 53/65/64 55/66/65 56/67/66
f 57/68/67 11/12/12 150/14/14
f 150/14/14 53/65/64 57/68/67
f 76/39/39 31/41/41 134/69/68
f 59/70/69 58/71/70 139/72/71
f 34/73/43 19/74/72 3/75/3
f 8/76/10 9/62/11 51/61/61
f 84/77/73 90/36/36 97/78/74
f 14/17/17 35/48/48 124/47/47
f 63/30/30 140/79/75 64/80/76
f 11/12/12 30/38/38 141/13/13
f 127/81/77 17/20/20 11/12/12
f 128/82/78 83/23/23 125/22/22
f 1/1/1 4/5/5 135/2/2
f 67/83/79 68/84/80 79/85/81
f 3/3/3 20/4/4 148/42/42
f 36/86/82 1/1/1 3/3/3
f 69/87/83 11/12/12 57/68/67
f 55/66/65 82/27/27 70/88/84
f 117/89/85 72/90/86 73/91/87
f 49/58/58 47/92/88 71/93/89
f 33/94/90 25/95/91 104/96/92
f 137/18/18 138/44/44 81/34/34
f 74/97/93 75/98/94 71/93/89
f 74/97/93 76/99/39 65/100/95
f 125/22/22 7/8/8 126/101/96
f 78/102/97 79/103/81 21/52/52
f 6/7/7 54/9/9 139/72/71
f 81/34/34 129/45/45 101/104/98
f 12/29/29 140/79/75 63/30/30
f 68/84/80 43/105/53 79/85/81
f 21/52/52 79/103/81 43/53/53
f 103/106/99 146/107/100 33/94/90
f 76/39/39 48/108/60 154/40/40
f 72/90/86 41/35/35 13/16/16
f 82/27/27 69/109/83 57/110/67
f 50/59/59 67/83/79 79/85/81
f 137/18/18 27/32/32 61/15/15
f 82/27/27 7/8/8 83/23/23
f 74/97/93 47/92/88 76/99/39
f 71/93/89 47/92/88 74/97/93
f 29/37/37 90/36/36 86/111/101
f 45/56/56 65/100/95 46/57/57
f 50/59/59 79/85/81 87/112/102
f 18/21/21 53/65/64 30/38/38
f 74/97/93 65/100/95 75/98/94
f 75/98/94 65/100/95 45/56/56
f 29/37/37 39/49/49 42/113/51
f 87/114/102 79/103/81 78/102/97
f 151/115/103 82/27/27 55/66/65
f 89/116/104 55/66/65 53/65/64
f 90/36/36 91/117/105 86/111/101
f 90/36/36 84/77/73 91/117/105
f 34/43/43 148/42/42 8/10/10
f 92/118/106 34/73/43 8/119/10
f 89/116/104 54/9/9 143/120/107
f 89/116/104 152/121/108 55/66/65
f 95/122/109 110/123/110 96/124/111
f 49/58/58 71/93/89 50/59/59
f 39/49/49 86/111/101 40/50/50
f 89/116/104 143/120/107 152/121/108
f 152/121/108 151/115/103 55/66/65
f 50/59/59 99/125/112 98/126/113
f 67/83/79 50/59/59 98/126/113
f 100/127/114 24/128/115 88/129/116
f 142/28/28 82/27/27 151/115/103
f 110/123/110 80/130/117 101/131/98
f 93/132/118 107/133/119 94/134/120
f 94/135/120 102/136/121 88/137/116
f 103/106/99 64/80/76 140/79/75
f 4/5/5 9/11/11 147/6/6
f 146/107/100 10/138/31 104/96/92
f 34/73/43 92/118/106 19/74/72
f 19/74/72 92/118/106 153/139/122
f 146/107/100 104/96/92 25/95/91
f 51/61/61 92/118/106 8/119/10
f 131/140/123 92/118/106 51/61/61
f 100/127/114 107/133/119 24/141/115
f 107/133/119 102/136/121 108/142/124
f 149/26/26 19/74/72 114/24/24
f 129/45/45 130/143/125 101/104/98
f 52/63/62 132/144/126 51/61/61
f 1/1/1 114/24/24 112/145/127
f 97/78/74 90/36/36 41/35/35
f 122/146/128 97/78/74 41/35/35
f 54/9/9 142/28/28 143/120/107
f 24/141/115 107/133/119 93/147/118
f 52/63/62 112/145/127 132/144/126
f 9/11/11 112/145/127 52/63/62
f 110/123/110 91/117/105 85/148/129
f 110/123/110 85/148/129 80/130/117
f 123/149/130 22/25/25 114/24/24
f 101/104/98 130/143/125 96/150/111
f 110/123/110 101/131/98 96/124/111
f 11/151/12 69/109/83 83/23/23
f 82/27/27 83/23/23 69/109/83
f 97/78/74 99/125/112 113/152/131
f 97/78/74 98/126/113 99/125/112
f 78/102/97 154/40/40 87/114/102
f 6/7/7 126/101/96 7/8/8
f 32/33/33 134/69/68 133/153/132
f 17/20/20 58/71/70 18/21/21
f 154/40/40 48/108/60 87/114/102
f 70/88/84 57/154/67 55/66/65
f 57/68/67 53/65/64 56/67/66
f 55/66/65 57/154/67 56/155/66
f 84/77/73 45/56/56 38/55/55
f 62/156/133 84/77/73 38/55/55
f 19/74/72 149/26/26 109/157/134
f 149/26/26 144/158/135 109/157/134
f 100/127/114 102/136/121 107/133/119
f 100/127/114 88/129/116 102/136/121
f 114/24/24 145/159/136 112/145/127
f 114/24/24 19/74/72 145/159/136
f 18/21/21 59/70/69 53/65/64
f 145/159/136 132/144/126 112/145/127
f 131/140/123 153/139/122 92/118/106
f 116/160/137 105/161/138 118/162/139
f 145/159/136 19/74/72 153/139/122
f 68/163/80 13/16/16 61/15/15
f 116/164/137 119/165/140 111/166/141
f 105/167/138 106/168/142 120/169/143
f 131/140/123 51/61/61 132/144/126
f 116/164/137 118/162/139 119/165/140
f 120/169/143 106/168/142 121/170/144
f 118/162/139 120/169/143 119/165/140
f 105/161/138 120/169/143 118/162/139
f 36/86/82 15/171/145 77/172/146
f 2/173/147 5/174/148 104/175/92
f 19/74/72 36/176/82 3/75/3
f 2/173/147 64/80/76 136/177/149
f 13/16/16 68/163/80 73/91/87
f 73/91/87 72/90/86 13/16/16
f 133/153/132 27/32/32 60/178/150
f 103/106/99 140/79/75 146/107/100
f 63/30/30 104/175/92 10/31/31
f 98/126/113 122/146/128 67/83/79
f 98/126/113 97/78/74 122/146/128
f 72/90/86 117/89/85 67/83/79
f 77/172/146 1/1/1 36/86/82
f 42/51/51 35/179/48 14/180/17
f 113/152/131 99/125/112 28/181/151
f 63/30/30 64/80/76 2/173/147
f 63/30/30 2/173/147 104/175/92
f 32/33/33 133/153/132 60/178/150
f 62/156/133 32/182/33 81/183/34
f 23/46/46 35/48/48 96/150/111
f 40/50/50 96/124/111 42/51/51
f 121/170/144 111/184/141 119/165/140
f 120/169/143 121/170/144 119/165/140
f 4/5/5 1/1/1 112/145/127
f 112/145/127 9/11/11 4/5/5
f 58/71/70 59/70/69 18/21/21
f 71/93/89 75/98/94 45/56/56
f 128/185/78 127/81/77 11/12/12
f 29/37/37 42/113/51 13/16/16
f 42/113/51 14/17/17 13/16/16
f 11/151/12 83/23/23 128/82/78
f 89/116/104 53/65/64 59/70/69
f 94/134/120 107/133/119 108/142/124
f 108/142/124 102/136/121 94/135/120
f 84/77/73 80/130/117 85/148/129
f 48/60/60 50/59/59 87/112/102
f 66/186/152 61/15/15 27/32/32
f 61/15/15 66/186/152 44/54/54
f 50/59/59 71/93/89 28/181/151
f 99/125/112 50/59/59 28/181/151
f 47/92/88 49/58/58 48/60/60
f 59/70/69 54/9/9 89/116/104
f 77/172/146 123/149/130 1/1/1
f 123/149/130 114/24/24 1/1/1
f 33/94/90 104/96/92 5/187/148
f 61/15/15 44/54/54 43/53/53
f 43/53/53 68/163/80 61/15/15
f 86/111/101 95/122/109 40/50/50
f 86/111/101 91/117/105 95/122/109
f 95/122/109 96/124/111 40/50/50
f 32/182/33 38/55/55 46/57/57
f 97/78/74 113/152/131 28/181/151
f 139/72/71 54/9/9 59/70/69
f 133/153/132 66/186/152 27/32/32
f 60/178/150 27/32/32 32/33/33
f 28/181/151 84/77/73 97/78/74
f 80/130/117 62/156/133 81/183/34
f 38/55/55 32/182/33 62/156/133
f 80/130/117 81/183/34 101/188/98
f 91/117/105 110/123/110 95/122/109
f 67/83/79 122/146/128 72/90/86
f 28/181/151 71/93/89 84/77/73
f 33/94/90 146/107/100 25/95/91
f 106/189/142 111/184/141 121/170/144
f 84/77/73 62/156/133 80/130/117
f 47/92/88 48/60/60 76/99/39
f 65/100/95 76/190/39 46/57/57
f 37/191/153 36/176/82 19/74/72
f 15/171/145 123/149/130 77/172/146
f 68/84/80 117/89/85 73/192/87
f 136/177/149 64/80/76 103/106/99
f 45/56/56 84/77/73 71/93/89
f 70/88/84 82/27/27 57/110/67
f 72/90/86 122/146/128 41/35/35
f 96/150/111 130/143/125 115/193/154
f 115/193/154 23/46/46 96/150/111
f 67/83/79 117/89/85 68/84/80
f 29/37/37 86/111/101 39/49/49
f 91/117/105 84/77/73 85/148/129
f 46/57/57 76/190/39 32/182/33
f 42/51/51 96/124/111 35/179/48
f 19/74/72 109/157/134 37/191/153
f 103/106/99 33/94/90 136/177/149
f 14/17/17 124/47/47 16/19/19
f 76/39/39 134/69/68 32/33/33
f 7/8/8 142/28/28 54/9/9
