# Blender v3.0.1 OBJ File: 'Medieval Town Pack.blend'
# www.blender.org
mtllib Stone_Wall_Pillar_Lowpoly.mtl
o Stone_Wall_Pillar_Lowpoly
v 0.936825 5.364777 0.930376
v 0.102713 5.366674 1.041328
v -0.758034 5.358508 0.722250
v -0.876561 3.159668 -0.910240
v 0.564583 0.304367 -0.828050
v 0.688295 1.756562 0.854683
v -0.748126 2.426747 -0.835546
v -0.762245 3.077565 -0.660294
v 0.762854 4.569460 0.821654
v 0.791044 1.819401 -0.789947
v 0.791420 0.209489 0.963804
v -0.817652 5.700509 1.043807
v 0.698576 5.354405 0.838723
v 0.762915 5.357676 0.652158
v -0.636844 5.362806 0.842420
v -0.854526 3.490701 -0.880468
v -0.716697 0.481082 0.849527
v 0.861581 3.399915 0.949698
v -0.669117 3.069237 -0.829748
v 0.926000 5.436997 1.030661
v 0.853943 0.295085 0.882812
v -0.704967 6.046486 0.773762
v 0.769063 -0.089061 0.953931
v 0.777175 1.658589 0.792450
v 0.754136 3.499975 0.763300
v -0.871557 3.113196 0.825829
v -0.730696 0.304660 -0.762097
v 0.760126 5.348003 -0.739923
v -0.069784 3.502628 0.837321
v 0.944720 5.650855 -0.991880
v -0.768685 3.093114 -0.948069
v -0.769465 -0.082792 -0.952124
v -0.834451 0.300962 -0.864922
v -0.686635 5.354572 -0.848765
v -0.631344 0.382781 -0.839428
v -0.618281 0.301977 0.836061
v -0.765858 2.977095 0.808979
v 0.764858 2.902043 0.852502
v 0.862653 3.432790 -0.945006
v 0.804860 3.493200 -0.912638
v -0.736971 3.497989 0.783460
v -0.667319 2.988344 0.854812
v -0.773985 5.354414 -0.746961
v -0.807870 -0.026327 0.961124
v 0.872190 0.219133 -0.939135
v -0.768974 1.836462 -0.774891
v 0.688181 5.349072 -0.854895
v 0.732742 0.381729 0.855763
v 0.777796 3.494171 0.896108
v -0.754492 3.581809 0.829767
v 0.728032 6.041668 -0.779123
v -0.763834 3.505481 -0.737431
v 0.836902 3.079038 0.821016
v 0.846893 5.700466 -1.031535
v -0.884995 0.238713 0.893490
v 0.939114 5.696015 1.029982
v -0.852747 3.080180 -0.766445
v 0.716771 2.954550 -0.828900
v -0.737162 1.643401 -0.832663
v -0.751082 0.312367 0.756328
v 0.856049 -0.109073 0.796622
v 0.636546 3.498228 -0.843141
v 0.770819 3.125988 0.959102
v -0.663423 3.506851 -0.833053
v -0.935347 5.717460 0.951910
v -0.762956 4.256571 -0.856066
v 0.876922 3.140047 0.867114
v -0.860785 -0.100004 -0.845412
v 0.754685 -0.099556 -0.953552
v -0.767288 2.975810 -0.762599
v -0.934056 5.378551 1.046384
v 0.784439 0.400086 -0.755727
v 0.776089 3.093966 -0.937058
v 0.760144 0.309118 0.766679
v -0.938616 5.369072 0.577682
v -0.878684 3.417191 0.925840
v -0.939419 5.694314 -1.029501
v 0.921739 5.368261 -1.021716
v -0.766474 0.375311 -0.766053
v 0.730571 0.497450 -0.846323
v -0.706164 6.053071 -0.643990
v -0.731619 3.073947 0.782331
v 0.684065 3.650885 0.843893
v 0.713246 6.046426 0.783555
v 0.871645 -0.074952 -0.832343
v 0.872352 3.113975 -0.869019
v -0.870697 -0.096261 0.865020
v 0.761116 3.502551 -0.728550
v -0.854735 0.226360 -0.952203
v -0.212878 3.076034 0.854213
v -0.930155 5.369104 -1.032954
v -0.734403 5.997097 -0.824650
v 0.745662 3.576596 -0.841195
v 0.754628 3.073665 0.769831
v 0.552448 3.074024 0.865506
v 0.543229 3.075045 -0.822667
v 0.865254 3.484538 0.803427
v 0.805045 0.293552 -0.941580
v 0.750560 0.306336 -0.720726
v -0.809605 3.486022 0.945476
v -0.765605 3.092944 0.942000
v -0.764332 5.263290 0.807466
v 0.757538 3.072017 -0.739391
v 0.873182 -0.022547 0.910254
v -0.816361 0.290504 0.932517
v -0.793476 3.398097 -0.962858
v -0.751082 0.312367 0.756328
v -0.618281 0.301977 0.836061
v -0.669117 3.069237 -0.829748
v 0.543229 3.075045 -0.822667
v 0.761116 3.502551 -0.728550
v 0.754136 3.499975 0.763300
v -0.730696 0.304660 -0.762097
v 0.564583 0.304367 -0.828050
v -0.762245 3.077565 -0.660294
v -0.731619 3.073947 0.782331
v 0.760144 0.309118 0.766679
v 0.750560 0.306336 -0.720726
v 0.754628 3.073665 0.769831
v 0.552448 3.074024 0.865506
v 0.636546 3.498228 -0.843141
v -0.773985 5.354414 -0.746961
v -0.686635 5.354572 -0.848765
v 0.698576 5.354405 0.838723
v 0.762915 5.357676 0.652158
v -0.069784 3.502628 0.837321
v -0.736971 3.497989 0.783460
v 0.688181 5.349072 -0.854895
v 0.760126 5.348003 -0.739923
v 0.757538 3.072017 -0.739391
v -0.758034 5.358508 0.722250
v -0.763834 3.505481 -0.737431
v -0.663423 3.506851 -0.833053
v -0.636844 5.362806 0.842420
v -0.212878 3.076034 0.854213
vt 0.024308 0.038428
vt 0.285315 0.035556
vt 0.151379 0.180233
vt 0.964230 0.835483
vt 0.986648 0.885583
vt 0.831451 0.895756
vt 0.128371 0.906908
vt 0.034714 0.840300
vt 0.342761 0.891007
vt 0.942778 0.924284
vt 0.765630 0.918390
vt 0.761894 0.389788
vt 0.550938 0.398569
vt 0.630067 0.219086
vt 0.915985 0.174535
vt 0.924851 0.349948
vt 0.902439 0.178711
vt 0.857989 0.158858
vt 0.846033 0.006613
vt 0.857628 0.029173
vt 0.843031 0.154023
vt 0.904549 0.329078
vt 0.925580 0.359638
vt 0.963978 0.354841
vt 0.915006 0.584694
vt 0.941037 0.019632
vt 0.953404 0.162656
vt 0.913740 0.030328
vt 0.955083 0.578578
vt 0.795435 0.333617
vt 0.829367 0.154199
vt 0.841552 0.341629
vt 0.863484 0.328478
vt 0.859945 0.361929
vt 0.032414 0.187279
vt 0.161674 0.191544
vt 0.343111 0.947497
vt 0.543304 0.925604
vt 0.342837 0.971198
vt 0.529075 0.870585
vt 0.782391 0.863716
vt 0.968202 0.581798
vt 0.973344 0.671902
vt 0.955357 0.589672
vt 0.516348 0.872601
vt 0.913448 0.158102
vt 0.902770 0.153389
vt 0.902094 0.032718
vt 0.024818 0.027099
vt 0.779678 0.944890
vt 0.723881 0.954024
vt 0.504846 0.793059
vt 0.782901 0.785850
vt 0.289809 0.969722
vt 0.972204 0.353459
vt 0.028576 0.362507
vt 0.015170 0.353051
vt 0.146536 0.355686
vt 0.868751 0.572535
vt 0.809749 0.570577
vt 0.802652 0.358171
vt 0.923477 0.166175
vt 0.945213 0.170237
vt 0.013472 0.193316
vt 0.985888 0.826409
vt 0.104005 0.956917
vt 0.019699 0.972483
vt 0.835060 0.757531
vt 0.824909 0.586834
vt 0.305126 0.352067
vt 0.283259 0.361994
vt 0.294021 0.352505
vt 0.305126 0.029572
vt 0.304298 0.045961
vt 0.766088 0.757271
vt 0.754272 0.773080
vt 0.553684 0.771926
vt 0.013543 0.030377
vt 0.064427 0.750881
vt 0.313238 0.771778
vt 0.747524 0.020490
vt 0.766088 0.010759
vt 0.759351 0.030955
vt 0.144204 0.519867
vt 0.164115 0.513301
vt 0.296053 0.518784
vt 0.543623 0.690265
vt 0.542200 0.770150
vt 0.015073 0.531390
vt 0.016218 0.508075
vt 0.026925 0.520978
vt 0.880996 0.566421
vt 0.887807 0.724366
vt 0.303085 0.193013
vt 0.293549 0.186365
vt 0.896442 0.584456
vt 0.906072 0.584377
vt 0.903419 0.617853
vt 0.305072 0.377135
vt 0.534189 0.027099
vt 0.544733 0.021330
vt 0.539116 0.210150
vt 0.026267 0.685118
vt 0.304140 0.677740
vt 0.834599 0.012019
vt 0.790264 0.133957
vt 0.983937 0.343112
vt 0.982365 0.368351
vt 0.539312 0.387441
vt 0.540469 0.410401
vt 0.983937 0.737620
vt 0.968012 0.746801
vt 0.335489 0.815694
vt 0.778722 0.900888
vt 0.897554 0.738514
vt 0.878364 0.746881
vt 0.928839 0.746699
vt 0.916464 0.598667
vt 0.912618 0.693424
vt 0.761365 0.207469
vt 0.761018 0.225020
vt 0.943440 0.588171
vt 0.791281 0.152964
vt 0.828067 0.576380
vt 0.964507 0.158075
vt 0.964351 0.177630
vt 0.765182 0.573099
vt 0.764618 0.597983
vt 0.670851 0.592406
vt 0.845056 0.747786
vt 0.304447 0.516426
vt 0.015495 0.682410
vt 0.083444 0.514482
vt 0.014530 0.379693
vt 0.835865 0.343392
vt 0.294661 0.503501
vt 0.761917 0.406123
vt 0.945657 0.767729
vt 0.012814 0.166919
vt 0.542602 0.589358
vt 0.561713 0.600564
vt 0.014142 0.085718
vt 0.857145 0.584621
vt 0.009884 0.923706
vt 0.906652 0.017355
vt 0.948623 0.014727
vt 0.286650 0.688276
vt 0.906330 0.364480
vt 0.539715 0.229027
vt 0.912536 0.745513
vt 0.528673 0.974386
vt 0.570222 0.950171
vt 0.524738 0.577531
vt 0.957568 0.030052
vt 0.792214 0.018238
vt 0.873141 0.756873
vt 0.322579 0.569753
vn -0.2126 0.2616 0.9414
vn -0.5555 -0.0745 0.8282
vn 0.2826 -0.0106 0.9592
vn -0.2483 0.3589 0.8997
vn -0.5891 -0.5389 0.6021
vn 0.0075 -0.6953 0.7186
vn -0.7290 -0.6843 0.0125
vn -0.8335 0.3813 0.3998
vn -0.6744 0.3159 -0.6674
vn -0.0266 -0.9982 0.0527
vn 0.6633 -0.7103 0.2354
vn 0.4749 0.0121 -0.8799
vn 0.6492 -0.2134 -0.7301
vn -0.6877 -0.0136 -0.7259
vn -0.2334 -0.6588 -0.7151
vn 0.2466 -0.6516 -0.7173
vn -0.0809 -0.9882 -0.1303
vn -0.0223 0.9996 -0.0172
vn -0.3463 0.6766 0.6498
vn -0.2299 0.9725 0.0355
vn -0.5313 0.8060 -0.2610
vn 0.0109 -0.9899 -0.1415
vn 0.7826 -0.5342 -0.3195
vn 0.6709 0.3321 -0.6630
vn 0.8665 -0.3547 0.3512
vn -0.8044 0.2443 0.5414
vn -0.6369 0.6623 -0.3946
vn -0.7738 -0.5968 0.2121
vn 0.7361 0.6696 0.0986
vn 0.3348 -0.3272 -0.8837
vn -0.6350 0.3266 -0.7001
vn 0.3302 0.7005 -0.6326
vn 0.0013 0.9958 -0.0920
vn 0.1471 0.9889 -0.0207
vn 0.7080 0.1026 0.6987
vn 0.8917 0.0014 0.4526
vn -0.5736 -0.5668 -0.5914
vn 0.5671 -0.5770 -0.5878
vn -0.0135 -0.9980 -0.0621
vn 0.8376 0.2411 -0.4901
vn 0.6718 0.3194 0.6683
vn 0.0897 0.9958 0.0199
vn -0.0643 -0.5188 0.8525
vn 0.1765 0.8526 0.4919
vn 0.2678 0.3670 -0.8908
vn -0.5784 -0.8126 -0.0710
vn -0.0370 -0.9991 -0.0186
vn -0.2525 -0.9657 0.0597
vn -0.8285 0.1864 0.5280
vn 0.0126 -0.9967 0.0801
vn 0.0468 -0.9989 -0.0019
vn 0.4171 0.8354 -0.3579
vn 0.3845 0.8479 0.3650
vn -0.0737 -0.9972 -0.0102
vn 0.2953 0.8406 -0.4541
vn 0.4995 0.1564 -0.8520
vn 0.8849 0.2161 -0.4125
vn 0.8897 0.0093 -0.4563
vn 0.6492 0.6574 0.3825
vn 0.8765 -0.4701 0.1037
vn 0.7822 -0.5843 -0.2163
vn -0.8194 -0.2689 -0.5062
vn -0.3067 0.2780 -0.9103
vn 0.8864 0.2365 0.3977
vn -0.3126 -0.8924 0.3253
vn -0.8378 -0.3643 0.4065
vn 0.2219 -0.6432 0.7328
vn 0.7978 -0.4441 -0.4078
vn 0.4749 -0.1270 -0.8708
vn 0.8643 -0.2818 -0.4165
vn -0.9059 -0.1509 0.3956
vn -0.1894 -0.1968 0.9619
vn -0.2294 0.1432 0.9627
vn -0.7864 0.1581 0.5971
vn -0.6761 -0.2149 0.7047
vn -0.7084 0.4919 0.5062
vn -0.3757 0.8575 0.3514
vn -0.4396 0.8931 -0.0956
vn -0.9415 0.2571 0.2177
vn -0.9742 -0.0071 -0.2254
vn -0.5160 -0.0019 -0.8565
vn -0.8524 -0.2137 -0.4772
vn -0.0066 -0.0461 0.9989
vn -0.7311 -0.4406 0.5209
vn -0.9821 0.1486 -0.1160
vn -0.3798 0.1637 -0.9104
vn -0.8983 0.1593 -0.4093
vn 0.0808 0.9952 0.0550
vn 0.0014 0.9926 0.1210
vn 0.8506 -0.3597 0.3834
vn 0.5040 -0.3240 0.8006
vn 0.0457 -0.9984 0.0313
vn 0.4681 -0.8660 0.1755
vn 0.0243 -0.9130 0.4071
vn 0.1438 -0.2327 -0.9618
vn -0.9322 -0.0632 -0.3564
vn -0.8585 0.3437 0.3805
vn -0.8931 -0.3288 -0.3070
vn 0.0008 0.9973 -0.0727
vn 0.1646 0.9863 -0.0110
vn 0.1542 -0.2015 -0.9673
vn 0.9618 -0.1968 -0.1902
vn -0.0873 0.9955 0.0366
vn -0.3379 0.6726 0.6583
vn -0.3992 0.7926 -0.4609
vn 0.5740 -0.3509 0.7399
vn -0.3013 -0.6429 0.7042
vn 0.2573 -0.5161 0.8169
vn -0.0056 -0.9879 0.1551
vn -0.9453 0.0272 -0.3251
vn -0.4051 0.0342 -0.9136
vn 0.6451 0.2679 0.7156
vn -0.2653 -0.5969 -0.7571
vn 0.8702 -0.2051 0.4479
vn -0.1358 0.9906 -0.0160
vn -0.0154 0.9638 -0.2660
vn 0.9894 0.0296 0.1422
vn 0.5625 0.0396 0.8258
vn 0.8041 -0.0009 0.5944
vn -0.3485 -0.3435 0.8721
vn -0.6517 -0.5162 -0.5557
vn -0.5944 0.0061 -0.8041
vn 0.0761 0.1605 -0.9841
vn 0.7481 0.2476 -0.6156
vn -0.1910 -0.3116 -0.9308
vn 0.9628 0.0120 -0.2699
vn 0.0842 0.0287 0.9960
vn 0.8125 -0.2043 0.5459
vn 0.3390 -0.1594 0.9272
vn -0.0078 0.0375 0.9992
vn 0.3104 0.2899 0.9053
vn 0.2284 -0.9722 -0.0517
vn -0.3493 -0.0750 -0.9340
vn 0.0177 -0.9958 -0.0897
vn 0.1114 -0.9937 -0.0075
usemtl Default_OBJ.018
s 1
f 42/1/1 17/2/2 6/3/3
f 12/4/4 71/5/5 2/6/6
f 75/7/7 65/8/8 77/9/9
f 134/10/10 1/11/11 2/6/6
f 128/12/12 93/13/13 66/14/14
f 31/15/15 73/16/16 109/17/17
f 113/18/18 105/19/19 60/20/20
f 113/18/18 33/21/21 105/19/19
f 73/16/16 110/22/22 109/17/17
f 86/23/23 39/24/24 67/25/25
f 76/26/26 16/27/27 26/28/28
f 39/24/24 97/29/29 67/25/25
f 69/30/30 89/31/31 98/32/32
f 114/33/33 98/32/32 113/18/18
f 98/32/32 114/33/33 118/34/34
f 38/35/35 6/3/3 24/36/36
f 91/37/37 78/38/38 123/39/39
f 30/40/40 56/41/41 1/11/11
f 25/42/42 29/43/43 49/44/44
f 54/45/45 91/37/37 77/9/9
f 57/46/46 8/47/47 82/48/48
f 17/2/2 42/1/1 37/49/49
f 73/16/16 39/24/24 86/23/23
f 124/50/50 125/51/51 1/11/11
f 56/41/41 51/52/52 84/53/53
f 91/37/37 123/39/39 122/54/54
f 39/24/24 16/27/27 40/55/55
f 39/24/24 40/55/55 97/29/29
f 58/56/56 130/57/57 10/58/58
f 21/59/59 61/60/60 85/61/61
f 4/62/62 16/27/27 106/63/63
f 130/57/57 119/64/64 10/58/58
f 71/5/5 12/4/4 65/65/8
f 75/7/7 3/66/65 134/67/10
f 87/68/66 61/60/60 23/69/67
f 99/70/68 80/71/69 72/72/70
f 17/2/2 107/73/71 108/74/72
f 15/75/73 102/76/74 50/77/75
f 42/1/1 116/78/76 37/49/49
f 65/8/8 22/79/77 81/80/78
f 122/54/54 3/66/65 75/7/7
f 102/81/74 15/82/73 131/83/79
f 46/84/80 59/85/81 79/86/82
f 126/87/83 50/77/75 127/88/84
f 115/89/85 19/90/86 70/91/87
f 74/92/88 36/93/89 21/59/59
f 108/74/72 117/94/90 48/95/91
f 94/96/92 53/97/93 120/98/94
f 80/71/69 99/70/68 5/99/95
f 127/100/84 50/101/75 52/102/96
f 119/64/64 38/35/35 10/58/58
f 37/103/49 46/84/80 107/104/71
f 55/105/97 89/31/31 68/106/98
f 40/55/55 121/107/99 88/108/100
f 62/109/101 93/13/13 111/110/102
f 41/111/103 100/112/104 49/44/44
f 92/113/105 77/9/9 81/80/78
f 2/6/6 1/11/11 20/114/106
f 57/46/46 31/15/15 8/47/47
f 115/89/85 70/91/87 46/84/80
f 60/115/20 105/116/19 36/93/89
f 4/62/62 106/63/63 31/15/15
f 31/15/15 106/63/63 73/16/16
f 100/112/104 101/117/107 63/118/108
f 120/98/94 63/118/108 101/117/107
f 135/119/109 120/98/94 101/117/107
f 43/120/110 34/121/111 66/14/14
f 29/43/43 41/111/103 49/44/44
f 97/29/29 18/122/112 67/25/25
f 56/41/41 20/114/106 1/11/11
f 30/40/40 54/45/45 51/52/52
f 33/21/21 55/105/97 105/19/19
f 32/123/113 69/30/30 68/106/98
f 34/121/111 128/12/12 66/14/14
f 18/122/112 100/112/104 63/118/108
f 43/120/110 66/14/14 52/102/96
f 21/59/59 104/124/114 61/60/60
f 16/27/27 132/125/115 64/126/116
f 25/42/42 49/44/44 97/29/29
f 49/44/44 18/122/112 97/29/29
f 14/127/117 13/128/118 9/129/119
f 54/45/45 30/40/40 78/38/38
f 44/130/120 87/68/66 23/69/67
f 21/59/59 36/93/89 105/116/19
f 51/52/52 92/113/105 81/80/78
f 107/104/71 79/86/82 27/131/121
f 115/89/85 46/84/80 37/103/49
f 37/103/49 116/132/76 115/89/85
f 7/133/122 59/85/81 46/84/80
f 43/120/110 102/81/74 131/83/79
f 19/90/86 96/134/123 58/56/56
f 21/59/59 45/135/124 98/32/32
f 35/136/125 5/99/95 27/131/121
f 23/69/67 61/60/60 104/124/114
f 77/9/9 91/37/37 75/7/7
f 10/58/58 117/94/90 72/72/70
f 58/56/56 10/58/58 80/71/69
f 53/97/93 86/23/23 67/25/25
f 129/137/126 111/110/102 93/13/13
f 26/28/28 4/62/62 57/46/46
f 120/98/94 53/97/93 63/118/108
f 12/4/4 22/138/77 65/65/8
f 107/104/71 46/84/80 79/86/82
f 75/7/7 91/37/37 122/54/54
f 38/35/35 119/64/64 95/139/127
f 58/56/56 80/71/69 59/85/81
f 24/36/36 48/95/91 117/94/90
f 14/127/117 112/140/128 111/110/102
f 6/3/3 48/95/91 24/36/36
f 83/141/129 13/128/118 50/77/75
f 14/127/117 9/129/119 112/140/128
f 98/32/32 89/31/31 33/21/21
f 54/45/45 78/38/38 91/37/37
f 12/4/4 56/41/41 84/53/53
f 95/139/127 90/142/130 38/35/35
f 134/10/10 124/50/50 1/11/11
f 9/129/119 83/141/129 112/140/128
f 44/130/120 11/143/131 105/116/19
f 56/41/41 30/40/40 51/52/52
f 65/8/8 75/7/7 71/144/5
f 33/21/21 89/31/31 55/105/97
f 106/63/63 39/24/24 73/16/16
f 101/145/107 100/146/104 76/26/26
f 24/36/36 117/94/90 10/58/58
f 132/125/115 16/27/27 100/146/104
f 80/71/69 10/58/58 72/72/70
f 98/32/32 118/34/34 21/59/59
f 26/28/28 57/46/46 101/145/107
f 57/46/46 82/48/48 101/145/107
f 40/55/55 25/42/42 97/29/29
f 58/56/56 96/134/123 130/57/57
f 69/30/30 85/61/61 61/60/60
f 88/108/100 25/42/42 40/55/55
f 23/69/67 11/143/131 44/130/120
f 17/147/2 37/103/49 107/104/71
f 17/2/2 108/74/72 48/95/91
f 125/51/51 78/38/38 1/11/11
f 94/96/92 103/148/132 53/97/93
f 59/85/81 80/71/69 35/136/125
f 66/14/14 62/109/101 133/149/133
f 31/15/15 109/17/17 8/47/47
f 90/142/130 42/1/1 38/35/35
f 71/5/5 134/10/10 2/6/6
f 56/41/41 2/6/6 20/114/106
f 112/140/128 83/141/129 126/87/83
f 19/90/86 58/56/56 7/133/122
f 12/4/4 2/6/6 56/41/41
f 38/35/35 42/1/1 6/3/3
f 101/117/107 82/150/48 135/119/109
f 11/143/131 23/69/67 104/124/114
f 21/59/59 118/34/34 74/92/88
f 47/151/134 78/38/38 28/152/135
f 84/153/53 51/52/52 81/80/78
f 65/8/8 81/80/78 77/9/9
f 45/135/124 69/30/30 98/32/32
f 11/143/131 21/59/59 105/116/19
f 117/94/90 99/70/68 72/72/70
f 54/45/45 92/113/105 51/52/52
f 128/12/12 129/137/126 93/13/13
f 110/22/22 73/16/16 103/148/132
f 16/27/27 39/24/24 106/63/63
f 26/28/28 101/145/107 76/26/26
f 132/125/115 100/146/104 41/154/103
f 27/131/121 79/86/82 35/136/125
f 13/128/118 15/75/73 50/77/75
f 48/95/91 6/3/3 17/2/2
f 55/105/97 68/106/98 87/155/66
f 78/38/38 47/151/134 123/39/39
f 44/130/120 105/116/19 55/156/97
f 44/130/120 55/156/97 87/68/66
f 50/101/75 43/120/110 52/102/96
f 77/9/9 92/113/105 54/45/45
f 18/122/112 63/118/108 67/25/25
f 125/51/51 28/152/135 78/38/38
f 63/118/108 53/97/93 67/25/25
f 80/71/69 5/99/95 35/136/125
f 40/55/55 16/27/27 121/107/99
f 70/91/87 19/90/86 7/133/122
f 21/59/59 85/61/61 45/135/124
f 10/58/58 38/35/35 24/36/36
f 70/91/87 7/133/122 46/84/80
f 59/85/81 35/136/125 79/86/82
f 89/31/31 69/30/30 32/123/113
f 16/27/27 4/62/62 26/28/28
f 133/149/133 52/102/96 66/14/14
f 14/127/117 111/110/102 129/137/126
f 85/61/61 69/30/30 45/135/124
f 30/40/40 1/11/11 78/38/38
f 75/7/7 134/67/10 71/144/5
f 21/59/59 11/143/131 104/124/114
f 93/13/13 62/109/101 66/14/14
f 22/138/77 12/4/4 84/53/53
f 58/56/56 59/85/81 7/133/122
f 98/32/32 33/21/21 113/18/18
f 89/31/31 32/123/113 68/106/98
f 83/141/129 50/77/75 126/87/83
f 4/62/62 31/15/15 57/46/46
f 73/16/16 86/23/23 103/148/132
f 13/128/118 83/141/129 9/129/119
f 102/81/74 43/120/110 50/101/75
f 53/97/93 103/148/132 86/23/23
f 81/80/78 22/157/77 84/153/53
f 100/112/104 18/122/112 49/44/44
f 42/1/1 90/142/130 116/78/76
f 16/27/27 76/26/26 100/146/104
f 121/107/99 16/27/27 64/126/116
